<svg width="110" height="67" viewBox="0 0 110 67" fill="none" xmlns="http://www.w3.org/2000/svg">
<path fill-rule="evenodd" clip-rule="evenodd" d="M102.24 16.7374L96.3274 40.4665C95.1765 40.7617 94.2273 40.9692 93.1966 41.2122C99.4707 16.1029 93.701 39.0388 99.6691 15.6122L104.806 10.4376C97.8878 11.2945 90.9831 12.1318 84.0558 12.9638C80.5936 16.9394 77.131 20.9154 73.6688 24.8913C72.4592 26.2252 72.0893 27.5362 71.5466 29.1494L67.3696 46.1169L77.6314 44.7766C78.9683 39.3926 80.0801 34.9052 81.4173 29.5214C81.7406 28.3818 82.0919 27.2139 83.1533 25.7702L89.1351 18.0305L82.5282 44.1803L85.2891 43.8196C85.3177 43.9752 85.4007 44.1164 85.547 44.2272C86.0405 44.5927 86.5075 44.6749 87.6779 44.6744C89.34 44.1989 90.625 43.7377 92.2936 43.6291C91.7528 43.5603 91.5018 43.3703 91.9412 43.1862C93.6419 42.6614 95.0521 42.4536 95.9584 41.9474L95.6807 43.0621C95.3712 43.1594 95.0135 43.2635 94.6023 43.3664C94.9571 43.3703 95.2876 43.3834 95.5954 43.4044L94.5939 47.4234L93.0237 45.6654C93.2066 45.555 93.6834 45.3493 93.8998 45.1547C94.0674 45.0353 94.1042 44.9537 93.7991 44.9769C92.2762 45.1381 91.3431 45.2445 90.218 45.6812C90.0568 45.6065 89.4444 45.3415 89.2834 45.1946C89.2 45.1183 89.1669 45.0076 89.3704 44.9235C90.2959 44.5594 91.1991 44.3452 92.2275 44.1023C92.2171 44.0981 92.2061 44.0938 92.1953 44.0896C91.3565 44.1526 89.6427 44.562 88.5519 44.9717C88.3552 45.0553 87.9591 45.1474 88.3139 45.3861C88.4386 45.4772 89.3153 45.8608 89.6369 46.0391C89.7526 46.1917 90.7412 46.1637 91.4286 46.0766L94.4332 48.0685L94.2283 48.8905C90.8711 49.9224 83.7656 50.7573 84.3182 47.0276C83.1918 49.2004 84.726 50.5796 90.0983 50.3228C91.0899 50.2754 92.5164 50.0659 94.0266 49.7007L92.6703 55.1435L41.3654 56.0013L41.5961 55.8097L42.2545 54.9646L54.6338 39.1938L56.1231 47.5796L66.3617 46.2423L63.1886 28.2954L76.2796 11.6181L109.618 7.25244L109.137 9.44413L102.24 16.7374ZM28.7072 55.5457L13.0781 57.535L21.0761 25.4211L15.2525 21.0391L15.6545 19.5567L71.7013 12.2175L68.1169 16.6236L62.3733 23.6841L61.0237 16.0508L50.762 17.3911L53.7598 34.2725L39.1705 52.2071C37.6357 54.0864 35.1105 54.2573 34.0068 54.5175L28.7072 55.5457ZM17.2122 52.6386L27.474 51.2983L29.5868 42.8442L38.0422 41.73C42.4635 41.1473 45.8454 38.5196 47.0018 33.98L49.5003 24.1721C50.6572 19.6322 48.4071 17.717 43.9855 18.2967C35.8476 19.3638 27.7357 20.4241 19.5993 21.4457L24.203 24.9697L17.2122 52.6386ZM31.054 37.0405L34.0628 25.214L38.1949 24.5658C39.1959 24.4086 39.4753 24.8905 39.2832 25.6456L36.912 34.9484C36.72 35.7034 36.1854 36.2357 35.1858 36.3925L31.054 37.0405Z" fill="white"/>
<path fill-rule="evenodd" clip-rule="evenodd" d="M85.9057 60.7564C78.4305 62.6505 67.8164 64.6344 59.604 65.471C45.8056 66.8769 22.235 68.1456 9.7118 62.7919C-1.15192 58.1475 -1.81513 51.3097 2.42822 46.1715C8.48373 38.8392 21.9586 34.2531 32.3425 32.1368C38.2012 31.6481 35.1148 34.1221 34.41 36.445C23.0231 38.7761 15.874 43.1653 14.5369 46.542C13.6361 48.8162 15.2943 50.2116 17.1463 50.9776C19.4661 51.9377 23.1023 52.5884 27.4719 52.633C30.7354 52.6665 34.8821 52.3728 39.4738 51.8342L39.1706 52.2068C37.6359 54.0861 35.1107 54.2569 34.007 54.5171L39.1177 58.4329L41.5963 55.8094L42.2546 54.9643L45.326 51.0517C60.1121 48.8499 75.2172 46.7962 82.8561 42.9003C80.1277 47.5779 80.9661 59.3621 85.9057 60.7564ZM46.1966 58.5361C49.9989 58.074 56.4565 57.6844 59.1844 56.8497C52.9073 56.8189 46.1868 56.3937 41.6096 56.1323C40.087 58.1528 38.6498 60.0818 37.7801 60.5191C37.616 60.6014 37.4426 60.6849 37.2622 60.7689C39.3585 60.7148 47.8523 59.8592 50.5118 59.1206C48.8109 58.9538 47.2244 58.7182 46.1966 58.5361ZM23.2508 57.7368C22.6669 60.0311 22.0263 62.2164 21.2474 64.5226C21.2013 64.6588 21.2054 64.8752 21.5545 64.8156L27.9191 63.1029L32.2591 58.4488L29.5001 62.6774L31.1647 62.2294C31.7477 61.9814 32.0241 61.5269 32.1326 61.2596C32.9034 59.3655 33.3448 58.0324 33.7962 56.0373C33.8519 55.6747 33.6759 55.595 33.3801 55.6189L29.739 56.113L22.3792 64.3485L27.6108 56.402L24.5945 56.8112C23.9977 56.8987 23.4894 56.916 23.2508 57.7368Z" fill="white"/>
<path fill-rule="evenodd" clip-rule="evenodd" d="M4.71559 49.0161C7.33715 43.1824 18.1266 37.9598 26.6284 35.8177C27.0533 35.7996 26.3995 36.1969 26.2776 36.229C20.6785 37.6962 9.6338 43.9982 10.6139 48.5545C11.8362 54.2382 23.0446 55.0258 33.4521 54.4934C34.22 55.1793 36.0786 54.8739 38.3332 54.1522C43.4756 53.7031 47.9339 53.05 50.1849 52.6996C62.8483 50.7271 76.6601 47.6813 82.0121 45.24C81.7475 49.4122 80.6898 54.7951 80.4251 58.9674C64.2756 62.1488 49.1187 63.6966 35.2981 62.9896C34.211 62.9341 32.2986 62.8052 29.9376 62.56L31.1646 62.23C31.7475 61.982 32.024 61.5275 32.1325 61.2602C32.9033 59.3661 33.3447 58.033 33.7961 56.0379C33.8517 55.6753 33.6758 55.5956 33.38 55.6195L29.7388 56.1136L24.5848 61.881C24.41 61.8545 24.2339 61.827 24.0577 61.7994L27.6107 56.4026L24.5944 56.8118C23.9976 56.8993 23.4893 56.9166 23.2507 57.7374C22.927 59.0094 22.5857 60.2479 22.2133 61.492C12.3666 59.7524 1.50201 56.1683 4.71559 49.0161ZM46.1965 58.5366C49.9988 58.0746 56.4564 57.685 59.1843 56.8503C52.9072 56.8195 46.1867 56.3943 41.6095 56.1329C40.0869 58.1534 38.6497 60.0824 37.78 60.5197C37.6159 60.602 37.4424 60.6855 37.2621 60.7695C39.3584 60.7154 47.8522 59.8597 50.5117 59.1212C48.8108 58.9544 47.2243 58.7188 46.1965 58.5366ZM29.6001 62.5243C29.2629 62.4884 28.9189 62.4506 28.5657 62.4099L32.259 58.4494L29.6001 62.5243Z" fill="#30B3C7"/>
<path fill-rule="evenodd" clip-rule="evenodd" d="M79.4677 49.3674C72.0408 52.4997 59.4733 54.4002 50.1345 55.7679C52.8093 56.2532 61.1486 56.7596 65.1404 56.3764C60.0264 58.3164 48.7311 60.5212 41.0312 61.3508C52.5963 62.3472 65.494 60.1403 80.482 57.6948C80.2336 55.6636 79.4677 48.4127 79.4677 49.3674Z" fill="white"/>
<path fill-rule="evenodd" clip-rule="evenodd" d="M78.1909 49.7592C78.6721 52.1792 79.1597 56.2605 79.6409 58.6807C80.9072 61.2526 84.3701 61.8464 89.3357 61.0883C95.2869 60.1792 104.836 57.4987 104.892 50.4426C104.905 48.7148 105.175 45.9972 105 44.3714C104.409 38.8977 97.3075 38.6475 92.6776 39.4436C82.835 41.1364 77.4365 45.2747 78.1909 49.7592ZM94.6036 43.3665C97.7501 43.4013 99.0013 44.1473 99.1506 44.9485C99.3291 45.9043 97.8713 47.7624 94.632 48.7601C91.4824 49.8446 83.7438 50.9139 84.3195 47.0278C83.1931 49.2006 84.7273 50.5798 90.0996 50.3229C93.1341 50.1779 100.241 48.5147 101.355 45.5212C102.292 43.001 98.5982 42.5745 96.8571 42.6653C96.4185 42.8094 95.7026 43.0914 94.6036 43.3665ZM90.2193 45.6813C90.0581 45.6067 89.4457 45.3417 89.2848 45.1947C89.2013 45.1185 89.1682 45.0078 89.3717 44.9237C90.2972 44.5596 91.2004 44.3454 92.2288 44.1025C92.2184 44.0983 92.2074 44.094 92.1966 44.0898C91.3578 44.1528 89.644 44.5622 88.5532 44.9719C88.3565 45.0555 87.9604 45.1476 88.3152 45.3862C88.4399 45.4774 89.3166 45.861 89.6382 46.0393C89.7539 46.1919 90.7425 46.1639 91.4299 46.0768L94.7295 48.2644C94.962 48.4699 95.5416 48.4936 95.2357 48.1405L93.025 45.6656C93.2079 45.5551 93.6847 45.3495 93.9011 45.1549C94.0687 45.0355 94.1055 44.9539 93.8004 44.9771C92.2775 45.1382 91.3444 45.2447 90.2193 45.6813ZM91.1036 41.7389C93.3706 41.1275 94.7777 40.8896 97.0446 40.2783C96.8569 42.3186 94.8133 42.3004 91.9425 43.1864C91.5031 43.3705 91.7541 43.5605 92.2949 43.6293C90.6263 43.7379 89.3413 44.1991 87.6792 44.6746C86.5088 44.6751 86.0418 44.5929 85.5483 44.2273C84.932 43.7611 85.4393 42.7552 86.4005 42.4023C88.1286 41.6737 90.0929 41.4755 92.0638 40.8848C91.5844 41.115 91.4538 41.4842 91.1036 41.7389Z" fill="white"/>
<path fill-rule="evenodd" clip-rule="evenodd" d="M97.4615 51.9159C92.8697 53.5596 86.9116 53.1766 83.957 52.2346C88.8053 52.8194 95.3309 51.8057 99.2525 49.9745C104.515 47.5168 104.978 41.6239 99.1147 40.4512C101.74 40.5604 103.75 42.078 103.994 44.703C104.126 46.1221 103.907 48.5188 103.849 50.0947C103.754 51.9681 102.829 53.6691 100.957 55.1701L100.708 54.7293L100.315 55.6512C100.153 55.7652 99.9845 55.878 99.81 55.9896L100.013 55.8333L99.6572 55.2067L99.143 56.3201L98.7804 55.696L98.3184 56.6893L97.9901 56.1358L97.6378 56.9506L97.3693 56.4771L97.3014 56.6186L97.306 56.4836L97.7726 56.237L97.7669 56.227L98.3933 55.8958L98.3837 55.8788L99.1837 55.4559L98.7963 54.7727L98.3518 55.8226L98.0059 55.2126L97.6578 56.0348L97.3852 55.5538L97.3336 55.6756L97.3378 55.5521L97.7884 55.3139L97.7827 55.3038L98.4092 54.9727L98.3995 54.9556L99.1997 54.5326L98.8124 53.8495L98.3677 54.8994L98.0218 54.2895L97.6737 55.1117L97.401 54.6306L97.3663 54.7125L97.3695 54.6205L97.8043 54.3906L97.7986 54.3806L98.4251 54.0495L98.4154 54.0325L99.2155 53.6095L98.8282 52.9263L98.3835 53.9762L98.0377 53.3664L97.6896 54.1884L97.4169 53.7075L97.399 53.7493L97.4011 53.689L97.8202 53.4675L97.8145 53.4574L98.441 53.1263L98.4313 53.1094L99.2315 52.6864L98.9054 52.1114C99.1858 51.9247 99.451 51.7283 99.6993 51.5205L99.3223 52.4109L100.122 51.9885L99.8054 51.4302C100.152 51.1295 100.463 50.8059 100.733 50.4551C99.636 51.0911 98.5543 51.5585 97.4612 51.9274L97.4615 51.9159ZM100.903 54.1345L100.645 53.6797L100.323 54.4412L100.903 54.1345ZM100.886 53.1033L100.643 52.6744L100.339 53.3923L100.886 53.1033ZM100.884 52.0999L100.643 51.6743L100.341 52.3868L100.884 52.0999ZM100.87 51.1142L100.641 50.7105L100.355 51.3868L100.87 51.1142ZM100.061 54.8724L99.7057 54.2458L99.2614 55.295L100.061 54.8724ZM100.058 53.9111L99.7031 53.2844L99.2589 54.3338L100.058 53.9111ZM100.09 52.9497L99.7349 52.3229L99.2906 53.3723L100.09 52.9497ZM97.5052 52.912C97.6571 52.8366 97.8065 52.7593 97.9531 52.6802L97.7055 53.2652L97.5052 52.912ZM98.3994 53.0531L98.1324 52.582C98.3476 52.4619 98.5561 52.3374 98.7573 52.2082L98.3994 53.0531Z" fill="#898989"/>
<path fill-rule="evenodd" clip-rule="evenodd" d="M59.4304 29.2463C58.5214 30.1364 43.9229 47.6764 40.3716 51.9165C39.4448 53.0349 38.0595 54.6244 34.4504 54.5887C34.0329 54.5844 34.0355 54.3155 32.8776 54.4625C28.0521 55.0763 20.3173 56.0477 17.4637 56.4846C16.8359 56.5803 15.8609 56.9358 15.7009 57.6647L13.9524 63.7641C12.5221 68.3182 16.9697 67.3111 23.2675 65.313C23.6669 65.3711 33.5681 62.6346 37.7803 60.5195C38.8366 59.9885 40.7304 57.2565 42.5972 54.8329L62.2368 29.3353L59.4304 29.2463ZM23.251 57.7372C22.6672 60.0315 22.0265 62.2168 21.2476 64.523C21.2015 64.6592 21.2056 64.8756 21.5547 64.816L27.9193 63.1033L32.2593 58.4492L29.5003 62.6778L31.1649 62.2298C31.7479 61.9818 32.0243 61.5273 32.1328 61.26C32.9036 59.3659 33.345 58.0328 33.7964 56.0377C33.8521 55.6751 33.6761 55.5954 33.3803 55.6193L29.7392 56.1134L22.3794 64.3489L27.611 56.4024L24.5948 56.8116C23.9979 56.8991 23.4896 56.9164 23.251 57.7372Z" fill="url(#paint0_linear_1645_1736)"/>
<path fill-rule="evenodd" clip-rule="evenodd" d="M15.331 66.1285C14.601 65.2192 17.2351 59.1822 17.5566 58.0156C17.6182 57.7222 16.7507 57.6323 16.6501 57.8261C16.1086 59.8469 14.0261 65.5338 15.331 66.1285Z" fill="#3DCAE0"/>
<path fill-rule="evenodd" clip-rule="evenodd" d="M17.7759 42.4024L15.4284 51.6844L12.5391 48.5106L13.5624 44.8576L17.7759 42.2825V42.4024Z" fill="white"/>
<path d="M16.8359 16.2675L17.9028 12.0904L19.4576 11.8863C19.6858 11.8562 19.873 11.8839 20.0188 11.9691C20.165 12.0552 20.2617 12.1843 20.3091 12.3578C20.3557 12.5316 20.3502 12.7307 20.2927 12.9564C20.234 13.1859 20.1324 13.4025 19.9873 13.607C19.8422 13.8114 19.6663 13.9808 19.4615 14.1168C19.2568 14.2517 19.0403 14.3342 18.8123 14.3641L18.0929 14.4585L17.6584 16.1595L16.8359 16.2675ZM18.9823 12.5469L18.5672 12.6013L18.2509 13.8395L18.6661 13.785C19.0774 13.7311 19.3367 13.4957 19.4434 13.0782C19.5474 12.6703 19.3935 12.4929 18.9823 12.5469ZM20.0472 15.8459L21.1139 11.6688L23.4321 11.3645L23.261 12.0355L21.7649 12.2319L21.5226 13.1808L22.8865 13.0017L22.7255 13.6324L21.3617 13.8114L21.0322 15.1017L22.528 14.9053L22.3654 15.5415L20.0472 15.8459ZM25.3414 12.4278L25.3652 12.3352C25.4317 12.0749 25.4412 11.8966 25.3941 11.8011C25.3468 11.7056 25.2352 11.6701 25.0591 11.6931C24.8819 11.7164 24.7413 11.7864 24.6361 11.9026C24.532 12.0187 24.4465 12.206 24.3804 12.4645L23.9608 14.1075C23.8928 14.3736 23.8831 14.556 23.9305 14.654C23.9791 14.7519 24.0912 14.7894 24.2684 14.7662C24.4386 14.7439 24.5767 14.6726 24.6847 14.5522C24.7921 14.4309 24.8787 14.2396 24.9455 13.9782L25.0029 13.7528L25.8316 13.644L25.7831 13.834C25.7139 14.1049 25.6128 14.3492 25.4796 14.5671C25.3468 14.785 25.1665 14.9679 24.9392 15.1161C24.7118 15.2643 24.4361 15.3593 24.1119 15.4017C23.6134 15.4672 23.2987 15.3866 23.1661 15.1598C23.0334 14.9329 23.021 14.6066 23.1294 14.1823L23.5163 12.6673C23.6402 12.1824 23.8453 11.8069 24.1304 11.5422C24.417 11.2762 24.7842 11.1141 25.2336 11.0553C25.5066 11.0194 25.7294 11.0377 25.901 11.1112C26.0729 11.1837 26.1848 11.307 26.238 11.4806C26.2903 11.6548 26.285 11.8686 26.2202 12.1224L26.1699 12.319L25.3414 12.4278ZM25.9859 15.0664L27.0526 10.8893L29.7841 10.5307L28.7174 14.7079L27.8949 14.8158L28.8006 11.2692L27.7141 11.4118L26.8083 14.9584L25.9859 15.0664ZM30.1684 10.4802L31.094 10.3586L31.1938 12.4861L32.4257 10.1838L33.3265 10.0655L31.2855 13.5998C31.1579 13.8226 31.0353 14.0047 30.9158 14.1461C30.7979 14.2865 30.6794 14.3907 30.5622 14.4591C30.4442 14.5276 30.3171 14.5704 30.1801 14.5884C30.0039 14.6114 29.8442 14.6083 29.7008 14.5787L29.8561 13.9712C29.8742 13.9727 29.8924 13.9767 29.9124 13.9815C29.9329 13.9854 29.957 13.9886 29.9857 13.9905C30.0142 13.9924 30.0434 13.9913 30.0735 13.9873C30.2385 13.9657 30.3853 13.8457 30.5133 13.6277L30.1684 10.4802ZM33.9361 12.1998L33.6065 13.4901L34.075 13.4284C34.399 13.386 34.6164 13.1486 34.727 12.7157C34.7791 12.5114 34.7765 12.3589 34.7179 12.2593C34.6602 12.1588 34.5534 12.1187 34.3984 12.139L33.9361 12.1998ZM34.2179 13.9856L32.6318 14.1939L33.6985 10.0168L35.998 9.71477L35.8458 10.3107L34.3689 10.5046L34.0971 11.5691L34.7874 11.4786C34.9516 11.4569 35.0934 11.4701 35.2138 11.5176C35.3341 11.5652 35.4278 11.6376 35.4961 11.7368C35.5647 11.8359 35.6065 11.9525 35.6234 12.0874C35.6401 12.222 35.629 12.3643 35.5909 12.5138C35.4865 12.9226 35.3124 13.2595 35.0687 13.5244C34.825 13.7894 34.5411 13.9432 34.2179 13.9856ZM37.2339 9.55264L39.7436 9.2231L38.6767 13.4003L37.8543 13.5083L38.7601 9.96164L37.8834 10.0769L37.4725 11.6862C37.3518 12.1585 37.2237 12.5463 37.0885 12.8483C36.9535 13.1503 36.8 13.3801 36.628 13.5389C36.4561 13.6965 36.2561 13.7907 36.028 13.8207C35.8287 13.8468 35.6671 13.8514 35.5428 13.8341L35.6918 13.2506C35.7473 13.2611 35.8338 13.259 35.9499 13.2437C36.0209 13.2345 36.0822 13.2107 36.1317 13.1724C36.182 13.1342 36.234 13.0593 36.2893 12.9486C36.3446 12.8379 36.406 12.6732 36.4747 12.4535C36.5431 12.235 36.6254 11.9352 36.7227 11.5544L37.2339 9.55264ZM42.0751 12.9543L43.1418 8.77698L42.2532 8.89369L40.2698 12.0897C40.3175 11.9894 40.3693 11.8585 40.4271 11.6971C40.4859 11.5347 40.5425 11.3587 40.5988 11.1685C40.6549 10.9784 40.7068 10.7909 40.754 10.6058L41.1544 9.03791L40.3801 9.13958L39.3133 13.3168L40.2018 13.2002L42.1817 10.0103C42.0265 10.3492 41.867 10.838 41.7039 11.4764L41.3005 13.0558L42.0751 12.9543ZM42.6873 12.8739L43.754 8.69653L44.5767 8.58857L44.1142 10.3995L45.5731 8.45792L46.5048 8.33553L44.9428 10.2907L45.4731 12.508L44.5554 12.6286L44.2598 11.056L43.8304 11.5104L43.5099 12.7659L42.6873 12.8739ZM45.634 12.4869L47.7996 8.16563L48.9053 8.02042L48.7981 12.0715L47.9095 12.1882L47.9843 11.1272L47.0536 11.2492L46.5177 12.371L45.634 12.4869ZM47.3128 10.617L48.0392 10.5218L48.2069 8.61991L47.3128 10.617ZM49.1403 12.0266L50.2071 7.84954L51.0297 7.74146L50.6159 9.36141L51.7024 9.21879L52.1163 7.59884L52.9387 7.49088L51.872 11.6681L51.0495 11.776L51.5415 9.84938L50.4549 9.992L49.963 11.9187L49.1403 12.0266ZM54.9633 8.5391L54.9868 8.44645C55.0533 8.18612 55.063 8.00784 55.016 7.91235C54.9687 7.8171 54.8569 7.78132 54.6808 7.80439C54.5037 7.82771 54.3631 7.89766 54.2579 8.01388C54.1537 8.12998 54.0682 8.31727 54.0022 8.57574L53.5826 10.2188C53.5146 10.4849 53.5049 10.6672 53.5524 10.7652C53.6008 10.8633 53.7131 10.9007 53.8902 10.8775C54.0604 10.8552 54.1985 10.7838 54.3066 10.6634C54.4139 10.5421 54.5005 10.3509 54.5672 10.0895L54.6248 9.86405L55.4535 9.75524L55.405 9.94523C55.3357 10.2162 55.2345 10.4605 55.1015 10.6783C54.9686 10.8961 54.7883 11.0792 54.5611 11.2274C54.3337 11.3756 54.0577 11.4706 53.7337 11.513C53.2353 11.5785 52.9205 11.4978 52.7878 11.2711C52.6552 11.0442 52.6429 10.7178 52.7513 10.2935L53.1382 8.77858C53.262 8.29371 53.4671 7.91814 53.7523 7.65337C54.0388 7.38749 54.4061 7.22538 54.8554 7.16652C55.1284 7.13062 55.351 7.14901 55.5229 7.22242C55.6948 7.29496 55.8064 7.41821 55.8599 7.5918C55.9121 7.76601 55.9069 7.97983 55.8419 8.23362L55.7918 8.43028L54.9633 8.5391ZM55.6075 11.1777L56.6742 7.00058L57.4969 6.8925L57.0344 8.70331L58.4933 6.76172L59.425 6.63946L57.863 8.5945L58.3931 10.8118L57.4756 10.9324L57.1799 9.35994L56.7506 9.81421L56.4301 11.0697L55.6075 11.1777ZM58.5542 10.7909L60.7198 6.46944L61.8255 6.32422L61.7183 10.3753L60.8297 10.4919L60.9044 9.431L59.9738 9.55327L59.4379 10.6748L58.5542 10.7909ZM60.2331 8.92083L60.9594 8.82558L61.127 6.92372L60.2331 8.92083ZM64.696 9.98446L65.7628 5.80739L64.1789 6.01516C63.9517 6.04514 63.7399 6.12509 63.5432 6.25513C63.3453 6.38665 63.1788 6.55013 63.0413 6.74803C62.9047 6.94568 62.807 7.15714 62.7496 7.38256C62.7049 7.55726 62.6898 7.71863 62.7047 7.86484C62.7196 8.01104 62.763 8.13677 62.8371 8.23979C62.9113 8.34367 63.0088 8.41572 63.1322 8.45533L61.8324 10.3605L62.7259 10.2431L63.9049 8.44447L64.3081 8.39142L63.8736 10.0926L64.696 9.98446ZM64.3682 6.58862L64.7822 6.53433L64.4661 7.77256L64.0519 7.82672C63.6397 7.881 63.4867 7.69964 63.5933 7.28213C63.6975 6.87424 63.9558 6.64279 64.3682 6.58862ZM68.1564 7.45486L67.672 5.55669L68.6268 5.43146L68.8378 6.71742L69.7743 5.28069L70.697 5.15954L69.111 7.32951L69.6672 9.33192L68.7487 9.45247L68.5114 7.99525L67.4649 9.62087L66.5632 9.73944L68.1564 7.45486ZM70.7425 6.46203L70.3612 7.95577C70.1219 8.89184 70.4725 9.29886 71.4141 9.17523C71.7043 9.13711 71.9637 9.06037 72.1925 8.94439C72.4216 8.8278 72.6188 8.65829 72.7849 8.43522C72.951 8.21289 73.0775 7.92974 73.1649 7.58761L73.5462 6.09401C73.6336 5.75163 73.6486 5.48131 73.5896 5.28391C73.5298 5.08662 73.4098 4.95436 73.2273 4.88884C73.0458 4.82321 72.8095 4.80939 72.5194 4.84764C72.2332 4.88514 71.9729 4.96485 71.7387 5.08712C71.5044 5.20914 71.3013 5.38396 71.1295 5.61246C70.9583 5.84021 70.8289 6.12348 70.7425 6.46203ZM71.1763 7.94368L71.6063 6.26019C71.7258 5.79234 71.9756 5.53387 72.3568 5.4839C72.534 5.4607 72.6538 5.50561 72.7171 5.61837C72.7801 5.73139 72.7836 5.89955 72.7264 6.12324L72.2992 7.79637C72.2437 8.01314 72.1541 8.18623 72.0308 8.31319C71.9064 8.44052 71.7559 8.51529 71.5767 8.53873C71.1954 8.58894 71.0621 8.39093 71.1763 7.94368ZM73.3955 8.84249L74.4623 4.66516L75.2848 4.55721L74.8224 6.36815L76.2814 4.42655L77.2129 4.30416L75.6509 6.25932L76.1813 8.47667L75.2636 8.59721L74.9681 7.02464L74.5387 7.47904L74.2181 8.73453L73.3955 8.84249ZM76.6125 8.42016L77.6794 4.24297L78.5019 4.13501L78.0393 5.94582L79.4983 4.0041L80.43 3.88197L78.868 5.83701L79.3983 8.05435L78.4807 8.17488L78.185 6.60244L77.7556 7.05659L77.435 8.31208L76.6125 8.42016ZM79.8297 7.99772L80.8964 3.82064L83.2146 3.51627L83.0435 4.18733L81.5474 4.38374L81.3051 5.33251L82.669 5.15361L82.508 5.78408L81.1442 5.96322L80.8147 7.2535L82.3105 7.05709L82.1479 7.69335L79.8297 7.99772ZM85.4251 7.26325L86.4918 3.08605L85.6032 3.20264L83.6198 6.3985C83.6906 6.24304 83.7553 6.07981 83.8138 5.91078C83.8726 5.742 83.9238 5.57852 83.9681 5.42097C84.012 5.26329 84.0658 5.06515 84.1266 4.82715L84.5044 3.34687L83.7301 3.44853L82.6633 7.62573L83.5518 7.50914L85.5317 4.31921C85.374 4.66787 85.2056 5.1915 85.027 5.89043L84.6505 7.36492L85.4251 7.26325ZM84.512 2.24992C84.3643 2.82844 84.5725 3.08075 85.1368 3.0066C85.7173 2.93047 86.0813 2.60303 86.229 2.02464L85.8017 2.08065C85.7626 2.23401 85.6944 2.35651 85.5966 2.44855C85.4999 2.53973 85.383 2.59501 85.2481 2.61278C85.1129 2.63054 85.0185 2.60291 84.9623 2.53098C84.9061 2.45917 84.8983 2.34652 84.9372 2.19415L84.512 2.24992ZM86.0373 7.18281L87.104 3.00573L87.9267 2.89765L87.5129 4.5176L88.5995 4.37498L89.0133 2.75502L89.8357 2.64707L88.769 6.82427L87.9466 6.93223L88.4385 5.00544L87.3519 5.14819L86.8599 7.07486L86.0373 7.18281ZM89.1293 6.7769L91.2948 2.45547L92.4005 2.31025L92.2935 6.3616L91.4047 6.4782L91.4795 5.41703L90.5489 5.53929L90.0128 6.66092L89.1293 6.7769ZM90.808 4.90698L91.5345 4.81161L91.7021 2.90987L90.808 4.90698ZM95.2711 5.9705L96.3379 1.79342L94.7539 2.00143C94.5268 2.03116 94.3149 2.11124 94.1184 2.24128C93.9204 2.37268 93.7538 2.53616 93.6163 2.73406C93.4798 2.93183 93.382 3.14317 93.3246 3.36883C93.2798 3.54341 93.2648 3.70467 93.2797 3.85087C93.2946 3.99707 93.338 4.12291 93.4122 4.22581C93.4863 4.32982 93.5839 4.40187 93.7072 4.4416L92.4074 6.34656L93.3009 6.22935L94.4799 4.4305L94.8832 4.37744L94.4486 6.07858L95.2711 5.9705ZM94.9432 2.57466L95.3573 2.52036L95.0412 3.75859L94.627 3.81299C94.2148 3.86703 94.0618 3.68591 94.1685 3.2684C94.2725 2.86039 94.5309 2.62894 94.9432 2.57466ZM98.8174 1.46795L101.327 1.13853L100.26 5.31561L99.4378 5.42356L100.344 1.87694L99.4669 1.99218L99.056 3.60152C98.9353 4.07394 98.8072 4.46159 98.672 4.76362C98.537 5.06565 98.3835 5.29538 98.2115 5.45416C98.0396 5.61184 97.8396 5.70598 97.6115 5.73596C97.4123 5.76211 97.2506 5.76668 97.1263 5.7494L97.2753 5.16595C97.3307 5.17644 97.4174 5.17434 97.5335 5.15905C97.6044 5.14979 97.6657 5.12598 97.7152 5.08773C97.7655 5.04948 97.8175 4.9746 97.8728 4.86393C97.9282 4.75326 97.9895 4.58855 98.0582 4.36881C98.1268 4.15043 98.209 3.85063 98.3062 3.46976L98.8174 1.46795ZM103.659 4.8696L104.725 0.692277L103.837 0.809112L101.853 4.00497C101.901 3.90466 101.953 3.77376 102.011 3.61238C102.069 3.45001 102.126 3.27395 102.182 3.08383C102.239 2.89383 102.29 2.70617 102.338 2.5211L102.738 0.953214L101.964 1.055L100.897 5.23208L101.785 5.11549L103.765 1.92556C103.61 2.26448 103.45 2.7533 103.287 3.39166L102.884 4.97114L103.659 4.8696ZM105.38 0.606406L104.313 4.78348L105.136 4.67552L106.041 1.13385L107.535 0.93755L107.697 0.302275L105.38 0.606406ZM106.727 4.46665L108.893 0.145222L109.999 0L109.891 4.05112L109.003 4.16795L109.078 3.10678L108.147 3.22904L107.611 4.35067L106.727 4.46665ZM108.406 2.59673L109.132 2.50136L109.3 0.599491L108.406 2.59673Z" fill="white"/>
<defs>
<linearGradient id="paint0_linear_1645_1736" x1="46.3011" y1="54.9637" x2="53.4787" y2="29.2693" gradientUnits="userSpaceOnUse">
<stop stop-color="white"/>
<stop offset="0.529412" stop-color="#32B3C7"/>
<stop offset="1" stop-color="white" stop-opacity="0"/>
</linearGradient>
</defs>
</svg>
