<svg width="59" height="78" viewBox="0 0 59 78" fill="none" xmlns="http://www.w3.org/2000/svg">
<path fill-rule="evenodd" clip-rule="evenodd" d="M56.2478 19.4136L56.2607 25.151C56.2607 25.7156 50.6839 27.8818 50.8475 34.1879C50.7658 40.3628 56.3926 42.3625 56.3926 42.3625C56.5877 48.5921 57.2461 56.0368 52.9661 60.8546C48.1399 67.8851 34.5987 70.0651 29.6953 75.4532C24.7919 70.0651 11.0113 67.8851 6.18493 60.8546C1.90513 56.0368 2.56331 48.5921 2.75845 42.3625C2.75845 42.3625 8.3854 40.3628 8.30351 34.1879C8.46711 27.8818 2.89051 25.7156 2.89051 25.151C2.89517 19.5152 2.89929 25.0488 2.90341 19.4136C19.4218 12.2784 37.0425 11.2492 56.2478 19.4136Z" fill="#E31E24"/>
<path d="M55.9954 25.1516L55.9825 19.4142L56.5154 19.4127L56.5283 25.1501V25.1509L55.9954 25.1516ZM56.5283 25.1501C56.5287 25.3062 56.4097 25.4332 56.2626 25.4335C56.1155 25.4339 55.9958 25.3077 55.9954 25.1516L56.5283 25.1501ZM51.115 34.1917L50.5824 34.1839V34.1956L50.5835 33.5996L50.6173 33.0273L50.6815 32.4782L50.774 31.9519L50.8928 31.4487L51.0359 30.9676L51.2008 30.5089L51.3855 30.0721L51.5877 29.6569L51.8052 29.2625L52.0358 28.8888L52.2774 28.5352L52.5277 28.2015L52.7845 27.8866L53.0457 27.5905L53.3092 27.3126L53.5728 27.0524L53.8344 26.8092L54.0917 26.5826L54.3431 26.3722L54.5857 26.1772L54.8178 25.9976L55.0373 25.8325L55.2414 25.6821L55.4283 25.5452L55.5955 25.4227L55.7399 25.314L55.8587 25.2198L55.9472 25.1426L56.0002 25.0885L56.0105 25.0763L55.9954 25.1509H56.5283L56.4814 25.3407L56.3984 25.4639L56.3009 25.5654L56.1866 25.6653L56.0531 25.7712L55.9011 25.8855L55.7311 26.0105L55.5446 26.1466L55.3433 26.295L55.1292 26.4562L54.9036 26.6308L54.6689 26.8191L54.4271 27.0217L54.1802 27.2391L53.93 27.4717L53.6787 27.7199L53.4281 27.984L53.1805 28.2646L52.9377 28.5621L52.7017 28.8771L52.4745 29.2094L52.2582 29.5598L52.0546 29.9291L51.8654 30.3175L51.6932 30.7253L51.5391 31.1533L51.4056 31.6021L51.2947 32.0721L51.208 32.5645L51.1478 33.0792L51.116 33.6177L51.115 34.18V34.1917ZM51.115 34.18C51.1189 34.3359 51.003 34.466 50.856 34.4703C50.7091 34.4745 50.5864 34.3515 50.5824 34.1956L51.115 34.18ZM56.66 42.353L56.1275 42.3717L56.3092 42.6304L56.2878 42.6224L56.2377 42.6032L56.1578 42.5711L56.051 42.5259L55.9189 42.467L55.7642 42.3942L55.5888 42.3071L55.3949 42.2052L55.184 42.088L54.9588 41.9553L54.7208 41.8064L54.4726 41.6411L54.216 41.4587L53.9532 41.2588L53.686 41.0412L53.4169 40.805L53.1477 40.5499L52.8807 40.2757L52.618 39.9818L52.3618 39.6676L52.114 39.3328L51.8769 38.9768L51.6529 38.5992L51.4441 38.2L51.2526 37.7786L51.0806 37.3344L50.9304 36.8675L50.8044 36.3777L50.7044 35.8645L50.6326 35.328L50.5914 34.7676L50.5824 34.1839L51.115 34.1917L51.1236 34.7414L51.1623 35.2665L51.2295 35.768L51.3226 36.2461L51.44 36.702L51.5794 37.136L51.7393 37.5484L51.9172 37.9402L52.1116 38.3118L52.3202 38.6632L52.5411 38.9952L52.7728 39.3081L53.013 39.6024L53.2595 39.8783L53.5107 40.1362L53.7641 40.3765L54.0182 40.5992L54.2707 40.8052L54.5196 40.9941L54.7629 41.167L54.9982 41.3238L55.2236 41.4649L55.4374 41.5909L55.6368 41.7018L55.8203 41.7979L55.9857 41.8801L56.1307 41.9484L56.2534 42.003L56.3516 42.0447L56.4233 42.0735L56.4674 42.0903L56.4783 42.0944L56.66 42.353ZM56.4783 42.0944C56.6177 42.1439 56.693 42.3042 56.6464 42.4522C56.5998 42.6001 56.4486 42.6799 56.3092 42.6304L56.4783 42.0944ZM53.1826 61.0208L52.7519 60.6881L52.7734 60.6607L53.1509 60.2124L53.5014 59.75L53.8254 59.2737L54.1243 58.7844L54.399 58.2824L54.6502 57.7683L54.8796 57.2428L55.0873 56.7066L55.2747 56.1602L55.4426 55.6041L55.592 55.0391L55.7239 54.4662L55.8391 53.8856L55.9384 53.2982L56.0232 52.7048L56.094 52.106L56.1518 51.5024L56.1977 50.895L56.2326 50.284L56.2576 49.6708L56.2735 49.0556L56.281 48.4392L56.2817 47.8226L56.2762 47.2064L56.2654 46.591L56.2504 45.9774L56.2323 45.3661L56.2119 44.7584L56.1902 44.1544L56.1681 43.5545L56.147 42.9601L56.1275 42.3717L56.66 42.353L56.6796 42.9395L56.7007 43.533L56.7227 44.1324L56.7444 44.7375L56.7648 45.3474L56.7829 45.9612L56.798 46.5786L56.8088 47.1982L56.8147 47.8201L56.8139 48.4434L56.8061 49.0669L56.7901 49.6906L56.7648 50.3134L56.7292 50.9346L56.6826 51.5536L56.6233 52.1697L56.5511 52.7822L56.4642 53.3905L56.362 53.9938L56.2436 54.5913L56.1074 55.1826L55.9529 55.7667L55.7789 56.343L55.584 56.9106L55.3677 57.469L55.1287 58.0172L54.866 58.5543L54.5784 59.08L54.2651 59.593L53.925 60.0926L53.5573 60.578L53.1611 61.0482L53.1826 61.0208ZM53.1611 61.0482C53.0603 61.1617 52.8915 61.167 52.7845 61.0601C52.6775 60.9531 52.6725 60.7742 52.7734 60.6607L53.1611 61.0482ZM29.5047 75.6493L29.8882 75.2568H29.5047L30.0024 74.7474L30.5464 74.2579L31.1332 73.7863L31.7604 73.3309L32.4239 72.8896L33.1212 72.461L33.8487 72.0433L34.6038 71.6345L35.3831 71.2336L36.1837 70.8387L37.0023 70.4482L37.8357 70.0607L38.6807 69.6746L39.5348 69.2884L40.394 68.9009L41.2555 68.5102L42.1162 68.1148L42.9729 67.7137L43.8223 67.305L44.6612 66.8876L45.4866 66.4598L46.2949 66.0205L47.0833 65.568L47.8483 65.1009L48.5871 64.6184L49.296 64.1184L49.9721 63.6001L50.6121 63.0622L51.2133 62.5032L51.7722 61.9222L52.286 61.3176L52.7519 60.6881L53.1826 61.0208L52.6935 61.6818L52.1568 62.3136L51.5753 62.9179L50.9533 63.4964L50.2936 64.0509L49.5995 64.583L48.8742 65.0942L48.121 65.5867L47.3428 66.0615L46.5433 66.5204L45.7249 66.9654L44.8913 67.3974L44.0455 67.8183L43.1904 68.2295L42.3298 68.6327L41.4663 69.0292L40.6029 69.4206L39.7433 69.8085L38.8907 70.194L38.0478 70.579L37.2184 70.9648L36.4052 71.3528L35.6117 71.7441L34.841 72.1405L34.0967 72.5435L33.3813 72.9542L32.6988 73.3737L32.0521 73.8036L31.4446 74.2448L30.8793 74.6991L30.3597 75.1667L29.8882 75.6493H29.5047ZM29.8882 75.6493C29.7861 75.7615 29.6171 75.7647 29.5114 75.6564C29.4056 75.548 29.4026 75.3691 29.5047 75.2568L29.8882 75.6493ZM5.99222 61.0482L6.37999 60.6607L6.40149 60.6881L6.86774 61.3174L7.38328 61.9217L7.9454 62.5027L8.55052 63.0615L9.19615 63.5994L9.87851 64.1177L10.5946 64.6176L11.3412 65.1004L12.1152 65.5673L12.9129 66.0198L13.7313 66.4593L14.5669 66.8871L15.4164 67.3045L16.2769 67.7131L17.1445 68.1143L18.0165 68.5097L18.8893 68.9004L19.7598 69.2879L20.6246 69.6741L21.4804 70.0602L22.3242 70.4477L23.1526 70.8382L23.9625 71.2331L24.7506 71.634L25.5138 72.0427L26.2488 72.4604L26.9523 72.8891L27.6216 73.3304L28.2531 73.7857L28.8435 74.2575L29.3897 74.7472L29.8882 75.2568L29.5047 75.6493L29.0331 75.1669L28.5113 74.6995L27.9431 74.2453L27.3313 73.8041L26.6793 73.3742L25.9904 72.9547L25.268 72.5441L24.5155 72.141L23.736 71.7447L22.9333 71.3533L22.1102 70.9653L21.2704 70.5796L20.4171 70.1945L19.5534 69.809L18.6825 69.4211L17.8082 69.0298L16.9334 68.6333L16.0615 68.23L15.1956 67.8189L14.3393 67.398L13.4951 66.9659L12.6671 66.5212L11.8579 66.0622L11.071 65.5873L10.3096 65.0949L9.57711 64.5837L8.87648 64.0516L8.21113 63.4971L7.5845 62.9185L6.9998 62.3141L6.46062 61.6819L5.97072 61.0208L5.99222 61.0482ZM5.97072 61.0208C5.88417 60.8948 5.9105 60.7178 6.0293 60.6261C6.14811 60.5343 6.31494 60.5621 6.40149 60.6881L5.97072 61.0208ZM2.67504 42.0944L2.84419 42.6304L3.0259 42.3717L3.00635 42.9601L2.98521 43.5545L2.96318 44.1544L2.9415 44.7584L2.92106 45.3661L2.90297 45.9774L2.88792 46.591L2.87716 47.2062L2.87178 47.8226L2.87233 48.4394L2.87985 49.0556L2.89579 49.6708L2.92071 50.284L2.95566 50.895L3.0017 51.5024L3.05939 52.106L3.13037 52.7048L3.21494 53.2982L3.31421 53.8856L3.4296 54.4662L3.56132 55.0393L3.71076 55.6041L3.87884 56.1602L4.0661 56.7066L4.27395 57.2428L4.50314 57.7683L4.75455 58.2824L5.02907 58.7844L5.32796 59.2737L5.65194 59.75L6.00243 60.2124L6.37999 60.6607L5.99222 61.0482L5.59603 60.578L5.22832 60.0926L4.88822 59.593L4.57499 59.08L4.28757 58.5543L4.0247 58.0172L3.78583 57.469L3.56939 56.9106L3.3746 56.343L3.20042 55.7667L3.04595 55.1825L2.90995 54.5913L2.79132 53.9938L2.6892 53.3905L2.60246 52.7822L2.53008 52.1697L2.47093 51.5536L2.42418 50.9346L2.38851 50.3134L2.36324 49.6906L2.3473 49.0669L2.33941 48.4433L2.33887 47.8201L2.34461 47.1984L2.35537 46.5786L2.37042 45.9612L2.38851 45.3474L2.40893 44.7375L2.43061 44.1324L2.45266 43.533L2.4738 42.9395L2.49333 42.353L2.67504 42.0944ZM2.49333 42.353C2.49817 42.1971 2.62146 42.0748 2.7684 42.0799C2.91534 42.085 3.03074 42.2158 3.0259 42.3717L2.49333 42.353ZM8.03839 34.18L8.57094 34.1956V34.1839L8.56198 34.7676L8.52077 35.328L8.4491 35.8645L8.34911 36.3777L8.22278 36.8675L8.0728 37.3344L7.90096 37.7784L7.70939 38.2L7.50065 38.5994L7.27648 38.9768L7.03958 39.3326L6.79176 39.6676L6.53534 39.9818L6.27265 40.2757L6.00584 40.5499L5.73651 40.805L5.46737 41.0412L5.2002 41.2588L4.93733 41.4585L4.68089 41.6411L4.43235 41.8064L4.19458 41.9553L3.96933 42.088L3.75843 42.2052L3.56454 42.3071L3.38911 42.3942L3.23447 42.467L3.10241 42.5259L2.99561 42.5711L2.91569 42.6032L2.86552 42.6224L2.84419 42.6304L2.67504 42.0944L2.68596 42.0903L2.73004 42.0735L2.80172 42.0447L2.89992 42.003L3.02266 41.9484L3.16762 41.8801L3.33303 41.7979L3.51652 41.7018L3.71596 41.5909L3.92973 41.4649L4.15533 41.3238L4.3906 41.167L4.63377 40.9943L4.88266 40.8052L5.13515 40.5992L5.38924 40.3765L5.6428 40.1362L5.89384 39.8783L6.14041 39.6024L6.3807 39.3081L6.61204 38.9953L6.83316 38.6632L7.04191 38.3116L7.23634 37.9402L7.41427 37.5486L7.57393 37.136L7.71352 36.702L7.83089 36.2461L7.92407 35.768L7.99109 35.2665L8.0298 34.7414L8.03839 34.1917V34.18ZM8.03839 34.1917C8.03642 34.0358 8.15398 33.9074 8.30092 33.9053C8.44785 33.9032 8.56897 34.028 8.57094 34.1839L8.03839 34.1917ZM2.62522 25.1507L3.15814 25.151V25.1509L3.14309 25.0763L3.15329 25.0885L3.20633 25.1426L3.29504 25.22L3.41349 25.314L3.55808 25.4227L3.72509 25.5454L3.91198 25.6819L4.11627 25.8325L4.33578 25.9976L4.56783 26.1772L4.81063 26.3722L5.06167 26.5826L5.31917 26.8092L5.5808 27.0524L5.8442 27.3126L6.10779 27.5905L6.36888 27.8866L6.62566 28.2015L6.87598 28.5352L7.11754 28.8888L7.34816 29.2625L7.56587 29.6569L7.76782 30.0721L7.95274 30.5089L8.11742 30.9676L8.2606 31.4487L8.3794 31.9519L8.47186 32.4782L8.53602 33.0273L8.56988 33.5996L8.57094 34.1956L8.03839 34.18L8.03733 33.6177L8.0056 33.0792L7.9454 32.5645L7.85866 32.0721L7.74775 31.6021L7.61425 31.1533L7.46033 30.7253L7.28795 30.3175L7.0989 29.9291L6.89516 29.5598L6.67887 29.2094L6.45166 28.8771L6.21567 28.5621L5.97287 28.2646L5.7254 27.984L5.47471 27.7199L5.22349 27.4717L4.97334 27.2391L4.72623 27.0217L4.4845 26.8191L4.24994 26.6308L4.02435 26.4562L3.81021 26.295L3.60879 26.1468L3.42225 26.0103L3.25239 25.8855L3.10025 25.7712L2.96675 25.6651L2.85262 25.5654L2.75514 25.4639L2.67217 25.3407L2.62522 25.1509V25.1507ZM2.62522 25.1509C2.62522 24.9948 2.74457 24.8682 2.89168 24.8682C3.0388 24.8682 3.15814 24.9948 3.15814 25.1509H2.62522ZM2.80405 19.1518L3.00511 19.6751L3.17104 19.4136L3.17032 20.3451L3.16943 21.047L3.16871 21.5531L3.16799 21.8956L3.16762 22.0159L3.1671 22.1079L3.16673 22.1749L3.16638 22.2221L3.16584 22.2537L3.16549 22.2768L3.16458 22.2943L3.16405 22.3016V22.3018L3.16386 22.3069L3.16334 22.3203L3.16314 22.3476L3.16279 22.393L3.16243 22.4596L3.1619 22.5505L3.16153 22.6702L3.16064 23.0121L3.15992 23.5178L3.15903 24.22L3.15814 25.151L2.62522 25.1507L2.62611 24.2193L2.62701 23.5171L2.62772 23.011L2.62863 22.6684L2.62898 22.548L2.62953 22.4561L2.62988 22.3891L2.63024 22.3419L2.63077 22.309L2.63131 22.2871L2.63185 22.2731L2.63257 22.2624L2.63275 22.2586L2.63292 22.2571L2.63329 22.2449L2.63346 22.2164L2.63381 22.171L2.63418 22.1043L2.63472 22.0135L2.63507 21.8941L2.63579 21.5521L2.63651 21.0463L2.6374 20.3444L2.63812 19.4133L2.80405 19.1518ZM2.63812 19.4133C2.63812 19.2572 2.75764 19.1308 2.90475 19.1308C3.05187 19.1308 3.17104 19.2575 3.17104 19.4136L2.63812 19.4133ZM56.5154 19.4127L55.9825 19.4142L56.1499 19.6758L54.3596 18.9395L52.5788 18.2565L50.8071 17.6259L49.0448 17.0477L47.2912 16.5207L45.5466 16.0448L43.8112 15.6192L42.0843 15.2433L40.366 14.9165L38.6564 14.6384L36.9553 14.4083L35.2623 14.2256L33.5779 14.0901L31.9014 14.0006L30.2332 13.9569L28.5728 13.9585L26.9203 14.0048L25.2755 14.0952L23.6382 14.229L22.0086 14.4059L20.3864 14.6251L18.7716 14.8861L17.1639 15.1885L15.5635 15.5315L13.97 15.9147L12.3836 16.3376L10.8038 16.7993L9.23091 17.2997L7.6646 17.838L6.10494 18.4138L4.5517 19.0263L3.00511 19.6751L2.80405 19.1518L4.36105 18.4988L5.92466 17.8821L7.49508 17.3024L9.07215 16.7602L10.6566 16.2563L12.2478 15.791L13.846 15.3649L15.4517 14.9789L17.0646 14.6331L18.6848 14.3285L20.3126 14.0655L21.9477 13.8445L23.5905 13.6661L25.2411 13.5313L26.8995 13.4402L28.5656 13.3936L30.2396 13.392L31.9215 13.436L33.6116 13.5261L35.3096 13.6628L37.0159 13.8468L38.7306 14.0787L40.4535 14.3589L42.185 14.6883L43.9248 15.0669L45.6731 15.4958L47.4303 15.9752L49.196 16.5057L50.9705 17.0882L52.754 17.723L54.5466 18.4103L56.3481 19.1511L56.5154 19.4127ZM56.3481 19.1511C56.4846 19.2091 56.5509 19.3739 56.4962 19.5186C56.4416 19.6634 56.2864 19.7338 56.1499 19.6758L56.3481 19.1511Z" fill="#1B1B1B"/>
<path fill-rule="evenodd" clip-rule="evenodd" d="M2.89746 19.3389C7.52542 17.3401 12.2498 15.8907 17.0611 14.9187L17.0544 20.6561L21.7745 20.6612C21.7983 18.6083 21.7895 17.0332 21.7953 14.1815C26.486 13.5764 30.9836 13.4933 35.8711 13.9987L35.8741 20.4941L40.7868 20.4952C40.8262 17.1149 40.8003 16.5871 40.8417 14.7113C45.8645 15.6319 51.0071 17.1497 56.2583 19.3817L56.2501 8.24399C37.0448 0.0794578 19.424 1.10882 2.9057 8.24399C2.90302 11.9418 2.89997 15.6406 2.89746 19.3389Z" fill="#107BFF"/>
<path d="M17.3264 14.919L16.7935 14.9183L17.1098 15.1962L16.6605 15.2885L16.2117 15.3836L15.7635 15.4814L15.3159 15.5819L14.8686 15.6855L14.4219 15.792L13.9759 15.9012L13.5301 16.0131L13.0851 16.1282L12.6406 16.2461L12.1965 16.3668L11.7528 16.4906L11.3099 16.6172L10.8675 16.7467L10.4256 16.8795L9.98423 17.0149L9.54343 17.1535L9.10315 17.2951L8.66341 17.4397L8.2244 17.5873L7.78575 17.7381L7.34745 17.8919L6.90987 18.0487L6.47281 18.2085L6.03649 18.3716L5.60051 18.5378L5.16526 18.707L4.73035 18.8795L4.29618 19.055L3.86254 19.2336L3.42943 19.4155L2.99687 19.6007L2.79581 19.0771L3.23161 18.8908L3.66795 18.7075L4.10481 18.5275L4.5422 18.3506L4.98033 18.177L5.41882 18.0064L5.85801 17.8392L6.29757 17.675L6.73783 17.5137L7.17865 17.3559L7.6198 17.201L8.06169 17.0492L8.50395 16.9005L8.9469 16.7549L9.3904 16.6122L9.83444 16.4725L10.279 16.3361L10.7241 16.2026L11.1698 16.072L11.616 15.9443L12.0625 15.8199L12.5098 15.6981L12.9576 15.5795L13.4057 15.4637L13.8544 15.3507L14.3036 15.2408L14.7536 15.1337L15.2037 15.0294L15.6546 14.9281L16.1059 14.8296L16.5577 14.7338L17.0101 14.6412L17.3264 14.919ZM17.0101 14.6412C17.1545 14.612 17.2942 14.7126 17.3216 14.8658C17.349 15.0191 17.2542 15.1671 17.1098 15.1962L17.0101 14.6412ZM16.7868 20.6558L16.7935 14.9183L17.3264 14.919L17.3198 20.6565L17.053 20.9388L16.7868 20.6558ZM17.3198 20.6565C17.3196 20.8126 17.2001 20.9389 17.053 20.9388C16.9058 20.9386 16.7867 20.8118 16.7868 20.6558L17.3198 20.6565ZM21.773 20.9439L17.053 20.9388L17.0537 20.3734L21.7737 20.3786L22.0398 20.6648L21.773 20.9439ZM21.7737 20.3786C21.9209 20.3787 22.04 20.5055 22.0398 20.6616C22.0397 20.8177 21.9201 20.9441 21.773 20.9439L21.7737 20.3786ZM21.7621 13.901L21.8262 14.4621L22.0606 14.1821L22.0597 14.7023L22.059 15.1948L22.0586 15.6627L22.0583 16.1086L22.0581 16.5348L22.0578 16.944L22.0574 17.3386L22.057 17.7213L22.0563 18.095L22.0554 18.4616L22.0547 18.6435L22.054 18.8244L22.0533 19.0048L22.0524 19.1853L22.0513 19.3662L22.0501 19.5474L22.0488 19.7294L22.0474 19.9128L22.0457 20.0978L22.044 20.2845L22.042 20.4733L22.0398 20.6648L21.5069 20.6577L21.5091 20.4669L21.511 20.2785L21.5128 20.0922L21.5144 19.9078L21.5159 19.7252L21.5171 19.5431L21.5184 19.3623L21.5195 19.1821L21.5204 19.002L21.5211 18.8219L21.5218 18.641L21.5225 18.4598L21.5234 18.0936L21.5241 17.7206L21.5245 17.3379L21.5248 16.9433L21.5252 16.5344L21.5254 16.1082L21.5257 15.6624L21.5261 15.1941L21.5268 14.7013L21.5277 14.181L21.7621 13.901ZM21.5277 14.181C21.5279 14.0249 21.6476 13.8987 21.7947 13.8989C21.9418 13.8991 22.0608 14.026 22.0606 14.1821L21.5277 14.181ZM36.1364 13.9986L35.6035 13.9989L35.8442 14.28L35.3888 14.2346L34.9357 14.1925L34.4846 14.1538L34.0354 14.1186L33.5883 14.0866L33.143 14.0581L32.6992 14.0332L32.2569 14.0113L31.8163 13.9929L31.3767 13.9779L30.9384 13.9659L30.5014 13.9574L30.0653 13.9523L29.63 13.9505L29.1955 13.9516L28.7618 13.9562L28.3285 13.9641L27.896 13.9751L27.4638 13.9896L27.0316 14.0069L26.5995 14.0276L26.1677 14.0514L25.7356 14.0783L25.3036 14.1085L24.871 14.1419L24.4379 14.1782L24.0048 14.2178L23.5707 14.2606L23.1359 14.3062L22.7003 14.3551L22.2638 14.4071L21.8262 14.4621L21.7621 13.901L22.2029 13.8457L22.6426 13.7933L23.0818 13.744L23.5198 13.6981L23.9572 13.6549L24.3942 13.615L24.8306 13.5784L25.2667 13.5446L25.7027 13.5144L26.1383 13.4872L26.5737 13.4629L27.0093 13.4423L27.4451 13.4246L27.8813 13.4101L28.3178 13.3991L28.7547 13.3912L29.1922 13.3866L29.6303 13.3852L30.0692 13.3873L30.5093 13.3924L30.9503 13.4009L31.3922 13.4129L31.8353 13.428L32.2799 13.4467L32.7257 13.4686L33.1731 13.4939L33.6224 13.5227L34.073 13.5547L34.5258 13.5902L34.9805 13.6293L35.4368 13.6717L35.8958 13.7175L36.1364 13.9986ZM35.8958 13.7175C36.0422 13.7325 36.1493 13.8709 36.1352 14.0262C36.121 14.1814 35.9906 14.295 35.8442 14.28L35.8958 13.7175ZM35.6066 20.4944L35.6035 13.9989L36.1364 13.9986L36.1395 20.494L35.873 20.7768L35.6066 20.4944ZM36.1395 20.494C36.1395 20.6501 36.0203 20.7768 35.8732 20.7768C35.7261 20.7768 35.6066 20.6504 35.6066 20.4944L36.1395 20.494ZM40.7857 20.7779L35.873 20.7768V20.2115L40.7857 20.2126L41.0522 20.4988L40.7857 20.7779ZM40.7857 20.2126C40.9328 20.2126 41.0522 20.3391 41.0522 20.4952C41.0522 20.6513 40.9328 20.7779 40.7857 20.7779V20.2126ZM40.8859 14.4329L40.7952 14.9898L41.1068 14.7179L41.103 14.8895L41.0998 15.0541L41.0968 15.2121L41.0943 15.3647L41.0918 15.5125L41.0898 15.6559L41.0882 15.7966L41.0866 15.9344L41.0851 16.0706L41.0839 16.2058L41.0828 16.3407L41.0819 16.4762L41.0803 16.7525L41.0789 17.0405L41.0774 17.3462L41.076 17.6757L41.074 18.0354L41.0715 18.4312L41.0701 18.6446L41.0683 18.8694L41.0663 19.1061L41.0642 19.3557L41.0617 19.6193L41.0588 19.897L41.0557 20.1899L41.0522 20.4988L40.5192 20.4917L40.5228 20.1832L40.5259 19.8907L40.5287 19.6133L40.5313 19.3504L40.5334 19.1012L40.5354 18.8645L40.5372 18.6403L40.5386 18.4273L40.5411 18.0319L40.5431 17.6728L40.5445 17.3433L40.5459 17.0377L40.5474 16.7494L40.549 16.4727L40.5499 16.3364L40.551 16.2005L40.5522 16.0645L40.5537 15.9277L40.5553 15.7891L40.5572 15.6481L40.5592 15.5033L40.5617 15.3548L40.5642 15.2015L40.5673 15.0424L40.5705 14.8771L40.5742 14.7048L40.8859 14.4329ZM40.5742 14.7048C40.5777 14.5489 40.6999 14.4253 40.8468 14.4289C40.9937 14.4324 41.1102 14.562 41.1068 14.7179L40.5742 14.7048ZM55.9907 19.3819L56.5237 19.3816L56.1581 19.6441L55.6677 19.4376L55.1779 19.2352L54.6889 19.037L54.2004 18.8429L53.7127 18.6529L53.2255 18.4671L52.739 18.285L52.2534 18.1074L51.7681 17.9334L51.2836 17.7635L50.7998 17.5977L50.3167 17.4356L49.8341 17.2776L49.3521 17.1234L48.8712 16.9732L48.3906 16.8266L47.9109 16.6841L47.4315 16.5452L46.9529 16.4101L46.4752 16.279L45.998 16.1513L45.5217 16.0276L45.046 15.9076L44.5709 15.7912L44.0966 15.6785L43.6226 15.5692L43.1498 15.4637L42.6774 15.3619L42.2058 15.2634L41.7351 15.1686L41.2647 15.0774L40.7952 14.9898L40.8859 14.4329L41.3589 14.5213L41.8325 14.6132L42.3069 14.7087L42.7821 14.8078L43.2576 14.9104L43.7341 15.0166L44.2113 15.1266L44.6892 15.2401L45.1674 15.3574L45.6468 15.4782L46.1267 15.603L46.6071 15.7313L47.0884 15.8636L47.5702 15.9997L48.0528 16.1393L48.5361 16.2829L49.0199 16.4305L49.5044 16.5818L49.9897 16.737L50.4754 16.8961L50.9621 17.0593L51.4492 17.2265L51.9369 17.3974L52.4254 17.5724L52.9146 17.7515L53.4043 17.9346L53.8948 18.1219L54.3857 18.3129L54.8774 18.5085L55.3697 18.708L55.8626 18.9115L56.3563 19.1194L55.9907 19.3819ZM56.3563 19.1194C56.4928 19.1774 56.5591 19.3421 56.5045 19.4869C56.4498 19.6317 56.2947 19.702 56.1581 19.6441L56.3563 19.1194ZM56.5154 8.24385L56.5237 19.3816L55.9907 19.3819L55.9825 8.2442L56.3481 7.98169L56.5154 8.24385ZM55.9825 8.2442C55.9825 8.08811 56.1017 7.96136 56.2488 7.96136C56.3959 7.96136 56.5154 8.08776 56.5154 8.24385L55.9825 8.2442ZM3.17104 8.2442L2.63812 8.24385L2.80405 7.9824L4.36105 7.32939L5.92467 6.71262L7.49509 6.13297L9.07216 5.5908L10.6566 5.08682L12.2478 4.62155L13.846 4.19553L15.4517 3.80944L17.0646 3.46367L18.6848 3.15909L20.3126 2.89588L21.9477 2.67491L23.5905 2.49672L25.2411 2.36184L26.8995 2.27079L28.5656 2.22413L30.2396 2.22253L31.9215 2.26656L33.6116 2.35653L35.3096 2.49336L37.0159 2.67738L38.7306 2.90931L40.4535 3.1895L42.185 3.51865L43.9248 3.89748L45.6731 4.32634L47.4303 4.80575L49.196 5.33625L50.9705 5.91873L52.754 6.55335L54.5466 7.24083L56.3481 7.98169L56.1499 8.50636L54.3596 7.77008L52.5788 7.08686L50.8071 6.45648L49.0448 5.87825L47.2912 5.35128L45.5466 4.8754L43.8112 4.44973L42.0843 4.07373L40.366 3.74705L38.6564 3.46898L36.9553 3.23882L35.2623 3.05621L33.5779 2.92044L31.9014 2.83117L30.2332 2.78751L28.5728 2.7891L26.9203 2.83542L25.2755 2.92575L23.6382 3.05957L22.0086 3.23634L20.3864 3.45554L18.7716 3.71664L17.1639 4.0191L15.5635 4.36205L13.97 4.74529L12.3836 5.16814L10.8039 5.62987L9.23091 6.13032L7.6646 6.66861L6.10494 7.24437L4.5517 7.85688L3.00512 8.50565L3.17104 8.2442ZM3.00512 8.50565C2.86893 8.56452 2.71322 8.49505 2.65785 8.35063C2.60248 8.2062 2.66787 8.04127 2.80405 7.9824L3.00512 8.50565ZM2.79581 19.0771L2.99687 19.6007L2.62988 19.3388L2.63043 18.6453L2.63078 17.952L2.63132 17.2585L2.63186 16.565L2.6324 15.8715L2.63293 15.178L2.63347 14.4845L2.63401 13.791L2.63454 13.0977L2.63508 12.4042L2.63562 11.7107L2.63597 11.0173L2.63651 10.324L2.63706 9.63064L2.6376 8.93716L2.63812 8.24385L3.17104 8.2442L3.1705 8.93751L3.16998 9.631L3.16943 10.3243L3.16889 11.0176L3.16854 11.7111L3.168 12.4046L3.16746 13.0981L3.16691 13.7914L3.16639 14.4849L3.16585 15.1784L3.1653 15.8719L3.16478 16.5653L3.16424 17.2588L3.16369 17.9523L3.16334 18.6456L3.1628 19.3391L2.79581 19.0771ZM3.1628 19.3391C3.1628 19.4952 3.04328 19.6216 2.89617 19.6216C2.74905 19.6216 2.62988 19.4949 2.62988 19.3388L3.1628 19.3391Z" fill="#1B1B1B"/>
<path fill-rule="evenodd" clip-rule="evenodd" d="M57.8593 6.39259L57.7781 26.8568C57.7781 26.8568 52.5119 29.3507 52.5119 33.8981C52.5119 39.3332 58.5796 41.0695 58.5796 41.0695C58.7862 47.6738 59.3512 57.1482 54.8138 62.2561C49.6966 69.7098 34.9067 71.9878 29.7084 77.7006C24.5099 71.9878 9.30342 69.7931 4.18627 62.3392C-0.351197 57.2315 0.213968 47.7569 0.420395 41.1527C0.420395 41.1527 6.48816 39.4165 6.48816 33.9813C6.48816 29.434 1.2221 26.94 1.2221 26.94C1.19468 20.1183 1.16762 13.2971 1.14075 6.47585C19.3463 -1.75603 38.2639 -1.75851 57.8955 6.46719L57.8593 6.39259ZM56.2489 8.24431L56.2618 25.1511C56.2618 25.7157 50.685 27.8819 50.8486 34.188C50.7669 40.3629 56.3937 42.3626 56.3937 42.3626C56.5888 48.5921 57.2472 56.0368 52.9672 60.8547C48.141 67.8852 34.5998 70.0652 29.6964 75.4533C24.793 70.0652 11.0124 67.8852 6.18603 60.8547C1.90624 56.0368 2.56441 48.5921 2.75955 42.3626C2.75955 42.3626 8.3865 40.3629 8.30461 34.188C8.46822 27.8819 2.89162 25.7157 2.89162 25.1511C2.89628 19.5153 2.90039 13.8795 2.90451 8.24431C19.4229 1.10914 37.0436 0.0797796 56.2489 8.24431Z" fill="#FFED00"/>
<path d="M57.4955 26.8553L57.5767 6.39112L58.1419 6.3936L58.0607 26.8578L57.8933 27.1302L57.4955 26.8553ZM58.0607 26.8578C58.0601 27.0232 57.9327 27.1567 57.7768 27.1562C57.621 27.1556 57.495 27.0208 57.4955 26.8553L58.0607 26.8578ZM52.7944 33.8978H52.2293L52.2452 33.4548L52.2916 33.0244L52.3665 32.6068L52.4678 32.2029L52.593 31.8126L52.7403 31.4361L52.9075 31.0737L53.0923 30.7253L53.2926 30.391L53.5065 30.0708L53.7321 29.7647L53.9669 29.4726L54.2091 29.1944L54.4571 28.9305L54.7084 28.6803L54.9614 28.444L55.2141 28.2218L55.4646 28.0135L55.711 27.8193L55.9511 27.6389L56.1833 27.4726L56.4057 27.3204L56.6162 27.1823L56.813 27.0584L56.9941 26.9485L57.1577 26.8532L57.3016 26.772L57.4242 26.705L57.5238 26.6527L57.5975 26.6152L57.6439 26.5921L57.6629 26.5829L57.8933 27.1302L57.8822 27.1355L57.8405 27.1562L57.7722 27.1912L57.6794 27.24L57.5636 27.3031L57.4265 27.3803L57.2704 27.4714L57.0975 27.576L56.9094 27.6946L56.7078 27.827L56.4947 27.9729L56.2725 28.1318L56.0428 28.3043L55.8075 28.4898L55.5688 28.6885L55.3284 28.8997L55.0886 29.1237L54.8507 29.3604L54.617 29.6095L54.3894 29.8704L54.1697 30.1437L53.9599 30.4286L53.7617 30.7251L53.5772 31.0332L53.4078 31.3523L53.2553 31.6829L53.1217 32.024L53.0086 32.3765L52.9174 32.7398L52.8503 33.1142L52.8086 33.5001L52.7944 33.8978ZM52.7944 33.8978C52.7944 34.0633 52.6678 34.1975 52.5119 34.1975C52.356 34.1975 52.2293 34.0633 52.2293 33.8978H52.7944ZM58.862 41.0593L58.2972 41.0792L58.506 41.3586L58.4839 41.3521L58.4302 41.3355L58.3447 41.3077L58.23 41.2685L58.0883 41.2176L57.922 41.1545L57.7331 41.0788L57.524 40.9902L57.2968 40.8882L57.0536 40.7728L56.7968 40.6429L56.5286 40.4988L56.251 40.3395L55.9665 40.1649L55.6769 39.9747L55.3848 39.768L55.0922 39.5447L54.8016 39.3043L54.5149 39.046L54.2344 38.7699L53.9628 38.4751L53.7022 38.1613L53.4548 37.8281L53.2231 37.4747L53.0095 37.101L52.8167 36.7066L52.647 36.2914L52.5027 35.8551L52.3864 35.3974L52.3006 34.9185L52.2476 34.4186L52.2293 33.8978H52.7944L52.8109 34.3744L52.8593 34.8294L52.9373 35.2638L53.0424 35.678L53.1731 36.0729L53.327 36.4492L53.5022 36.8075L53.6968 37.148L53.9088 37.4713L54.1362 37.7777L54.3771 38.0674L54.629 38.3407L54.8901 38.5981L55.1581 38.8394L55.4312 39.065L55.7067 39.2755L55.9826 39.4705L56.2568 39.6508L56.527 39.8166L56.7909 39.9678L57.0463 40.1051L57.2909 40.2287L57.5226 40.3388L57.739 40.4359L57.9381 40.5202L58.1173 40.5919L58.2746 40.6515L58.4078 40.6996L58.5146 40.736L58.5929 40.7613L58.6405 40.7761L58.6533 40.7799L58.862 41.0593ZM58.6533 40.7799C58.8038 40.823 58.8928 40.9876 58.8523 41.1474C58.8118 41.3072 58.6565 41.4018 58.506 41.3586L58.6533 40.7799ZM55.042 62.4323L54.5854 62.0795L54.6082 62.0503L55.0074 61.5725L55.3791 61.0704L55.7237 60.5456L56.0428 59.9987L56.3369 59.4312L56.6073 58.8445L56.8547 58.2394L57.0798 57.6175L57.2837 56.9799L57.4674 56.3279L57.6317 55.6631L57.7774 54.9864L57.9057 54.2996L58.0175 53.6038L58.1135 52.9003L58.1949 52.1907L58.2626 51.4762L58.3175 50.7579L58.3607 50.0376L58.3931 49.3163L58.4155 48.5954L58.4293 47.8765L58.4348 47.1607L58.4339 46.4494L58.4271 45.7439L58.4153 45.0456L58.3995 44.3555L58.3809 43.6754L58.3603 43.0065L58.3388 42.3498L58.3175 41.707L58.2972 41.0792L58.862 41.0593L58.8823 41.6862L58.9036 42.3289L58.9251 42.9864L58.9457 43.6571L58.9643 44.3396L58.9801 45.0329L58.9919 45.7354L58.9991 46.4459L59 47.1628L58.9941 47.885L58.9803 48.6114L58.9575 49.3404L58.9247 50.0708L58.8812 50.8011L58.8253 51.5303L58.7565 52.2568L58.6737 52.9795L58.5755 53.6972L58.4615 54.4082L58.33 55.1115L58.1804 55.8059L58.0114 56.4899L57.822 57.162L57.6113 57.8212L57.3776 58.466L57.1205 59.0952L56.8386 59.7073L56.5309 60.3009L56.196 60.8748L55.8332 61.4272L55.4411 61.9564L55.0193 62.4615L55.042 62.4323ZM55.0193 62.4615C54.9123 62.5819 54.7335 62.5875 54.62 62.474C54.5066 62.3606 54.5012 62.1707 54.6082 62.0503L55.0193 62.4615ZM29.5052 77.9084L29.9116 77.4923H29.5052L30.0342 76.9519L30.6151 76.4325L31.2437 75.933L31.9166 75.4506L32.6301 74.9835L33.3811 74.5297L34.1658 74.088L34.9809 73.6558L35.8231 73.2319L36.6888 72.8145L37.5745 72.4021L38.4769 71.9925L39.3922 71.5847L40.3174 71.1768L41.2485 70.7674L42.1822 70.3547L43.1151 69.937L44.0435 69.5132L44.9638 69.0815L45.8727 68.6403L46.7663 68.1883L47.6413 67.7237L48.494 67.2452L49.321 66.7513L50.1186 66.2408L50.8832 65.7118L51.6114 65.1631L52.2997 64.5937L52.9446 64.0019L53.5426 63.3865L54.0905 62.7463L54.5854 62.0795L55.042 62.4323L54.522 63.1334L53.9486 63.8034L53.3263 64.4438L52.6584 65.0569L51.9487 65.644L51.2011 66.2072L50.4189 66.7485L49.6056 67.2692L48.7646 67.7713L47.8997 68.2565L47.0143 68.7268L46.1117 69.1834L45.1957 69.6281L44.2693 70.0626L43.3366 70.4885L42.4008 70.9073L41.4653 71.3207L40.5338 71.7305L39.6101 72.1376L38.6973 72.5444L37.7992 72.9518L36.9192 73.3618L36.0611 73.7756L35.2282 74.1946L34.4245 74.6208L33.6531 75.0551L32.9182 75.499L32.223 75.954L31.5713 76.4212L30.9663 76.9021L30.4123 77.3974L29.9116 77.9084H29.5052ZM29.9116 77.9084C29.8034 78.0274 29.6244 78.031 29.5122 77.916C29.4 77.8011 29.397 77.6113 29.5052 77.4923L29.9116 77.9084ZM3.98073 62.5446L4.39178 62.1334L4.41455 62.1626L4.91018 62.8285L5.46119 63.4677L6.06454 64.0818L6.71643 64.6719L7.41384 65.2393L8.15301 65.7857L8.93016 66.312L9.74152 66.8201L10.5837 67.3109L11.4528 67.7861L12.3448 68.2473L13.2565 68.6958L14.1838 69.1335L15.1232 69.5613L16.0711 69.9813L17.0233 70.395L17.9766 70.8039L18.927 71.2095L19.8714 71.6135L20.8053 72.0176L21.7256 72.4235L22.6288 72.8325L23.5107 73.2467L24.3682 73.6676L25.1976 74.0968L25.995 74.5361L26.7573 74.9878L27.4805 75.4529L28.1613 75.934L28.796 76.4327L29.3807 76.9516L29.9116 77.4923L29.5052 77.9084L29.004 77.3981L28.4465 76.904L27.8366 76.4244L27.1777 75.9588L26.4731 75.5057L25.7273 75.0639L24.9435 74.6321L24.1259 74.2089L23.2778 73.7929L22.4033 73.3823L21.5063 72.9757L20.5903 72.572L19.6588 72.1689L18.7159 71.7653L17.7652 71.3596L16.8104 70.95L15.855 70.5353L14.9028 70.1132L13.9577 69.6826L13.0229 69.2417L12.1022 68.7886L11.1994 68.3221L10.3182 67.8399L9.46199 67.3408L8.63449 66.8229L7.83942 66.2843L7.08054 65.7233L6.36127 65.1379L5.68537 64.5262L5.05694 63.8866L4.47977 63.2167L3.95796 62.5154L3.98073 62.5446ZM3.95796 62.5154C3.86622 62.3818 3.89399 62.1942 4.01996 62.0968C4.14593 61.9994 4.3228 62.0289 4.41455 62.1626L3.95796 62.5154ZM0.346727 40.8631L0.494035 41.4419L0.702781 41.1624L0.682535 41.7903L0.661221 42.4331L0.639715 43.0898L0.619276 43.7587L0.600639 44.4388L0.584872 45.1287L0.573043 45.827L0.566236 46.5325L0.565168 47.2438L0.570908 47.9598L0.584522 48.6787L0.607096 49.3994L0.639347 50.1207L0.68271 50.841L0.737377 51.5592L0.805099 52.2738L0.886627 52.9835L0.982504 53.6869L1.09432 54.3829L1.22261 55.0696L1.36831 55.7462L1.53262 56.411L1.71629 57.063L1.92039 57.7006L2.14544 58.3226L2.39274 58.9278L2.66296 59.5145L2.95737 60.0819L3.27632 60.6287L3.62091 61.1535L3.99254 61.6556L4.39178 62.1334L3.98073 62.5446L3.55891 62.0395L3.16683 61.5103L2.80397 60.9578L2.46925 60.3842L2.16158 59.7906L1.87953 59.1784L1.62222 58.5493L1.3889 57.9042L1.178 57.245L0.988594 56.5729L0.819623 55.889L0.669988 55.1948L0.538465 54.4914L0.424511 53.7802L0.326481 53.0627L0.243517 52.3399L0.174711 51.6133L0.118976 50.8841L0.0752636 50.1539L0.0426453 49.4234L0.019704 48.6946L0.00608969 47.9682L0 47.2459L0.00106745 46.5289L0.00824208 45.8185L0.0200715 45.116L0.0358382 44.4228L0.0544747 43.7403L0.0748961 43.0696L0.0964025 42.4122L0.117734 41.7695L0.13798 41.1426L0.346727 40.8631ZM0.13798 41.1426C0.142998 40.9773 0.273794 40.8478 0.42969 40.8531C0.585586 40.8584 0.707799 40.9971 0.702781 41.1624L0.13798 41.1426ZM6.20555 33.9811H6.77072L6.75245 34.5019L6.69941 35.0018L6.61357 35.4807L6.49728 35.9383L6.35303 36.3746L6.18334 36.7899L5.99052 37.1843L5.77693 37.558L5.54524 37.9113L5.29778 38.2446L5.03724 38.5583L4.76558 38.8532L4.48514 39.1293L4.19844 39.3876L3.90779 39.628L3.61517 39.8513L3.3231 40.0579L3.03352 40.2481L2.74897 40.4228L2.4714 40.5821L2.20315 40.7261L1.94637 40.8561L1.7032 40.9715L1.476 41.0735L1.26688 41.162L1.07801 41.2377L0.911721 41.3008L0.769978 41.3517L0.655306 41.391L0.569823 41.4187L0.516066 41.4353L0.494035 41.4419L0.346727 40.8631L0.359449 40.8594L0.407117 40.8446L0.485425 40.8193L0.592222 40.7829L0.725355 40.7348L0.88269 40.6752L1.06188 40.6034L1.26097 40.5191L1.47743 40.4221L1.70912 40.3119L1.95372 40.1884L2.20907 40.051L2.47301 39.8999L2.74323 39.7341L3.01739 39.5538L3.29335 39.3588L3.56877 39.1482L3.84186 38.9227L4.10993 38.6814L4.371 38.424L4.62295 38.1507L4.86377 37.8609L5.09117 37.5546L5.30315 37.2313L5.49774 36.8908L5.673 36.5325L5.82692 36.1561L5.95755 35.7612L6.06274 35.347L6.1407 34.9127L6.18906 34.4577L6.20555 33.9811ZM6.20555 33.9811C6.20555 33.8156 6.33225 33.6815 6.48814 33.6815C6.64404 33.6815 6.77072 33.8156 6.77072 33.9811H6.20555ZM0.939492 26.941L1.50466 26.9386L1.3373 26.6662L1.3563 26.6753L1.40271 26.6985L1.47635 26.736L1.57599 26.7883L1.69855 26.8553L1.84245 26.9364L2.00604 27.0317L2.1872 27.1417L2.38396 27.2656L2.5945 27.4037L2.81671 27.5559L3.04911 27.7222L3.28922 27.9025L3.53543 28.0968L3.78595 28.305L4.0386 28.5272L4.29162 28.7636L4.54303 29.0137L4.79085 29.2778L5.03311 29.5557L5.26803 29.8479L5.49346 30.1541L5.7074 30.4742L5.90775 30.8085L6.09249 31.1569L6.25967 31.5193L6.40696 31.8959L6.53222 32.2862L6.63347 32.6901L6.70837 33.1077L6.75478 33.5381L6.77072 33.9811H6.20555L6.19139 33.5834L6.14966 33.1975L6.08263 32.8231L5.99143 32.4598L5.87835 32.1073L5.74467 31.7661L5.59219 31.4355L5.42285 31.1165L5.23829 30.8083L5.04009 30.5119L4.83045 30.2269L4.61058 29.9538L4.383 29.6925L4.14953 29.4436L3.91173 29.2069L3.67163 28.983L3.43114 28.7717L3.19247 28.573L2.95737 28.3876L2.72764 28.2151L2.50526 28.0561L2.29238 27.9103L2.09079 27.7779L1.90264 27.6593L1.72973 27.5546L1.57366 27.4636L1.43657 27.3863L1.32081 27.3232L1.228 27.2744L1.15972 27.2394L1.11796 27.2188L1.10685 27.2135L0.939492 26.941ZM1.10685 27.2135C0.964396 27.1461 0.90043 26.9686 0.964043 26.8176C1.02766 26.6667 1.19484 26.5988 1.3373 26.6662L1.10685 27.2135ZM1.02998 6.19985L1.25147 6.75139L1.42331 6.47438L1.42833 7.75336L1.43335 9.03232L1.43836 10.3113L1.44355 11.5903L1.44858 12.8692L1.4536 14.1484L1.45879 15.4273L1.46382 16.7063L1.46882 17.9853L1.47402 19.2642L1.47904 20.5434L1.48424 21.8223L1.48926 23.1013L1.49446 24.3804L1.49946 25.6594L1.50466 26.9386L0.939492 26.941L0.934294 25.6619L0.92929 24.3829L0.924092 23.1038L0.91907 21.8248L0.913873 20.5458L0.908851 19.2667L0.903654 17.9877L0.898649 16.7088L0.893627 15.4298L0.888429 14.1508L0.883407 12.8717L0.878385 11.5927L0.873188 10.3138L0.868183 9.03479L0.863161 7.75583L0.858138 6.47686L1.02998 6.19985ZM0.858138 6.47686C0.857601 6.3114 0.983575 6.17652 1.13947 6.17599C1.29537 6.17546 1.42277 6.30892 1.42331 6.47438L0.858138 6.47686ZM57.9992 6.18819L57.7917 6.74573L55.9588 6.0008L54.1303 5.30431L52.306 4.65555L50.4861 4.05504L48.6705 3.5028L46.8593 2.99864L45.0525 2.54238L43.2498 2.1342L41.4517 1.77429L39.6576 1.46229L37.868 1.19836L36.0826 0.982517L34.3014 0.81458L32.5246 0.694903L30.7518 0.623132L28.9834 0.599274L27.2193 0.623667L25.4591 0.695965L23.7034 0.816169L21.9518 0.984459L20.2041 1.20084L18.4606 1.46529L16.7214 1.77765L14.9863 2.13792L13.2553 2.54645L11.5282 3.00306L9.8055 3.50739L8.08653 4.06017L6.37167 4.66068L4.66094 5.30944L2.95432 6.00646L1.25147 6.75139L1.02998 6.19985L2.74503 5.44962L4.46418 4.74765L6.18782 4.09394L7.91593 3.48884L9.64816 2.93181L11.3849 2.42323L13.1256 1.96309L14.8705 1.55138L16.6199 1.18793L18.3735 0.873094L20.1314 0.606516L21.8934 0.388378L23.6596 0.218673L25.43 0.0974075L27.2046 0.0244015L28.9834 0L30.7662 0.0238663L32.5532 0.0963458L34.3444 0.217084L36.1396 0.386082L37.939 0.603693L39.7422 0.869736L41.5499 1.18387L43.3613 1.54661L45.1769 1.95761L46.9965 2.41704L48.8204 2.92475L50.6481 3.48088L52.4798 4.08527L54.3156 4.73792L56.1555 5.43901L57.9992 6.18819ZM55.9792 25.151L55.9663 8.24426L56.5315 8.24391L56.5444 25.1507V25.1508L55.9792 25.151ZM56.5444 25.1507C56.5444 25.3161 56.4179 25.4505 56.262 25.4505C56.1061 25.4505 55.9792 25.3165 55.9792 25.151L56.5444 25.1507ZM51.131 34.192L50.5662 34.1835V34.1961L50.5673 33.5991L50.6012 33.0256L50.6655 32.4755L50.7581 31.9482L50.8773 31.4438L51.0206 30.962L51.1858 30.5023L51.371 30.0647L51.5734 29.6485L51.7913 29.2534L52.0225 28.879L52.2644 28.5249L52.5151 28.1905L52.7724 27.8751L53.034 27.5787L53.298 27.3004L53.5619 27.0397L53.8237 26.7963L54.0816 26.5693L54.333 26.3586L54.576 26.1636L54.8084 25.9836L55.0279 25.8185L55.2321 25.6679L55.4191 25.5313L55.5862 25.4086L55.7303 25.3002L55.8486 25.2063L55.9364 25.1298L55.988 25.0771L55.9962 25.0683L55.9792 25.1508H56.5444L56.4954 25.3486L56.4105 25.4752L56.3116 25.5781L56.1966 25.6787L56.0625 25.7849L55.9102 25.8997L55.7402 26.0245L55.5536 26.1608L55.3526 26.3089L55.1384 26.4701L54.9132 26.6444L54.6788 26.8327L54.4371 27.0349L54.1907 27.252L53.9407 27.4844L53.6897 27.7321L53.4397 27.9959L53.1924 28.276L52.9502 28.573L52.7145 28.8873L52.4877 29.2191L52.2719 29.5688L52.0687 29.9374L51.8798 30.3249L51.708 30.7318L51.5543 31.1589L51.4209 31.6068L51.3104 32.0758L51.2238 32.5671L51.1638 33.0808L51.1321 33.6182L51.131 34.1794V34.192ZM51.131 34.1794C51.1351 34.3449 51.0122 34.483 50.8563 34.4874C50.7004 34.4918 50.5703 34.3615 50.5662 34.1961L51.131 34.1794ZM56.6761 42.3524L56.1113 42.3722L56.3039 42.6464L56.2822 42.6385L56.232 42.6192L56.1518 42.587L56.0448 42.5416L55.9125 42.4827L55.7575 42.4097L55.5818 42.3224L55.3875 42.2204L55.1764 42.103L54.9506 41.9701L54.7125 41.8211L54.4638 41.6554L54.2068 41.4726L53.9434 41.2725L53.6759 41.0544L53.4062 40.8179L53.1367 40.5624L52.8692 40.2877L52.6059 39.9932L52.3492 39.6784L52.1008 39.3429L51.8634 38.9861L51.639 38.608L51.4297 38.2078L51.2378 37.7855L51.0654 37.3404L50.9149 36.8724L50.7888 36.3815L50.6886 35.8675L50.6166 35.3297L50.5752 34.7685L50.5662 34.1835L51.131 34.192L51.1396 34.7405L51.1781 35.2647L51.2452 35.7649L51.3382 36.2422L51.4554 36.6971L51.5944 37.13L51.7539 37.5415L51.9315 37.9324L52.1253 38.3029L52.3336 38.6538L52.5542 38.9851L52.7853 39.2972L53.0249 39.5909L53.2709 39.8663L53.5216 40.1237L53.7746 40.3636L54.0282 40.5859L54.2803 40.7914L54.5286 40.9801L54.7716 41.1527L55.0064 41.3091L55.2316 41.45L55.4448 41.5759L55.6441 41.6865L55.8272 41.7825L55.9923 41.8646L56.1369 41.9326L56.2594 41.9872L56.3575 42.0288L56.4288 42.0574L56.4729 42.0742L56.4834 42.0783L56.6761 42.3524ZM56.4834 42.0783C56.6313 42.1308 56.711 42.3008 56.6616 42.4576C56.6121 42.6144 56.4517 42.6989 56.3039 42.6464L56.4834 42.0783ZM53.1957 61.0308L52.7387 60.678L52.7617 60.6488L53.1387 60.2014L53.4884 59.7395L53.8121 59.2642L54.1104 58.7754L54.3848 58.274L54.6356 57.7609L54.8646 57.236L55.0721 56.7004L55.2594 56.1545L55.4271 55.5991L55.5764 55.0348L55.7083 54.4622L55.8231 53.8824L55.9226 53.2954L56.0071 52.7024L56.0778 52.1041L56.1358 51.5009L56.1815 50.8937L56.2166 50.2831L56.2414 49.6701L56.2573 49.0552L56.2648 48.4392L56.2655 47.8226L56.26 47.2065L56.2492 46.5915L56.2342 45.9779L56.2161 45.3668L56.1957 44.7589L56.1742 44.1548L56.1521 43.5552L56.1308 42.9607L56.1113 42.3722L56.6761 42.3524L56.6956 42.9388L56.7166 43.5322L56.7386 44.1319L56.7605 44.737L56.7809 45.3467L56.799 45.9606L56.814 46.5781L56.8248 47.198L56.8307 47.8201L56.83 48.4434L56.8221 49.0673L56.8062 49.6913L56.7807 50.3142L56.7452 50.9358L56.6985 51.555L56.6393 52.1716L56.5669 52.7845L56.4799 53.3933L56.3779 53.997L56.2591 54.5952L56.1229 55.1868L55.9683 55.7716L55.7941 56.3486L55.599 56.9168L55.3825 57.4757L55.1431 58.0246L54.88 58.5625L54.5921 59.089L54.2783 59.6025L53.9379 60.1029L53.5694 60.5889L53.1727 61.06L53.1957 61.0308ZM53.1727 61.06C53.0657 61.1804 52.8869 61.1861 52.7735 61.0726C52.66 60.9591 52.6547 60.7692 52.7617 60.6488L53.1727 61.06ZM29.4932 75.6611L29.8996 75.245H29.4932L29.9915 74.7346L30.5361 74.2446L31.1238 73.7723L31.7513 73.3165L32.4154 72.8749L33.1132 72.4461L33.8412 72.028L34.5965 71.6191L35.3762 71.2182L36.1768 70.8231L36.9955 70.4326L37.8292 70.045L38.6744 69.6589L39.5282 69.2726L40.3876 68.8851L41.2492 68.4945L42.1097 68.0992L42.9662 67.6981L43.8156 67.2896L44.6542 66.8722L45.4792 66.4446L46.2873 66.0053L47.0754 65.5531L47.84 65.0862L48.5783 64.6038L49.2868 64.1044L49.9623 63.5865L50.6019 63.0491L51.2022 62.4907L51.7605 61.9103L52.2735 61.3066L52.7387 60.678L53.1957 61.0308L52.7057 61.6927L52.1684 62.3254L51.5863 62.9305L50.9635 63.5094L50.3032 64.0645L49.6086 64.5969L48.8829 65.1087L48.1292 65.6014L47.3506 66.0764L46.5507 66.5356L45.7322 66.9806L44.8982 67.4128L44.0521 67.8337L43.197 68.245L42.3362 68.6483L41.4724 69.0449L40.6091 69.4363L39.7497 69.8242L38.8969 70.2097L38.0542 70.5947L37.2249 70.9803L36.4119 71.3683L35.6185 71.7595L34.8481 72.1558L34.1039 72.5587L33.3892 72.969L32.7071 73.3883L32.061 73.8179L31.4539 74.2587L30.8894 74.7123L30.3703 75.1794L29.8996 75.6611H29.4932ZM29.8996 75.6611C29.7914 75.7801 29.6123 75.7836 29.5002 75.6687C29.388 75.5538 29.385 75.3639 29.4932 75.245L29.8996 75.6611ZM5.98049 61.06L6.39156 60.6488L6.41431 60.678L6.88003 61.3063L7.39484 61.9098L7.95625 62.4901L8.56084 63.0482L9.20575 63.5858L9.88757 64.1036L10.6032 64.6031L11.3494 65.0855L12.1228 65.5524L12.9204 66.0046L13.7384 66.4439L14.5738 66.8715L15.423 67.2888L16.2832 67.6974L17.1509 68.0987L18.0227 68.4939L18.8955 68.8844L19.766 69.2721L20.6308 69.6583L21.4868 70.0444L22.3306 70.4319L23.1591 70.8226L23.9693 71.2175L24.7577 71.6186L25.5211 72.0275L26.2566 72.4454L26.9605 72.8744L27.6303 73.3158L28.2623 73.7717L28.8535 74.2441L29.4006 74.7344L29.8996 75.245L29.4932 75.6611L29.0221 75.1796L28.5012 74.7129L27.9337 74.2593L27.3225 73.8186L26.6709 73.3888L25.9825 72.9697L25.2605 72.5592L24.5083 72.1564L23.7292 71.7602L22.9266 71.3688L22.1037 70.981L21.2639 70.5953L20.4107 70.2102L19.547 69.8247L18.6762 69.437L17.8019 69.0455L16.9269 68.6488L16.055 68.2458L15.1889 67.8344L14.3322 67.4135L13.4879 66.9813L12.6595 66.5363L11.8501 66.0771L11.0627 65.6021L10.3008 65.1094L9.5679 64.5978L8.86672 64.0652L8.20067 63.5103L7.57351 62.931L6.98807 62.3259L6.44817 61.693L5.95773 61.0308L5.98049 61.06ZM5.95773 61.0308C5.86598 60.8972 5.89377 60.7096 6.01974 60.6122C6.14571 60.5148 6.32257 60.5444 6.41431 60.678L5.95773 61.0308ZM2.66977 42.0783L2.84931 42.6464L3.04194 42.3722L3.02241 42.9607L3.00108 43.5552L2.97905 44.1548L2.95754 44.7589L2.93712 45.3668L2.91902 45.9779L2.90396 46.5915L2.89321 47.2065L2.88784 47.8226L2.88838 48.4392L2.89591 49.0552L2.91185 49.6701L2.93658 50.2831L2.9717 50.8937L3.01758 51.5009L3.07545 52.1041L3.14623 52.7024L3.23081 53.2955L3.3299 53.8824L3.44512 54.4622L3.57683 55.0348L3.7261 55.5991L3.89399 56.1545L4.08107 56.7004L4.28875 57.236L4.51759 57.7609L4.76863 58.274L5.04279 58.7755L5.34115 59.2642L5.66476 59.7395L6.01455 60.2014L6.39156 60.6488L5.98049 61.06L5.58377 60.5889L5.21534 60.1029L4.87488 59.6025L4.56112 59.0888L4.27333 58.5625L4.01011 58.0246L3.7709 57.4757L3.55424 56.9168L3.35928 56.3486L3.18494 55.7716L3.0303 55.1868L2.89428 54.5952L2.77548 53.997L2.67316 53.3931L2.58644 52.7845L2.51387 52.1716L2.45491 51.555L2.40796 50.9358L2.37249 50.3142L2.34703 49.6913L2.33109 49.0673L2.32322 48.4434L2.32267 47.8201L2.32841 47.198L2.33916 46.5781L2.35421 45.9606L2.3723 45.3467L2.39274 44.737L2.4146 44.1319L2.43663 43.5322L2.45761 42.9388L2.47714 42.3524L2.66977 42.0783ZM2.47714 42.3524C2.48215 42.1872 2.61295 42.0576 2.76885 42.0629C2.92474 42.0682 3.04696 42.207 3.04194 42.3722L2.47714 42.3524ZM8.0222 34.1794L8.587 34.1961V34.1835L8.57804 34.7685L8.53666 35.3297L8.46479 35.8675L8.36462 36.3815L8.23812 36.8726L8.08777 37.3404L7.91558 37.7855L7.72367 38.2078L7.51436 38.608L7.28984 38.9863L7.05242 39.3429L6.80423 39.6784L6.54727 39.9932L6.28405 40.2877L6.01668 40.5624L5.747 40.8179L5.47732 41.0544L5.2098 41.2725L4.94656 41.4726L4.6896 41.6554L4.44071 41.8211L4.20257 41.9701L3.97678 42.103L3.7657 42.2204L3.57144 42.3224L3.39567 42.4097L3.24066 42.4827L3.10842 42.5416L3.00145 42.587L2.92116 42.6192L2.87099 42.6385L2.84931 42.6464L2.66977 42.0783L2.68034 42.0742L2.72442 42.0574L2.79573 42.0288L2.89376 41.9872L3.01632 41.9326L3.16093 41.8646L3.32597 41.7825L3.50909 41.6865L3.70836 41.5759L3.92158 41.45L4.14683 41.3091L4.38176 41.1527L4.62438 40.9801L4.87292 40.7914L5.12503 40.5859L5.37859 40.3636L5.63179 40.1237L5.88229 39.8663L6.12832 39.5909L6.36808 39.2972L6.59905 38.9851L6.81964 38.6536L7.02804 38.3029L7.22193 37.9324L7.39951 37.5415L7.55881 37.13L7.69803 36.6969L7.81522 36.2422L7.90823 35.7649L7.97506 35.2647L8.01359 34.7405L8.0222 34.192V34.1794ZM8.0222 34.192C8.02005 34.0265 8.14475 33.8904 8.30065 33.8881C8.45654 33.8858 8.58485 34.0181 8.587 34.1835L8.0222 34.192ZM2.60901 25.1507L3.17418 25.151V25.1508L3.15717 25.0683L3.16541 25.0771L3.21702 25.1298L3.30481 25.2065L3.42289 25.3002L3.56716 25.4086L3.73415 25.5313L3.92106 25.6679L4.1255 25.8185L4.34501 25.9836L4.57743 26.1636L4.82041 26.3586L5.07164 26.5693L5.32949 26.7961L5.59147 27.0397L5.85523 27.3004L6.11937 27.5787L6.3808 27.8751L6.63813 28.1905L6.88882 28.5249L7.13073 28.879L7.3617 29.2534L7.57995 29.6485L7.78225 30.0647L7.96753 30.5023L8.13257 30.962L8.27592 31.4438L8.39509 31.9482L8.48773 32.4755L8.55206 33.0256L8.58593 33.5991L8.587 34.1961L8.0222 34.1794L8.02112 33.6182L7.98941 33.0808L7.92937 32.5671L7.84282 32.0758L7.73226 31.6068L7.59895 31.1589L7.44538 30.7318L7.27336 30.3249L7.08467 29.9374L6.88147 29.5688L6.66553 29.2191L6.43869 28.8873L6.20305 28.573L5.96079 28.276L5.71368 27.9959L5.46353 27.7321L5.21267 27.4844L4.96287 27.2522L4.71613 27.0349L4.47457 26.8327L4.24019 26.6444L4.01494 26.4701L3.80082 26.3089L3.59958 26.1608L3.41304 26.0245L3.24318 25.8997L3.09067 25.7849L2.95682 25.6785L2.84178 25.5781L2.74288 25.4752L2.65794 25.3486L2.60901 25.1508V25.1507ZM2.60901 25.1508C2.60901 24.9854 2.73571 24.8512 2.8916 24.8512C3.0475 24.8512 3.17418 24.9854 3.17418 25.1508H2.60901ZM2.79788 7.96654L3.01112 8.52162L3.18709 8.24426L3.18638 9.30085L3.18547 10.3574L3.18475 11.4142L3.18405 12.4708L3.18314 13.5274L3.18242 14.5841L3.1817 15.6407L3.18081 16.6975L3.18009 17.754L3.1792 18.8108L3.17848 19.8676L3.17759 20.9243L3.1767 21.9809L3.17598 23.0377L3.17509 24.0944L3.17418 25.151L2.60901 25.1507L2.60992 24.0937L2.61081 23.0373L2.61153 21.9805L2.61242 20.9236L2.61332 19.8672L2.61403 18.8104L2.61493 17.7537L2.61564 16.6971L2.61654 15.6403L2.61725 14.5838L2.61797 13.527L2.61888 12.4704L2.6196 11.4138L2.6203 10.3571L2.62121 9.30049L2.62193 8.24391L2.79788 7.96654ZM2.62193 8.24391C2.62193 8.07845 2.74878 7.94445 2.90468 7.94445C3.06057 7.94445 3.18709 8.07879 3.18709 8.24426L2.62193 8.24391ZM56.5315 8.24391L55.9663 8.24426L56.1439 8.52233L54.3539 7.78623L52.5733 7.10318L50.802 6.47279L49.04 5.89456L47.287 5.36795L45.5428 4.89207L43.8077 4.4664L42.0812 4.09058L40.3633 3.76389L38.6541 3.48601L36.9533 3.25584L35.2608 3.07342L33.5769 2.93765L31.9008 2.84838L30.2329 2.80471L28.5729 2.8063L26.9209 2.85262L25.2763 2.94295L23.6396 3.07677L22.0104 3.25337L20.3885 3.47257L18.774 3.73366L17.1668 4.03595L15.5667 4.37889L13.9735 4.76197L12.3876 5.18463L10.8082 5.64637L9.2355 6.14664L7.66972 6.68492L6.11041 7.2605L4.55754 7.87303L3.01112 8.52162L2.79788 7.96654L4.35505 7.31336L5.91904 6.69659L7.48981 6.11677L9.0674 5.5746L10.652 5.07044L12.2436 4.60517L13.8423 4.17897L15.4484 3.79271L17.0615 3.44694L18.6822 3.14217L20.3104 2.87896L21.9458 2.65799L23.589 2.47962L25.2401 2.34475L26.8987 2.25371L28.5653 2.20704L30.2397 2.20545L31.9219 2.24946L33.6124 2.33945L35.311 2.47626L37.0178 2.66046L38.7326 2.89239L40.4561 3.17276L42.188 3.50191L43.9281 3.88092L45.6768 4.30978L47.4343 4.78919L49.2006 5.32005L50.9755 5.90252L52.7593 6.53714L54.5521 7.2248L56.3539 7.96584L56.5315 8.24391ZM56.3539 7.96584C56.4985 8.02735 56.5689 8.202 56.511 8.35562C56.4532 8.50924 56.2885 8.58385 56.1439 8.52233L56.3539 7.96584Z" fill="#1B1B1B"/>
<path fill-rule="evenodd" clip-rule="evenodd" d="M45.173 38.2925C45.8871 38.1679 46.9769 35.9497 45.8969 35.9497C45.0311 35.9497 44.5152 38.24 45.173 38.2925Z" fill="#E31E24" stroke="#1B1B1B" stroke-width="0.136543" stroke-miterlimit="22.9256"/>
<path fill-rule="evenodd" clip-rule="evenodd" d="M28.4916 62.1346C27.8485 61.4473 27.3862 61.6191 26.4485 61.5861C26.4617 61.2424 26.4752 60.8988 26.4886 60.5616C26.6829 60.0792 27.0378 59.6497 27.4197 58.7246C27.5202 58.2422 27.5202 58.2422 27.6944 57.991C27.6944 56.2662 27.6944 56.2662 27.5939 55.5193C27.4064 55.3344 27.3394 55.2881 27.279 55.0304C27.2455 55.103 27.2188 55.1759 27.1919 55.2485C25.9661 55.374 25.8925 55.3344 25.1757 56.2925C24.8743 56.438 24.7872 56.4776 24.6197 56.7552C24.4991 56.7419 24.3785 56.7353 24.2647 56.7288C24.0837 57.1715 24.0837 57.1715 23.8493 57.4953C23.6147 57.4888 23.501 57.3565 23.3268 57.3037C23.079 57.5218 23.0521 57.7267 22.9449 58.0373C22.7037 58.1826 22.6367 58.2157 22.5364 58.4669C22.2884 58.5263 22.0406 58.5858 21.7927 58.6452C21.7392 58.0108 21.7392 58.0108 21.5917 57.6804C21.2568 57.601 20.9219 57.5284 20.587 57.4557C20.3994 56.9996 19.4013 56.3586 18.9658 56.1076C18.6711 55.7442 18.048 54.6273 17.6595 54.4555C17.6059 54.158 17.5524 53.8606 17.5054 53.5633C17.1974 53.4509 17.1974 53.4509 17.0367 53.2725C16.762 53.2858 16.7084 53.3584 16.36 53.3584C15.5026 52.8825 15.2279 52.2944 14.5782 51.6799C14.5914 51.4486 14.6653 51.3892 14.6653 51.2041C14.4776 50.8406 13.5466 49.6444 13.1446 49.466C13.0642 48.9373 12.823 48.5342 12.5282 48.0981C12.4411 47.6817 12.4211 47.0341 11.9856 46.8425C11.9589 46.7433 11.932 46.6442 11.9054 46.5517C11.8516 46.545 11.798 46.5384 11.7444 46.5319C11.4565 45.7322 11.2353 44.6022 10.7999 43.9082C10.6793 43.8949 10.5587 43.8819 10.4449 43.8686C10.3378 43.6241 10.2908 43.6174 10.0296 43.5382C9.62103 42.3948 9.39991 42.0446 9.6076 40.8419C9.69468 40.8419 9.78838 40.8419 9.88228 40.8419C9.88891 40.9212 9.89554 41.0071 9.90235 41.0931C9.96937 41.1194 10.0362 41.1459 10.1032 41.1723C10.2238 42.0181 10.7799 42.6195 11.7378 42.6195C12.1598 42.2891 12.4211 41.972 12.7293 41.5292C12.5818 41.0931 11.5971 40.9939 11.1884 40.9345C11.1483 40.8551 11.1148 40.7758 11.0812 40.6966C10.9875 40.6833 10.9004 40.67 10.8134 40.6568C11.0142 39.7977 13.3188 40.386 14.1159 40.5247C15.1944 40.1084 15.7504 39.236 16.6213 38.5355C16.6883 38.2184 16.7551 37.901 16.8222 37.5904C17.0834 37.4451 17.1236 37.4121 17.1974 37.1278C17.9477 36.5332 18.651 35.793 18.9123 34.8745C19.0864 34.7753 19.2606 34.6761 19.4414 34.577C19.4683 34.3192 21.2837 33.1893 21.3172 33.1695C22.3488 32.9777 22.409 32.9117 23.2799 32.7069C23.6081 32.3434 26.6293 32.1847 26.8101 32.4293C27.6878 32.5416 27.7413 32.6142 28.4045 32.7134C29.6304 33.4999 30.615 34.7092 31.9683 35.2973C32.2697 35.5353 32.5711 35.7732 32.8726 36.0177C33.4554 36.1234 33.4554 36.1234 33.7032 36.2489C34.199 37.0684 37.1331 36.956 38.1781 37.2072C39.5581 37.1809 40.9446 37.1609 42.3314 37.1411C43.1688 35.7732 44.2806 34.3259 46.0158 34.3788C46.0693 34.4515 46.0693 34.4515 47.0406 34.6498C48.4339 36.282 47.8847 37.4915 47.6034 39.474C47.6034 40.9212 48.032 41.9124 48.4205 43.2937C48.4743 43.3003 48.5278 43.3068 48.588 43.3201C48.8359 44.5031 49.4589 45.111 50.3968 45.8777C50.7718 47.0672 50.7718 47.0672 50.8254 47.4504C50.7652 47.457 50.7116 47.4637 50.6581 47.4702C50.524 48.4087 50.5375 48.7457 50.8254 49.6511C50.7451 49.6842 50.6647 49.7172 50.5842 49.7501C50.571 49.8097 50.5575 49.8691 50.5441 49.9286C50.4771 49.9286 50.4169 49.9286 50.3565 49.9286C50.3163 49.8162 50.2828 49.7039 50.2493 49.5982C49.7671 49.4725 49.5191 49.1489 49.057 49.0099C48.8023 48.4549 48.0053 47.7545 48.3468 47.2588C47.9851 46.7433 48.521 45.6793 47.8042 45.3422C47.5831 46.8756 47.4894 48.4285 47.6502 49.9617C48.4875 51.0653 48.4875 51.0653 48.6282 51.3824C48.6282 52.083 48.4608 53.2923 48.0856 53.8673C47.9517 55.1559 47.8243 56.4446 47.6971 57.7332C47.8847 58.8171 47.8847 58.8171 47.9383 60.0264C47.7507 60.099 47.5631 60.1784 47.3756 60.2578C47.3421 60.4031 47.5765 61.2622 47.5966 61.5265C47.1679 61.9495 44.0529 61.8503 43.43 61.5265C43.2559 61.1498 43.5171 60.6145 43.5237 60.1719C44.14 59.3127 44.274 58.7642 44.4951 57.7267C44.5487 57.72 44.6023 57.7134 44.6559 57.7069C44.9506 56.9865 44.9238 55.8762 44.6224 55.1559C44.5152 55.1428 44.4081 55.1295 44.3007 55.1228C44.1601 55.374 44.1601 55.374 43.8855 55.5326C43.5573 56.2066 43.1553 56.9204 42.9543 57.6473C42.9878 58.4073 43.3429 59.4052 42.5792 59.848C42.5792 60.5814 42.5792 60.5814 42.4853 60.978C41.36 61.3944 40.1609 61.3416 38.9685 61.3416C38.9284 61.3018 38.8949 61.2622 38.8614 61.2226C38.982 59.9009 39.6383 59.0219 39.8996 57.7796C41.0117 56.5372 40.8174 55.4136 40.8174 53.788C40.7303 53.1072 40.8174 51.6336 39.8394 51.6336C39.4174 51.8716 39.0021 51.9706 38.8546 52.4399C38.6872 52.4399 38.5732 52.3077 38.3991 52.2548C37.957 52.6909 37.4411 52.1093 36.865 52.0367C36.8249 51.9575 36.7914 51.8781 36.7579 51.8055C35.5053 51.4949 34.2727 51.7987 33.3683 52.6909C32.6985 54.3498 32.5444 55.7309 32.3433 57.502C32.618 58.0834 32.5711 59.1474 32.618 59.7819C32.4974 59.9207 32.3768 60.0662 32.2562 60.2115C32.2765 60.3437 32.2965 60.4757 32.3166 60.6145C32.3702 60.6278 32.4304 60.6476 32.4908 60.6674C32.4974 60.9847 32.5109 61.3018 32.5243 61.6191C32.3301 61.7711 32.1358 61.923 31.9414 62.0817C30.7892 62.0948 29.637 62.1148 28.4916 62.1346Z" fill="#1B1B1B"/>
<path fill-rule="evenodd" clip-rule="evenodd" d="M29.328 61.6785C29.2275 61.6191 29.127 61.5663 29.0264 61.5134C29.0064 60.9186 29.1404 60.8459 29.5489 60.3833C29.5558 60.2115 29.4619 60.0331 29.4619 59.3656C29.8371 58.1761 29.8371 58.1761 29.8907 57.6408C30.527 57.588 30.6476 57.4888 31.1366 57.0725C31.1366 56.5768 31.1031 56.2595 30.9424 55.7903C31.0027 55.1493 31.0629 54.5084 31.13 53.8674C31.0228 53.8541 30.9156 53.8409 30.8151 53.8343C30.5404 54.8784 30.4868 55.6714 30.4802 56.7552C30.3596 56.8543 30.3596 56.8543 29.9443 56.8478C29.3481 56.2134 29.8706 55.6516 29.5558 55.0767C29.5558 53.6029 29.3682 52.2085 29.1739 50.748C29.127 50.7019 29.0868 50.6621 29.0467 50.6225C28.9662 50.6358 28.8858 50.649 28.8121 50.6688C28.5844 51.4618 28.8657 52.5059 28.9997 53.3121C28.906 53.7946 28.8121 54.1845 29.1069 54.5943C29.0132 54.6075 28.9193 54.6206 28.8256 54.6404C28.7987 54.3563 28.772 54.0788 28.7451 53.8013C27.6399 53.0083 27.0102 51.8716 26.1594 50.8076C26.146 50.5894 26.1327 50.378 26.1259 50.1666C26.6887 49.7634 27.5461 49.3273 27.6264 48.5739C26.4407 48.6665 25.8379 50.3582 24.3574 49.7766C23.5536 48.9506 22.9641 48.1047 23.6138 47.0341C23.5602 46.9415 23.5066 46.849 23.4531 46.7566C23.3459 46.7764 23.2387 46.7962 23.1382 46.816C22.9506 47.2721 22.9506 47.2721 22.7564 48.3228C23.4599 49.836 23.6341 50.1929 25.1747 50.6225C25.8847 51.5741 26.7154 52.3936 27.325 53.4048C27.325 54.548 26.722 54.6339 25.7976 54.6471C24.6588 54.9114 24.9 54.7859 24.9 55.7442C24.6857 55.8432 24.6857 55.8432 24.0225 55.9489C23.788 56.1736 23.6876 56.4776 23.5 56.6627C22.9909 56.8278 22.0665 57.2112 22.341 57.9316C22.2808 57.9514 22.2206 57.9778 22.1668 58.0043C22.1133 57.7531 22.0597 57.5086 22.0129 57.2641C21.0014 56.8676 20.385 56.4313 19.742 55.5789C19.2396 55.4665 19.2396 55.4665 19.005 55.341C18.8979 55.0502 17.7121 53.0479 18.7572 53.1007C19.0118 53.517 19.5544 54.5545 20.1572 54.4092C20.1572 53.7484 19.7286 53.5699 19.4138 53.0544C19.4404 51.6402 18.9448 51.541 17.6586 51.5212C17.471 51.3363 17.471 51.3363 17.3638 51.0257C16.761 50.6092 16.6538 50.616 15.9236 50.715C15.8432 50.8274 15.7629 50.9463 15.6891 51.0653C15.5685 51.0653 15.4481 51.0653 15.3341 51.0653C14.8921 50.5102 14.7446 50.1335 14.5704 49.466C13.6259 49.2612 13.3781 48.5012 12.9962 47.6421C12.8957 47.1729 12.802 46.7103 12.7083 46.2477C11.7838 45.534 11.489 44.4964 11.9712 43.3995C12.38 42.9567 12.7885 42.5205 13.1973 42.0843C13.3446 42.0843 13.4919 42.0843 13.6393 42.0843C13.847 42.6724 13.847 42.6724 13.9742 42.8046C14.1418 42.7848 14.3091 42.7716 14.4833 42.7583C14.4833 41.9522 13.9407 41.6151 13.358 41.1062C13.3781 41.06 13.3981 41.0137 13.425 40.9674C14.7111 41.3441 14.8786 41.7671 15.5685 42.8971C15.9168 42.8971 16.2652 42.9038 16.6135 42.9103C16.7141 43.0756 16.8146 43.2407 16.9151 43.406C17.3638 43.4654 17.4174 43.5382 17.6451 43.4919C17.719 42.7385 17.7992 41.939 17.5448 41.2053C16.9753 40.8684 16.4327 40.7031 15.7964 40.505C15.7964 40.0621 16.8481 39.2096 17.2701 38.9057C17.6385 37.5376 18.027 37.2733 19.2731 36.6521C19.2863 36.3283 19.2998 36.0044 19.3198 35.6873C19.8492 35.0594 20.452 34.5704 21.0817 34.0417C21.7784 33.7509 22.475 33.4601 23.1784 33.1695C24.9402 32.9844 24.9402 32.9844 26.0121 32.9977C26.4274 33.447 26.9632 33.1695 27.5662 33.1695C27.9146 33.295 28.2629 33.4205 28.6179 33.5527C30.0783 34.8678 31.8267 35.8657 33.3071 37.1213C33.2 37.2468 33.0994 37.3725 32.9989 37.498C33.5684 37.868 34.6401 37.5707 35.2698 37.4847C37.7417 37.6962 40.1332 37.7623 42.6184 37.7623C42.7456 37.6962 42.873 37.6302 43.0003 37.5707C44.0923 35.674 44.8827 34.1872 47.0396 35.4759C47.5756 36.9231 47.2005 38.0927 46.9525 39.5599C47.2742 42.091 47.656 44.3114 49.6522 46.0626C50.0005 46.7566 49.8264 47.6421 49.7393 48.402C48.9555 48.402 48.9288 46.2609 48.8082 45.7918C48.4799 45.1308 48.1651 44.5692 47.7096 43.9941C47.5354 43.3068 47.3209 42.6593 46.9057 42.0843C46.8118 42.0843 46.7181 42.0843 46.631 42.0843C46.4569 42.6857 46.8387 43.7497 47.1401 44.318C47.1066 45.1176 47.0731 45.9173 47.0464 46.7236C46.4904 50.0278 46.4904 50.0278 46.4904 50.5762C45.7335 52.235 43.9783 51.0917 42.8195 50.5233C43.697 50.3252 44.0385 50.2127 44.7151 49.6444C44.6951 49.5652 44.6816 49.4924 44.6684 49.4197C44.0654 49.4197 43.5964 49.6907 42.9936 49.6907C42.2165 49.1687 41.6203 48.8053 41.5198 47.8139C42.5849 47.7015 43.3821 47.5958 44.0654 46.7103C44.0654 46.4328 44.0654 46.1552 44.0654 45.8842C44.0184 45.8379 43.9717 45.7983 43.9313 45.7587C43.5495 45.9965 43.4088 46.5715 43.0137 46.9415C41.8681 47.1862 40.7025 47.2721 39.6173 46.7499C39.3093 46.294 39.3025 45.6067 39.5973 45.1506C39.5973 45.0251 39.5973 44.8996 39.5973 44.7806C39.5371 44.7608 39.4767 44.741 39.4231 44.7278C38.5053 45.5671 38.5723 46.5848 39.4767 47.305C39.9456 47.49 39.9456 47.49 40.8097 47.6884C40.8967 48.0584 40.9838 48.4285 41.0709 48.7985C41.1247 48.8053 41.1783 48.8118 41.2385 48.8251C41.2519 48.8844 41.272 48.9506 41.2921 49.0167C41.2385 49.043 41.1915 49.0695 41.1447 49.1026C41.1313 49.043 41.1247 48.9902 41.1179 48.9373C41.0643 48.9308 41.0107 48.924 40.9571 48.9175C40.3341 47.7478 39.6843 47.9063 38.3044 48.0055C38.2978 48.0849 38.291 48.1641 38.2843 48.25C38.9341 48.4285 39.5906 48.6069 40.247 48.7853C40.5016 49.2612 40.7561 49.737 41.0107 50.2127C40.381 50.8539 38.8201 51.6535 37.8489 51.6139C37.0316 50.7084 34.9684 51.019 33.9434 51.0653C33.4209 50.5498 33.3874 49.9154 33.5684 49.2479C34.2181 48.6796 34.9483 48.1906 34.3453 47.3182C34.2316 47.305 34.1176 47.2919 34.0038 47.2852C33.9167 48.2963 33.8497 48.6665 32.7645 48.6928C32.3893 49.5454 32.7912 50.3715 32.9989 51.1975C32.9989 52.2085 32.463 53.1403 32.0811 54.0523C32.0678 55.8101 31.9739 56.6362 31.9739 58.8369C31.4179 60.0925 31.6256 60.218 31.7797 61.434C31.3041 61.824 29.9242 61.6653 29.328 61.6785Z" fill="#FFED00"/>
<path fill-rule="evenodd" clip-rule="evenodd" d="M27.2863 61.3087C27.2059 61.2558 27.1322 61.203 27.0586 61.1566C27.0586 61.0112 27.0586 60.8658 27.0586 60.7205C27.1792 60.6147 27.1792 60.6146 28.0232 60.5156C28.0432 60.4561 28.0633 60.3967 28.0834 60.3438C27.7015 59.9473 27.7083 59.9075 27.7083 59.3459C28.2776 58.2223 28.3515 57.3369 28.338 56.0747C27.9562 55.698 28.0767 54.8124 28.0834 54.2969C28.137 54.2969 28.1905 54.2969 28.2509 54.2969C28.8001 55.6054 29.182 56.8743 29.182 58.2885C28.807 59.8018 29.0748 61.1499 27.2863 61.3087Z" fill="#FFED00"/>
<path fill-rule="evenodd" clip-rule="evenodd" d="M45.051 61.3087C44.2271 61.0179 44.0061 60.8856 44.5487 60.172C44.9841 60.1455 45.4262 60.1191 45.8683 60.0926C45.8416 60.02 45.8147 59.9473 45.788 59.8812C45.4597 59.8085 45.1314 59.7357 44.81 59.6631C45.5669 58.0836 45.9018 55.1297 44.9037 53.6824C44.3007 53.2065 43.7984 52.2153 43.1955 51.9443C43.182 51.8915 43.1754 51.8386 43.1688 51.7858C42.9743 51.7129 42.9611 51.6999 42.8872 51.5082C42.8337 51.5015 42.7801 51.495 42.7265 51.4883C42.7131 51.4289 42.7064 51.376 42.6998 51.3232C42.3112 51.2107 41.648 50.5234 41.6883 50.1467C41.9897 50.279 41.983 50.4244 42.0968 50.7283C42.1504 50.735 42.204 50.7416 42.2644 50.7548C42.8539 51.7725 45.9553 52.1888 46.8262 52.3541C47.1143 52.4731 47.4023 52.5986 47.6905 52.7241C47.7507 52.6778 47.811 52.6317 47.8779 52.5853C47.8847 51.8254 47.6501 51.3495 47.563 50.6622C47.6569 50.6622 47.7507 50.6622 47.8444 50.6622C47.8578 50.7812 47.8779 50.9001 47.898 51.0258C48.3067 51.4289 48.233 52.4862 47.7908 52.8696C47.054 55.2552 47.0941 56.7685 47.2885 59.2931C46.3773 59.4053 46.9603 60.6346 46.9468 61.1566C46.5047 61.5201 45.654 61.1566 45.051 61.3087Z" fill="#FFED00"/>
<path fill-rule="evenodd" clip-rule="evenodd" d="M39.7521 60.8526C39.685 60.8195 39.6248 60.7865 39.5645 60.7601C39.665 59.5573 39.9864 59.8877 41.1386 59.8745C41.1521 59.8283 41.1655 59.782 41.179 59.7424C40.8238 59.5045 40.5894 59.4649 40.154 59.3921C40.3884 59.0023 40.3952 58.6982 40.4554 58.2423C41.7551 56.3455 41.554 53.9401 41.1856 51.7725C40.8974 51.1977 41.0919 50.9001 41.6477 50.9001C42.0029 51.3826 42.3579 51.865 42.7196 52.3474C43.5034 53.0545 44.3474 53.5832 43.8853 54.7066C43.0411 55.9359 42.5455 56.5439 42.3914 58.0374C41.2191 58.8502 42.5924 60.0596 41.8018 60.7073C41.1186 60.7534 40.4353 60.7997 39.7521 60.8526Z" fill="#FFED00"/>
<path fill-rule="evenodd" clip-rule="evenodd" d="M31.4718 59.7492C31.3578 59.6567 31.2439 59.5641 31.1367 59.4782C31.2439 58.5003 31.1032 57.0859 31.8603 56.359C31.8804 56.4317 31.9071 56.5045 31.9339 56.5837C31.5922 56.9208 31.9339 58.2556 31.9071 58.8041C31.7732 58.8901 31.6392 58.976 31.5119 59.0686C31.5856 59.1413 31.6592 59.2205 31.7329 59.2998C31.6458 59.4451 31.5587 59.5972 31.4718 59.7492Z" fill="#1B1B1B"/>
<path fill-rule="evenodd" clip-rule="evenodd" d="M46.5444 59.2929C46.3166 58.8764 46.2697 57.7465 46.9463 57.7795C47.0535 58.2487 47.2477 58.7774 47.04 59.2333C46.8727 59.2531 46.7051 59.2729 46.5444 59.2929Z" fill="#1B1B1B"/>
<path fill-rule="evenodd" clip-rule="evenodd" d="M46.726 59.0154C46.6793 58.3612 46.6793 58.3612 46.773 58.0043C46.8601 58.2686 46.86 58.2686 46.9136 59.0154C46.8466 59.0154 46.7864 59.0154 46.726 59.0154Z" fill="#FFED00"/>
<path fill-rule="evenodd" clip-rule="evenodd" d="M45.6135 55.1626C45.58 55.0041 45.5465 54.852 45.5196 54.7C45.6 54.6867 45.6871 54.6802 45.7742 54.6735C45.7473 54.5084 45.7206 54.3498 45.6937 54.1911C45.3187 54.0656 45.1445 54.0656 45.1445 53.6888C46.022 53.7615 46.4105 54.1845 46.1091 55.103C45.9416 55.1228 45.7742 55.1428 45.6135 55.1626Z" fill="#1B1B1B"/>
<path fill-rule="evenodd" clip-rule="evenodd" d="M16.3067 52.7706C16.2531 52.2418 16.474 51.9974 16.7287 51.5347C16.474 51.2109 16.2396 51.4158 15.918 51.5413C15.8712 51.5149 15.8243 51.4951 15.7773 51.4753C16.4205 50.5566 16.8424 51.2637 17.1507 51.8982C17.298 51.9114 17.4521 51.9247 17.6062 51.9445C17.4655 52.6648 16.963 52.6581 16.3067 52.7706Z" fill="#FFED00"/>
<path fill-rule="evenodd" clip-rule="evenodd" d="M18.63 52.6846C18.563 52.6515 18.5028 52.6185 18.4424 52.592C18.4558 52.5128 18.4759 52.4401 18.4959 52.3673C18.583 52.3673 18.6701 52.3673 18.7572 52.3673C18.7572 52.4532 18.7572 52.5391 18.7572 52.625C18.7103 52.645 18.6701 52.6648 18.63 52.6846Z" fill="#E31E24"/>
<path fill-rule="evenodd" clip-rule="evenodd" d="M47.5633 52.4069C47.2552 51.9972 46.6924 52.0104 46.2236 51.7988C46.2236 51.2107 46.7393 50.9795 47.2284 50.9927C47.4762 51.4882 47.6839 51.8584 47.7509 52.4069C47.6839 52.4069 47.6236 52.4069 47.5633 52.4069Z" fill="#FFED00"/>
<path fill-rule="evenodd" clip-rule="evenodd" d="M25.6106 50.7546C25.5972 50.5563 25.5838 50.3581 25.5703 50.1665C25.6239 50.1665 25.6776 50.1665 25.7378 50.1665C25.7513 50.4308 25.7914 50.5563 25.6106 50.7546Z" fill="#FFED00"/>
<path fill-rule="evenodd" clip-rule="evenodd" d="M15.7438 50.2926C15.7237 50.2463 15.7037 50.2002 15.6836 50.1604C15.8913 49.797 15.8913 49.797 16.3937 49.3213C16.474 48.8982 16.5545 48.4752 16.6347 48.0524C16.7218 48.0524 16.8089 48.0524 16.896 48.0524C16.9965 48.5413 16.9965 48.5413 16.9899 49.5921C16.5611 49.9027 16.2531 50.1471 15.7438 50.2926Z" fill="#1B1B1B"/>
<path fill-rule="evenodd" clip-rule="evenodd" d="M18.2551 49.1952C17.5518 48.303 17.4581 47.0474 17.4581 45.9901C16.815 45.1971 15.5892 44.8006 15.7968 43.7366C15.8837 43.7366 15.9708 43.7366 16.0579 43.7366C16.3661 44.7675 17.4714 44.9328 18.0141 45.8513C18.0274 46.2082 18.0475 46.5717 18.0677 46.9351C18.8447 47.1929 18.4829 48.4418 18.4763 49.1358C18.4026 49.1556 18.329 49.1754 18.2551 49.1952Z" fill="#1B1B1B"/>
<path fill-rule="evenodd" clip-rule="evenodd" d="M14.5387 47.2655C14.2238 46.8955 13.7549 46.869 13.2861 46.75C13.2861 46.2413 13.8957 45.7719 14.2172 45.3887C15.3694 45.3887 15.7312 47.0343 14.5387 47.2655Z" fill="#1B1B1B"/>
<path fill-rule="evenodd" clip-rule="evenodd" d="M19.7492 46.8095C19.6017 46.3005 19.4879 45.8248 19.1797 45.3886C18.6706 45.2235 18.1951 44.4502 18.2218 43.9215C18.7846 43.9215 19.0726 44.5823 19.5951 44.84C19.9368 45.4018 19.9769 46.0032 19.9635 46.6575C19.8898 46.7038 19.8162 46.7566 19.7492 46.8095Z" fill="#1B1B1B"/>
<path fill-rule="evenodd" clip-rule="evenodd" d="M22.1693 44.51C22.0556 44.4506 21.9484 44.391 21.8413 44.3382C20.9838 43.3072 19.1482 40.3731 21.0374 39.5074C21.3655 39.5205 21.4861 39.5272 21.4594 39.8642C20.3875 40.8423 21.332 43.076 22.1762 43.9086C22.7254 43.8756 23.2814 43.8425 23.8374 43.8094C24.3198 43.5188 24.782 43.0627 25.3649 43.0958C25.9542 44.1598 26.2289 43.5717 27.1333 44.0143C27.1333 44.1002 27.1333 44.1862 27.1333 44.2721C26.5773 44.2721 25.7198 44.358 25.3179 43.9086C25.1036 43.9086 24.8891 43.9153 24.6748 43.9219C23.8844 44.5431 23.1407 44.3514 22.1693 44.51Z" fill="#1B1B1B"/>
<path fill-rule="evenodd" clip-rule="evenodd" d="M10.9072 43.4129C10.7599 43.2345 10.7599 43.2345 10.7197 42.9504C10.914 42.9966 11.1148 43.0429 11.3159 43.0957C11.3159 43.1817 11.3159 43.2676 11.3159 43.3535C11.1752 43.3733 11.0412 43.3931 10.9072 43.4129Z" fill="#FFED00"/>
<path fill-rule="evenodd" clip-rule="evenodd" d="M40.0271 43.2279C39.4643 42.5076 39.7791 41.1991 39.1428 40.5712C39.1562 40.3532 39.1695 40.1351 39.1897 39.9237C39.2901 39.9369 39.3974 39.9567 39.5046 39.9765C39.692 40.3928 39.8194 40.763 40.1543 41.0669C40.1744 38.4697 39.6117 39.1637 37.2002 39.1307C37.2002 39.0117 37.2002 38.8927 37.2002 38.7803C38.2384 38.2781 39.5917 38.5027 40.717 38.5095C40.8041 40.3134 40.8376 41.4701 40.1543 43.1684C40.1074 43.1882 40.0672 43.2081 40.0271 43.2279Z" fill="#1B1B1B"/>
<path fill-rule="evenodd" clip-rule="evenodd" d="M16.5801 42.1244C16.5801 42.0979 16.5801 42.0648 16.5801 42.0317C16.6405 42.0317 16.7007 42.0317 16.7677 42.0317C16.7677 42.0583 16.7677 42.0913 16.7677 42.1244C16.7075 42.1244 16.6471 42.1244 16.5801 42.1244Z" fill="#FFED00"/>
<path fill-rule="evenodd" clip-rule="evenodd" d="M15.2811 41.1196C15.127 40.8487 15.127 40.8488 15.1739 40.7892C15.2811 40.7892 15.3883 40.7957 15.5022 40.8024C15.5022 40.8553 15.5022 40.9082 15.5022 40.9675C15.4284 41.0139 15.3547 41.0667 15.2811 41.1196Z" fill="#FFED00"/>
<path fill-rule="evenodd" clip-rule="evenodd" d="M45.9818 40.7494C45.3788 39.5929 44.5818 38.6677 43.7109 37.6633C43.7109 36.89 44.508 36.0242 45.2247 35.7401C46.2363 35.6475 46.1827 35.5087 46.5846 36.4207C46.4909 37.8218 46.4909 37.8218 46.3033 38.9187C46.3033 40.2074 46.3033 40.2074 46.2028 40.6898C46.1291 40.7096 46.0555 40.7296 45.9818 40.7494Z" fill="#1B1B1B"/>
<path fill-rule="evenodd" clip-rule="evenodd" d="M45.7077 38.7274C45.3728 38.3441 45.0176 37.9278 44.6426 37.5709C44.6426 37.4519 44.6426 37.333 44.6426 37.2207C44.8972 36.9893 45.2253 36.692 45.3862 36.3947C45.5 36.3947 45.6206 36.3947 45.7412 36.3947C46.1766 37.1611 45.9087 37.8948 45.7077 38.7274Z" fill="#E31E24"/>
<path fill-rule="evenodd" clip-rule="evenodd" d="M33.7031 37.3526C33.7902 37.2137 33.8773 37.0749 33.9712 36.9362C34.4803 37.0419 34.4803 37.0419 34.8218 37.2137C34.4468 37.26 34.0715 37.3063 33.7031 37.3526Z" fill="#FFED00"/>
<path fill-rule="evenodd" clip-rule="evenodd" d="M18.5371 36.6192C18.5841 36.4804 18.631 36.3482 18.6846 36.2159C18.7717 36.2159 18.8588 36.2159 18.9459 36.2159C18.9459 36.2953 18.9459 36.3812 18.9459 36.4671C18.8052 36.5135 18.6711 36.5663 18.5371 36.6192Z" fill="#FFED00"/>
<path fill-rule="evenodd" clip-rule="evenodd" d="M26.4485 33.0375C26.3211 32.9779 26.1938 32.9185 26.0732 32.8591C26.0732 32.7665 26.0732 32.6741 26.0732 32.5814C26.482 32.7269 26.482 32.7269 26.5958 32.8657C26.5422 32.9185 26.4952 32.9779 26.4485 33.0375Z" fill="#FFED00"/>
</svg>
