<svg width="36" height="48" viewBox="0 0 36 48" fill="none" xmlns="http://www.w3.org/2000/svg">
<path fill-rule="evenodd" clip-rule="evenodd" d="M33.7491 12.2482L33.7568 15.6906C33.7568 16.0294 30.4107 17.3291 30.5089 21.1127C30.4599 24.8177 33.8359 26.0175 33.8359 26.0175C33.953 29.7552 34.348 34.2221 31.78 37.1128C28.8844 41.3311 20.7596 42.6391 17.8176 45.8719C14.8755 42.6391 6.60714 41.3311 3.71135 37.1128C1.14347 34.2221 1.53837 29.7552 1.65546 26.0175C1.65546 26.0175 5.03163 24.8177 4.9825 21.1127C5.08066 17.3291 1.7347 16.0294 1.7347 15.6906C1.73749 12.3091 1.73996 15.6293 1.74244 12.2482C11.6534 7.96706 22.2259 7.34955 33.7491 12.2482Z" fill="#E31E24"/>
<path d="M33.5972 15.6909L33.5895 12.2484L33.9092 12.2476L33.917 15.69V15.6905L33.5972 15.6909ZM33.917 15.69C33.9172 15.7837 33.8458 15.8599 33.7575 15.8601C33.6693 15.8603 33.5975 15.7845 33.5972 15.6909L33.917 15.69ZM30.669 21.115L30.3494 21.1103V21.1173L30.3501 20.7597L30.3704 20.4163L30.4089 20.0869L30.4644 19.7711L30.5357 19.4691L30.6216 19.1805L30.7205 18.9053L30.8313 18.6432L30.9526 18.3941L31.0831 18.1574L31.2215 17.9332L31.3664 17.7211L31.5166 17.5208L31.6707 17.3319L31.8274 17.1543L31.9855 16.9875L32.1436 16.8314L32.3006 16.6855L32.455 16.5495L32.6059 16.4233L32.7514 16.3063L32.8907 16.1985L33.0224 16.0995L33.1448 16.0092L33.257 15.9271L33.3573 15.8536L33.4439 15.7884L33.5152 15.7318L33.5683 15.6855L33.6001 15.653L33.6063 15.6457L33.5972 15.6905H33.917L33.8888 15.8044L33.839 15.8783L33.7806 15.9392L33.712 15.9991L33.6319 16.0627L33.5407 16.1313L33.4387 16.2063L33.3267 16.2879L33.206 16.3769L33.0775 16.4737L32.9422 16.5784L32.8013 16.6914L32.6563 16.813L32.5081 16.9434L32.358 17.083L32.2072 17.2319L32.0569 17.3904L31.9083 17.5587L31.7626 17.7372L31.621 17.9262L31.4847 18.1256L31.3549 18.3358L31.2328 18.5574L31.1192 18.7904L31.0159 19.0351L30.9235 19.2919L30.8434 19.5612L30.7768 19.8432L30.7248 20.1386L30.6887 20.4475L30.6696 20.7706L30.669 21.108V21.115ZM30.669 21.108C30.6713 21.2015 30.6018 21.2796 30.5136 21.2821C30.4255 21.2847 30.3518 21.2108 30.3494 21.1173L30.669 21.108ZM33.996 26.0118L33.6765 26.023L33.7855 26.1782L33.7727 26.1734L33.7426 26.1618L33.6946 26.1426L33.6306 26.1155L33.5513 26.0802L33.4585 26.0365L33.3533 25.9842L33.237 25.9231L33.1104 25.8528L32.9753 25.7731L32.8325 25.6838L32.6836 25.5846L32.5296 25.4752L32.3719 25.3552L32.2116 25.2246L32.0501 25.0829L31.8886 24.9299L31.7284 24.7654L31.5708 24.589L31.4171 24.4005L31.2684 24.1996L31.1261 23.986L30.9917 23.7595L30.8665 23.52L30.7515 23.2671L30.6483 23.0006L30.5582 22.7205L30.4827 22.4266L30.4227 22.1186L30.3796 21.7967L30.3548 21.4605L30.3494 21.1103L30.669 21.115L30.6741 21.4448L30.6974 21.7598L30.7377 22.0607L30.7936 22.3476L30.864 22.6212L30.9477 22.8816L31.0436 23.129L31.1503 23.3641L31.267 23.587L31.3921 23.7979L31.5247 23.9971L31.6637 24.1848L31.8078 24.3614L31.9557 24.527L32.1064 24.6817L32.2585 24.8258L32.4109 24.9595L32.5624 25.0831L32.7118 25.1964L32.8578 25.3002L32.9989 25.3943L33.1342 25.4789L33.2624 25.5545L33.3821 25.621L33.4922 25.6787L33.5914 25.728L33.6784 25.769L33.7521 25.8018L33.811 25.8268L33.854 25.8441L33.8804 25.8541L33.887 25.8566L33.996 26.0118ZM33.887 25.8566C33.9706 25.8863 34.0158 25.9825 33.9878 26.0713C33.9599 26.16 33.8691 26.2079 33.7855 26.1782L33.887 25.8566ZM31.9096 37.2124L31.6511 37.0128L31.664 36.9964L31.8906 36.7274L32.1009 36.4499L32.2952 36.1642L32.4746 35.8706L32.6394 35.5694L32.7901 35.2609L32.9277 34.9456L33.0524 34.6239L33.1648 34.2961L33.2656 33.9624L33.3552 33.6234L33.4344 33.2797L33.5035 32.9313L33.563 32.5789L33.6139 32.2228L33.6564 31.8636L33.6911 31.5014L33.7186 31.1369L33.7396 30.7704L33.7545 30.4024L33.7641 30.0333L33.7686 29.6635L33.7691 29.2935L33.7657 28.9238L33.7593 28.5546L33.7502 28.1864L33.7394 27.8196L33.7271 27.455L33.7141 27.0926L33.7009 26.7327L33.6882 26.376L33.6765 26.023L33.996 26.0118L34.0077 26.3637L34.0204 26.7197L34.0336 27.0794L34.0467 27.4425L34.0589 27.8084L34.0698 28.1767L34.0788 28.5471L34.0853 28.9189L34.0888 29.292L34.0884 29.666L34.0836 30.0401L34.0741 30.4143L34.0589 30.788L34.0375 31.1607L34.0096 31.5321L33.974 31.9018L33.9306 32.2693L33.8785 32.6342L33.8172 32.9962L33.7462 33.3547L33.6644 33.7095L33.5718 34.06L33.4674 34.4057L33.3504 34.7463L33.2206 35.0814L33.0772 35.4103L32.9196 35.7325L32.747 36.048L32.5591 36.3557L32.355 36.6555L32.1344 36.9467L31.8967 37.2289L31.9096 37.2124ZM31.8967 37.2289C31.8361 37.297 31.7349 37.3002 31.6707 37.236C31.6065 37.1718 31.6035 37.0645 31.664 36.9964L31.8967 37.2289ZM17.7028 45.9895L17.9329 45.7541H17.7028L18.0014 45.4484L18.3278 45.1547L18.6799 44.8717L19.0562 44.5985L19.4544 44.3337L19.8727 44.0765L20.3092 43.8259L20.7623 43.5807L21.2298 43.3401L21.7102 43.1032L22.2014 42.8689L22.7014 42.6364L23.2084 42.4047L23.7209 42.173L24.2364 41.9405L24.7533 41.7061L25.2697 41.4688L25.7837 41.2282L26.2934 40.9829L26.7967 40.7325L27.292 40.4758L27.7769 40.2123L28.25 39.9407L28.709 39.6605L29.1523 39.371L29.5776 39.071L29.9832 38.76L30.3673 38.4373L30.728 38.1019L31.0633 37.7533L31.3716 37.3905L31.6511 37.0128L31.9096 37.2124L31.6161 37.609L31.2941 37.9881L30.9452 38.3507L30.572 38.6978L30.1761 39.0305L29.7597 39.3498L29.3245 39.6565L28.8726 39.952L28.4057 40.2369L27.926 40.5122L27.4349 40.7792L26.9348 41.0384L26.4273 41.2909L25.9143 41.5377L25.3979 41.7796L24.8798 42.0175L24.3618 42.2523L23.846 42.485L23.3344 42.7164L22.8287 42.9474L22.331 43.1788L21.8431 43.4116L21.367 43.6464L20.9046 43.8842L20.458 44.1261L20.0288 44.3725L19.6193 44.6241L19.2313 44.8821L18.8668 45.1468L18.5276 45.4194L18.2158 45.7L17.9329 45.9895H17.7028ZM17.9329 45.9895C17.8716 46.0569 17.7703 46.0588 17.7068 45.9938C17.6434 45.9288 17.6416 45.8214 17.7028 45.7541L17.9329 45.9895ZM3.59533 37.2289L3.82799 36.9964L3.8409 37.0128L4.12064 37.3904L4.42997 37.7529L4.76724 38.1016L5.13031 38.4368L5.51769 38.7596L5.92711 39.0706L6.35673 39.3705L6.80475 39.6602L7.2691 39.9403L7.74776 40.2118L8.23877 40.4755L8.74011 40.7322L9.24984 40.9826L9.76612 41.2278L10.2867 41.4685L10.8099 41.7058L11.3336 41.9402L11.8559 42.1727L12.3747 42.4044L12.8882 42.6361L13.3945 42.8686L13.8916 43.1029L14.3775 43.3398L14.8504 43.5804L15.3083 43.8256L15.7493 44.0762L16.1714 44.3334L16.573 44.5982L16.9519 44.8714L17.3061 45.1545L17.6338 45.4483L17.9329 45.7541L17.7028 45.9895L17.4199 45.7001L17.1068 45.4196L16.7659 45.1472L16.3988 44.8824L16.0076 44.6245L15.5943 44.3728L15.1608 44.1264L14.7093 43.8846L14.2416 43.6468L13.76 43.4119L13.2661 43.1791L12.7622 42.9477L12.2502 42.7167L11.732 42.4854L11.2095 42.2526L10.6849 42.0178L10.1601 41.7799L9.63689 41.538L9.11738 41.2913L8.60357 41.0387L8.09707 40.7795L7.60025 40.5126L7.11471 40.2373L6.64261 39.9523L6.18578 39.6569L5.74626 39.3502L5.32589 39.0309L4.92668 38.6982L4.5507 38.351L4.19988 37.9884L3.87637 37.6091L3.58243 37.2124L3.59533 37.2289ZM3.58243 37.2124C3.5305 37.1368 3.5463 37.0306 3.61758 36.9756C3.68886 36.9205 3.78897 36.9372 3.8409 37.0128L3.58243 37.2124ZM1.60503 25.8566L1.70651 26.1782L1.81554 26.023L1.80381 26.376L1.79113 26.7327L1.77791 27.0926L1.7649 27.455L1.75264 27.8196L1.74178 28.1864L1.73275 28.5546L1.72629 28.9237L1.72307 29.2935L1.7234 29.6636L1.72791 30.0333L1.73748 30.4024L1.75243 30.7704L1.77339 31.1369L1.80102 31.5014L1.83564 31.8636L1.87822 32.2228L1.92897 32.5789L1.98853 32.9313L2.05776 33.2797L2.13679 33.6235L2.22646 33.9624L2.3273 34.2961L2.43966 34.6239L2.56437 34.9456L2.70188 35.2609L2.85273 35.5694L3.01744 35.8706L3.19677 36.1642L3.39116 36.4499L3.60146 36.7274L3.82799 36.9964L3.59533 37.2289L3.35762 36.9467L3.13699 36.6555L2.93293 36.3557L2.74499 36.048L2.57254 35.7325L2.41482 35.4103L2.2715 35.0814L2.14163 34.7463L2.02476 34.4057L1.92025 34.06L1.82757 33.7094L1.74597 33.3547L1.67479 32.9962L1.61352 32.6342L1.56147 32.2693L1.51805 31.9018L1.48256 31.5321L1.45451 31.1607L1.43311 30.788L1.41795 30.4143L1.40838 30.0401L1.40365 29.6659L1.40332 29.292L1.40676 28.919L1.41322 28.5471L1.42225 28.1767L1.43311 27.8084L1.44536 27.4425L1.45837 27.0794L1.4716 26.7197L1.48428 26.3637L1.496 26.0118L1.60503 25.8566ZM1.496 26.0118C1.4989 25.9182 1.57288 25.8448 1.66104 25.8479C1.7492 25.851 1.81844 25.9294 1.81554 26.023L1.496 26.0118ZM4.82304 21.108L5.14257 21.1173V21.1103L5.13719 21.4605L5.11246 21.7967L5.06946 22.1186L5.00946 22.4266L4.93367 22.7205L4.84368 23.0006L4.74057 23.267L4.62564 23.52L4.50039 23.7596L4.36589 23.986L4.22375 24.1995L4.07505 24.4005L3.92121 24.589L3.76359 24.7654L3.6035 24.9299L3.44191 25.0829L3.28042 25.2246L3.12012 25.3552L2.9624 25.4751L2.80854 25.5846L2.65941 25.6838L2.51675 25.7731L2.3816 25.8528L2.25506 25.9231L2.13872 25.9842L2.03347 26.0365L1.94068 26.0802L1.86144 26.1155L1.79737 26.1426L1.74941 26.1618L1.71931 26.1734L1.70651 26.1782L1.60503 25.8566L1.61158 25.8541L1.63803 25.8441L1.68103 25.8268L1.73995 25.8018L1.8136 25.769L1.90057 25.728L1.99982 25.6787L2.10991 25.621L2.22958 25.5545L2.35784 25.4789L2.4932 25.3943L2.63436 25.3002L2.78026 25.1965L2.9296 25.0831L3.08109 24.9595L3.23354 24.8258L3.38568 24.6817L3.53631 24.527L3.68424 24.3614L3.82842 24.1848L3.96723 23.9972L4.0999 23.7979L4.22514 23.5869L4.3418 23.3641L4.44856 23.1291L4.54436 22.8816L4.62811 22.6212L4.69853 22.3476L4.75444 22.0607L4.79466 21.7598L4.81788 21.4448L4.82304 21.115V21.108ZM4.82304 21.115C4.82185 21.0214 4.89239 20.9444 4.98055 20.9431C5.06871 20.9419 5.14138 21.0167 5.14257 21.1103L4.82304 21.115ZM1.57513 15.6904L1.89488 15.6906V15.6905L1.88585 15.6457L1.89198 15.653L1.9238 15.6855L1.97702 15.7319L2.04809 15.7884L2.13485 15.8536L2.23506 15.9272L2.34719 16.0091L2.46976 16.0995L2.60147 16.1985L2.7407 16.3063L2.88638 16.4233L3.037 16.5495L3.1915 16.6855L3.34848 16.8314L3.50652 16.9875L3.66467 17.1543L3.82132 17.3319L3.97539 17.5208L4.12559 17.7211L4.27052 17.9332L4.4089 18.1574L4.53952 18.3941L4.66069 18.6432L4.77164 18.9053L4.87045 19.1805L4.95636 19.4691L5.02764 19.7711L5.08312 20.0869L5.12161 20.4163L5.14193 20.7597L5.14257 21.1173L4.82304 21.108L4.8224 20.7706L4.80336 20.4475L4.76724 20.1386L4.7152 19.8432L4.64865 19.5612L4.56855 19.2919L4.4762 19.0351L4.37277 18.7904L4.25934 18.5574L4.1371 18.3358L4.00732 18.1256L3.871 17.9262L3.7294 17.7372L3.58372 17.5587L3.43524 17.3904L3.28482 17.2319L3.13409 17.083L2.984 16.9434L2.83574 16.813L2.6907 16.6914L2.54997 16.5784L2.41461 16.4737L2.28613 16.3769L2.16528 16.288L2.05335 16.2062L1.95143 16.1313L1.86015 16.0627L1.78005 15.999L1.71157 15.9392L1.65308 15.8783L1.6033 15.8044L1.57513 15.6905V15.6904ZM1.57513 15.6905C1.57513 15.5968 1.64674 15.5209 1.73501 15.5209C1.82328 15.5209 1.89488 15.5968 1.89488 15.6905H1.57513ZM1.68243 12.091L1.80307 12.405L1.90262 12.2481L1.90219 12.807L1.90166 13.2282L1.90123 13.5318L1.9008 13.7373L1.90057 13.8095L1.90026 13.8647L1.90004 13.9049L1.89983 13.9332L1.8995 13.9522L1.89929 13.9661L1.89875 13.9766L1.89843 13.9809V13.981L1.89832 13.9841L1.898 13.9922L1.89789 14.0085L1.89768 14.0357L1.89746 14.0757L1.89714 14.1303L1.89692 14.2021L1.89639 14.4072L1.89595 14.7106L1.89542 15.1319L1.89488 15.6906L1.57513 15.6904L1.57567 15.1315L1.5762 14.7102L1.57663 14.4065L1.57718 14.201L1.57739 14.1288L1.57772 14.0736L1.57793 14.0334L1.57815 14.0051L1.57846 13.9854L1.57879 13.9722L1.57911 13.9638L1.57954 13.9574L1.57965 13.9551L1.57975 13.9542L1.57997 13.9469L1.58008 13.9298L1.58029 13.9025L1.58051 13.8625L1.58083 13.808L1.58104 13.7364L1.58148 13.5312L1.58191 13.2277L1.58244 12.8066L1.58287 12.2479L1.68243 12.091ZM1.58287 12.2479C1.58287 12.1543 1.65458 12.0784 1.74285 12.0784C1.83112 12.0784 1.90262 12.1545 1.90262 12.2481L1.58287 12.2479ZM33.9092 12.2476L33.5895 12.2484L33.6899 12.4054L32.6157 11.9637L31.5473 11.5538L30.4843 11.1755L29.4269 10.8286L28.3747 10.5124L27.328 10.2269L26.2867 9.97145L25.2506 9.74595L24.2196 9.54984L23.1938 9.38299L22.1732 9.2449L21.1574 9.13534L20.1468 9.05398L19.1408 9.00031L18.1399 8.97412L17.1437 8.97507L16.1522 9.00286L15.1653 9.05706L14.1829 9.13735L13.2052 9.24351L12.2319 9.37504L11.2629 9.53159L10.2983 9.71307L9.33811 9.91884L8.38199 10.1488L7.43016 10.4025L6.48231 10.6795L5.53854 10.9798L4.59876 11.3028L3.66296 11.6482L2.73102 12.0157L1.80307 12.405L1.68243 12.091L2.61663 11.6992L3.5548 11.3292L4.49705 10.9814L5.44329 10.6561L6.39393 10.3537L7.34866 10.0745L8.30759 9.81892L9.27102 9.58727L10.2388 9.37981L11.2109 9.19706L12.1876 9.03924L13.1686 8.90665L14.1543 8.79964L15.1446 8.71871L16.1397 8.66408L17.1394 8.63608L18.1438 8.63513L19.1529 8.66154L20.167 8.71563L21.1858 8.79763L22.2095 8.90803L23.2383 9.04719L24.2721 9.21531L25.311 9.41291L26.3549 9.6401L27.4039 9.89741L28.4582 10.1851L29.5176 10.5034L30.5823 10.8528L31.6524 11.2337L32.728 11.6461L33.8088 12.0906L33.9092 12.2476ZM33.8088 12.0906C33.8908 12.1254 33.9305 12.2243 33.8977 12.3111C33.8649 12.398 33.7718 12.4402 33.6899 12.4054L33.8088 12.0906Z" fill="#2B2A29"/>
<path fill-rule="evenodd" clip-rule="evenodd" d="M1.73828 12.2032C4.51506 11.004 7.34968 10.1343 10.2364 9.5511L10.2325 12.9935L13.0645 12.9966C13.0788 11.7649 13.0735 10.8198 13.077 9.1088C15.8914 8.74574 18.59 8.69589 21.5224 8.99913L21.5243 12.8964L24.4719 12.897C24.4955 10.8688 24.48 10.5521 24.5048 9.42668C27.5185 9.97906 30.6041 10.8897 33.7548 12.2289L33.7499 5.54629C22.2267 0.647577 11.6542 1.26519 1.74323 5.54629C1.74161 7.76496 1.73979 9.98426 1.73828 12.2032Z" fill="#107BFF"/>
<path d="M10.396 9.55138L10.0763 9.55095L10.2661 9.71769L9.99651 9.77306L9.72719 9.83012L9.4583 9.88877L9.18972 9.94912L8.92136 10.0113L8.65333 10.0751L8.38573 10.1407L8.11823 10.2078L7.85127 10.2769L7.58453 10.3476L7.31811 10.4201L7.0519 10.4943L6.78613 10.5702L6.52067 10.648L6.25554 10.7276L5.99073 10.8089L5.72625 10.892L5.46209 10.977L5.19824 11.0638L4.93483 11.1523L4.67164 11.2428L4.40866 11.3351L4.14611 11.4292L3.88388 11.525L3.62209 11.6229L3.3605 11.7226L3.09935 11.8241L2.83841 11.9277L2.5779 12.033L2.31772 12.1401L2.05786 12.2492L1.79832 12.3604L1.67768 12.0462L1.93916 11.9345L2.20096 11.8245L2.46308 11.7165L2.72552 11.6103L2.98839 11.5062L3.25149 11.4038L3.515 11.3035L3.77874 11.2049L4.04289 11.1082L4.30739 11.0135L4.57208 10.9206L4.83721 10.8295L5.10256 10.7403L5.36834 10.6529L5.63443 10.5673L5.90086 10.4835L6.1676 10.4016L6.43466 10.3215L6.70205 10.2431L6.96977 10.1666L7.23769 10.0919L7.50605 10.0188L7.77473 9.94764L8.04362 9.87817L8.31284 9.81039L8.58237 9.74442L8.85234 9.68015L9.12242 9.61756L9.39293 9.55678L9.66375 9.49771L9.93479 9.44023L10.2063 9.38464L10.396 9.55138ZM10.2063 9.38464C10.2929 9.36714 10.3767 9.4275 10.3931 9.51945C10.4096 9.61141 10.3527 9.70019 10.2661 9.71769L10.2063 9.38464ZM10.0723 12.9934L10.0763 9.55095L10.396 9.55138L10.3921 12.9938L10.232 13.1632L10.0723 12.9934ZM10.3921 12.9938C10.3919 13.0875 10.3202 13.1633 10.232 13.1632C10.1437 13.1631 10.0722 13.0871 10.0723 12.9934L10.3921 12.9938ZM13.064 13.1663L10.232 13.1632L10.2324 12.824L13.0644 12.8271L13.2241 12.9988L13.064 13.1663ZM13.0644 12.8271C13.1527 12.8272 13.2242 12.9032 13.2241 12.9969C13.224 13.0906 13.1523 13.1664 13.064 13.1663L13.0644 12.8271ZM13.0574 8.94055L13.0959 9.2772L13.2366 9.1092L13.236 9.42134L13.2356 9.71684L13.2354 9.99759L13.2352 10.2651L13.2351 10.5208L13.2348 10.7663L13.2346 11.0031L13.2344 11.2327L13.234 11.4569L13.2334 11.6769L13.233 11.7861L13.2326 11.8946L13.2322 12.0029L13.2316 12.1111L13.231 12.2197L13.2302 12.3284L13.2295 12.4376L13.2286 12.5476L13.2276 12.6587L13.2266 12.7707L13.2254 12.8839L13.2241 12.9988L12.9043 12.9946L12.9056 12.8801L12.9068 12.7671L12.9079 12.6553L12.9089 12.5446L12.9097 12.4351L12.9105 12.3258L12.9112 12.2173L12.9119 12.1092L12.9124 12.0012L12.9128 11.8931L12.9133 11.7846L12.9137 11.6759L12.9142 11.4561L12.9147 11.2323L12.9149 11.0027L12.9151 10.7659L12.9153 10.5206L12.9154 10.2649L12.9156 9.99738L12.9159 9.71642L12.9163 9.42071L12.9168 9.10855L13.0574 8.94055ZM12.9168 9.10855C12.9169 9.0149 12.9887 8.93917 13.077 8.93928C13.1653 8.93938 13.2367 9.01554 13.2366 9.1092L12.9168 9.10855ZM21.682 8.9991L21.3623 8.99931L21.5067 9.16796L21.2335 9.1407L20.9616 9.11545L20.691 9.09222L20.4214 9.07111L20.1532 9.05192L19.886 9.03484L19.6197 9.01989L19.3544 9.00674L19.09 8.99571L18.8262 8.98668L18.5633 8.97947L18.301 8.97439L18.0393 8.97131L17.7782 8.97025L17.5175 8.97089L17.2573 8.97364L16.9973 8.97842L16.7378 8.985L16.4785 8.99369L16.2191 9.00409L15.9599 9.01649L15.7008 9.03081L15.4416 9.04694L15.1824 9.06507L14.9228 9.08511L14.663 9.10686L14.4031 9.13062L14.1426 9.15628L13.8818 9.18365L13.6204 9.21304L13.3585 9.24421L13.0959 9.2772L13.0574 8.94055L13.3219 8.90735L13.5858 8.87596L13.8493 8.84636L14.1121 8.81879L14.3745 8.79291L14.6367 8.76894L14.8985 8.74698L15.1602 8.72672L15.4218 8.70858L15.6832 8.69225L15.9444 8.67772L16.2058 8.66531L16.4673 8.6547L16.729 8.64601L16.9909 8.63943L17.253 8.63466L17.5155 8.6319L17.7784 8.63106L18.0417 8.63233L18.3058 8.63541L18.5704 8.64049L18.8355 8.6477L19.1014 8.65672L19.3681 8.66796L19.6356 8.68112L19.9041 8.69628L20.1736 8.71357L20.444 8.73277L20.7157 8.75409L20.9885 8.77753L21.2623 8.80299L21.5377 8.83046L21.682 8.9991ZM21.5377 8.83046C21.6255 8.83947 21.6898 8.92252 21.6813 9.01564C21.6728 9.10877 21.5945 9.17697 21.5067 9.16796L21.5377 8.83046ZM21.3641 12.8966L21.3623 8.99931L21.682 8.9991L21.6839 12.8963L21.524 13.0661L21.3641 12.8966ZM21.6839 12.8963C21.6839 12.99 21.6124 13.0661 21.5241 13.0661C21.4358 13.0661 21.3641 12.9902 21.3641 12.8966L21.6839 12.8963ZM24.4716 13.0667L21.524 13.0661V12.7269L24.4716 12.7275L24.6315 12.8992L24.4716 13.0667ZM24.4716 12.7275C24.5599 12.7275 24.6315 12.8034 24.6315 12.8971C24.6315 12.9907 24.5599 13.0667 24.4716 13.0667V12.7275ZM24.5317 9.2597L24.4773 9.5938L24.6643 9.43068L24.662 9.53366L24.6601 9.63242L24.6583 9.72723L24.6568 9.81877L24.6552 9.90744L24.6541 9.99346L24.6531 10.0779L24.6521 10.1606L24.6513 10.2423L24.6505 10.3234L24.6499 10.4044L24.6493 10.4857L24.6484 10.6515L24.6475 10.8243L24.6466 11.0076L24.6458 11.2054L24.6446 11.4212L24.6431 11.6587L24.6422 11.7867L24.6412 11.9216L24.64 12.0636L24.6387 12.2134L24.6372 12.3715L24.6355 12.5382L24.6336 12.7139L24.6315 12.8992L24.3117 12.895L24.3139 12.7099L24.3157 12.5344L24.3174 12.3679L24.3189 12.2102L24.3202 12.0607L24.3214 11.9186L24.3225 11.7841L24.3233 11.6563L24.3249 11.4191L24.326 11.2037L24.3269 11.006L24.3278 10.8226L24.3286 10.6496L24.3296 10.4836L24.3301 10.4018L24.3308 10.3202L24.3315 10.2387L24.3324 10.1566L24.3334 10.0734L24.3345 9.98879L24.3357 9.90192L24.3372 9.81283L24.3387 9.72087L24.3406 9.62541L24.3425 9.52624L24.3447 9.42282L24.5317 9.2597ZM24.3447 9.42282C24.3468 9.32928 24.4201 9.25514 24.5083 9.25726C24.5964 9.25938 24.6663 9.33713 24.6643 9.43068L24.3447 9.42282ZM33.5946 12.2291L33.9144 12.2289L33.6951 12.3864L33.4008 12.2625L33.107 12.1411L32.8136 12.0222L32.5205 11.9057L32.2278 11.7917L31.9355 11.6802L31.6436 11.571L31.3522 11.4644L31.0611 11.36L30.7704 11.2581L30.4801 11.1586L30.1902 11.0613L29.9007 10.9665L29.6115 10.874L29.3229 10.7839L29.0345 10.6959L28.7467 10.6104L28.4591 10.5271L28.1719 10.446L27.8853 10.3673L27.599 10.2908L27.3132 10.2165L27.0278 10.1445L26.7427 10.0747L26.4582 10.007L26.1738 9.94149L25.8901 9.87817L25.6066 9.81707L25.3237 9.758L25.0412 9.70114L24.759 9.64641L24.4773 9.5938L24.5317 9.2597L24.8156 9.31273L25.0997 9.36789L25.3843 9.42517L25.6694 9.48466L25.9548 9.54618L26.2407 9.60993L26.527 9.6759L26.8137 9.74399L27.1007 9.81442L27.3883 9.88686L27.6762 9.96175L27.9644 10.0387L28.2532 10.1181L28.5423 10.1997L28.8319 10.2835L29.1218 10.3697L29.4121 10.4582L29.7028 10.549L29.994 10.6421L30.2855 10.7376L30.5775 10.8355L30.8697 10.9358L31.1623 11.0384L31.4554 11.1434L31.7489 11.2509L32.0428 11.3607L32.3371 11.4731L32.6316 11.5877L32.9267 11.705L33.222 11.8248L33.5178 11.9469L33.814 12.0716L33.5946 12.2291ZM33.814 12.0716C33.8959 12.1064 33.9357 12.2052 33.9029 12.2921C33.8701 12.379 33.777 12.4212 33.6951 12.3864L33.814 12.0716ZM33.9095 5.54626L33.9144 12.2289L33.5946 12.2291L33.5897 5.54647L33.809 5.38897L33.9095 5.54626ZM33.5897 5.54647C33.5897 5.45282 33.6612 5.37677 33.7495 5.37677C33.8377 5.37677 33.9095 5.45261 33.9095 5.54626L33.5897 5.54647ZM1.90282 5.54647L1.58307 5.54626L1.68263 5.38939L2.61683 4.99758L3.55499 4.62752L4.49725 4.27973L5.44349 3.95443L6.39413 3.65205L7.34886 3.37288L8.30779 3.11727L9.27122 2.88562L10.239 2.67815L11.2111 2.4954L12.1878 2.33748L13.1688 2.2049L14.1545 2.09798L15.1448 2.01705L16.1399 1.96243L17.1396 1.93443L18.144 1.93347L19.1531 1.95988L20.1672 2.01387L21.186 2.09597L22.2097 2.20638L23.2385 2.34554L24.2723 2.51365L25.3112 2.71114L26.3551 2.93844L27.4041 3.19575L28.4584 3.4834L29.5178 3.8017L30.5825 4.15119L31.6526 4.53196L32.7282 4.94445L33.809 5.38897L33.6901 5.70377L32.6159 5.262L31.5475 4.85207L30.4845 4.47384L29.4271 4.1269L28.3749 3.81072L27.3282 3.52519L26.2869 3.26979L25.2508 3.04419L24.2198 2.84818L23.194 2.68134L22.1734 2.54324L21.1576 2.43368L20.147 2.35222L19.141 2.29866L18.1401 2.27245L17.1439 2.27341L16.1524 2.3012L15.1655 2.3554L14.1831 2.43569L13.2054 2.54176L12.2321 2.67327L11.2631 2.82993L10.2985 3.01141L9.33831 3.21718L8.38218 3.44712L7.43036 3.70084L6.48251 3.97787L5.53874 4.27814L4.59896 4.60111L3.66316 4.94657L2.73122 5.31408L1.80326 5.70334L1.90282 5.54647ZM1.80326 5.70334C1.72155 5.73866 1.62813 5.69698 1.5949 5.61033C1.56168 5.52367 1.60092 5.42471 1.68263 5.38939L1.80326 5.70334ZM1.67768 12.0462L1.79832 12.3604L1.57812 12.2032L1.57845 11.7871L1.57866 11.3711L1.57899 10.955L1.57931 10.539L1.57964 10.1229L1.57995 9.70677L1.58028 9.29067L1.5806 8.87458L1.58092 8.45859L1.58124 8.0425L1.58157 7.6264L1.58178 7.21031L1.5821 6.79433L1.58243 6.37833L1.58276 5.96225L1.58307 5.54626L1.90282 5.54647L1.9025 5.96245L1.90218 6.37855L1.90185 6.79454L1.90153 7.21052L1.90132 7.62662L1.90099 8.04271L1.90067 8.4588L1.90034 8.87479L1.90003 9.29088L1.8997 9.70697L1.89938 10.1231L1.89906 10.5392L1.89874 10.9553L1.89841 11.3713L1.8982 11.7873L1.89788 12.2034L1.67768 12.0462ZM1.89788 12.2034C1.89788 12.2971 1.82616 12.3729 1.7379 12.3729C1.64963 12.3729 1.57812 12.2969 1.57812 12.2032L1.89788 12.2034Z" fill="#2B2A29"/>
<path fill-rule="evenodd" clip-rule="evenodd" d="M34.7152 4.43551L34.6665 16.714C34.6665 16.714 31.5067 18.2104 31.5067 20.9388C31.5067 24.1999 35.1474 25.2416 35.1474 25.2416C35.2714 29.2042 35.6103 34.8889 32.8879 37.9536C29.8176 42.4259 20.9436 43.7926 17.8247 47.2203C14.7056 43.7926 5.58166 42.4758 2.51137 38.0035C-0.211109 34.9388 0.12799 29.2541 0.251847 25.2916C0.251847 25.2916 3.8925 24.2498 3.8925 20.9888C3.8925 18.2603 0.732869 16.764 0.732869 16.764C0.716419 12.6709 0.700184 8.57819 0.684057 4.48546C11.6074 -0.453667 22.9579 -0.455154 34.7369 4.48026L34.7152 4.43551ZM33.7489 5.54654L33.7567 15.6906C33.7567 16.0294 30.4106 17.3291 30.5088 21.1127C30.4598 24.8177 33.8358 26.0175 33.8358 26.0175C33.9529 29.7552 34.3479 34.2221 31.7799 37.1128C28.8842 41.3311 20.7595 42.6391 17.8175 45.8719C14.8754 42.6391 6.60702 41.3311 3.71123 37.1128C1.14335 34.2221 1.53826 29.7552 1.65534 26.0175C1.65534 26.0175 5.03151 24.8177 4.98238 21.1127C5.08054 17.3291 1.73458 16.0294 1.73458 15.6906C1.73738 12.3091 1.73985 8.92768 1.74232 5.54654C11.6533 1.26544 22.2258 0.647819 33.7489 5.54654Z" fill="#FFED00"/>
<path d="M34.4973 16.7132L34.546 4.43465L34.8851 4.43614L34.8364 16.7146L34.736 16.8781L34.4973 16.7132ZM34.8364 16.7146C34.8361 16.8139 34.7596 16.894 34.6661 16.8937C34.5726 16.8934 34.497 16.8124 34.4973 16.7132L34.8364 16.7146ZM31.6767 20.9387H31.3376L31.3471 20.6729L31.375 20.4146L31.4199 20.1641L31.4807 19.9217L31.5558 19.6875L31.6442 19.4616L31.7445 19.2442L31.8554 19.0351L31.9756 18.8346L32.1039 18.6425L32.2393 18.4588L32.3801 18.2836L32.5255 18.1166L32.6743 17.9583L32.825 17.8082L32.9768 17.6664L33.1284 17.533L33.2787 17.4081L33.4266 17.2915L33.5706 17.1833L33.71 17.0835L33.8434 16.9922L33.9697 16.9094L34.0878 16.835L34.1965 16.7691L34.2946 16.7119L34.381 16.6632L34.4545 16.623L34.5143 16.5916L34.5585 16.5691L34.5863 16.5552L34.5977 16.5497L34.736 16.8781L34.7293 16.8813L34.7043 16.8937L34.6633 16.9147L34.6076 16.944L34.5382 16.9818L34.4559 17.0282L34.3623 17.0828L34.2585 17.1456L34.1456 17.2168L34.0247 17.2962L33.8968 17.3837L33.7635 17.4791L33.6257 17.5826L33.4845 17.6938L33.3413 17.813L33.197 17.9398L33.0532 18.0742L32.9104 18.2162L32.7702 18.3657L32.6337 18.5222L32.5018 18.6862L32.3759 18.8572L32.257 19.035L32.1463 19.2199L32.0447 19.4113L31.9532 19.6097L31.873 19.8144L31.8051 20.0259L31.7504 20.2439L31.7102 20.4685L31.6852 20.7L31.6767 20.9387ZM31.6767 20.9387C31.6767 21.038 31.6007 21.1185 31.5071 21.1185C31.4136 21.1185 31.3376 21.038 31.3376 20.9387H31.6767ZM35.3172 25.2356L34.9783 25.2475L35.1036 25.4151L35.0904 25.4112L35.0581 25.4013L35.0068 25.3846L34.938 25.3611L34.853 25.3305L34.7532 25.2926L34.6399 25.2472L34.5144 25.1941L34.3781 25.1329L34.2322 25.0637L34.0781 24.9857L33.9172 24.8993L33.7506 24.8037L33.5799 24.6989L33.4061 24.5848L33.2309 24.4608L33.0553 24.3268L32.8809 24.1826L32.7089 24.0276L32.5407 23.8619L32.3777 23.685L32.2213 23.4968L32.0729 23.2968L31.9338 23.0848L31.8057 22.8606L31.69 22.6239L31.5882 22.3748L31.5016 22.113L31.4319 21.8384L31.3804 21.5511L31.3485 21.2511L31.3376 20.9387H31.6767L31.6866 21.2246L31.7156 21.4976L31.7624 21.7582L31.8255 22.0068L31.9039 22.2437L31.9962 22.4695L32.1013 22.6845L32.2181 22.8888L32.3453 23.0828L32.4817 23.2666L32.6262 23.4404L32.7774 23.6044L32.934 23.7588L33.0949 23.9036L33.2587 24.039L33.424 24.1653L33.5896 24.2823L33.7541 24.3905L33.9162 24.49L34.0746 24.5806L34.2278 24.663L34.3745 24.7372L34.5135 24.8033L34.6434 24.8615L34.7629 24.9121L34.8704 24.9551L34.9648 24.9909L35.0447 25.0197L35.1087 25.0416L35.1557 25.0568L35.1843 25.0657L35.192 25.0679L35.3172 25.2356ZM35.192 25.0679C35.2823 25.0938 35.3357 25.1925 35.3114 25.2884C35.2871 25.3843 35.1939 25.441 35.1036 25.4151L35.192 25.0679ZM33.0252 38.0594L32.7513 37.8477L32.7649 37.8302L33.0045 37.5435L33.2275 37.2422L33.4342 36.9273L33.6257 36.5992L33.8021 36.2587L33.9644 35.9067L34.1128 35.5436L34.2479 35.1705L34.3702 34.7879L34.4804 34.3967L34.579 33.9978L34.6664 33.5918L34.7434 33.1797L34.8105 32.7623L34.8681 32.3401L34.9169 31.9144L34.9576 31.4857L34.9905 31.0547L35.0164 30.6225L35.0359 30.1898L35.0493 29.7572L35.0576 29.3259L35.0609 28.8964L35.0604 28.4696L35.0563 28.0463L35.0492 27.6274L35.0397 27.2133L35.0285 26.8052L35.0162 26.4039L35.0033 26.0099L34.9905 25.6242L34.9783 25.2475L35.3172 25.2356L35.3294 25.6117L35.3422 25.9973L35.3551 26.3918L35.3674 26.7942L35.3786 27.2037L35.3881 27.6197L35.3952 28.0412L35.3995 28.4675L35.4 28.8977L35.3965 29.331L35.3882 29.7668L35.3745 30.2042L35.3548 30.6425L35.3287 31.0806L35.2952 31.5181L35.2539 31.9541L35.2042 32.3876L35.1453 32.8183L35.0769 33.2449L34.998 33.6669L34.9082 34.0835L34.8068 34.4939L34.6932 34.8972L34.5668 35.2927L34.4266 35.6796L34.2723 36.0571L34.1032 36.4244L33.9186 36.7805L33.7176 37.1248L33.4999 37.4563L33.2647 37.7738L33.0116 38.0769L33.0252 38.0594ZM33.0116 38.0769C32.9474 38.1491 32.8401 38.1525 32.772 38.0844C32.704 38.0163 32.7007 37.9024 32.7649 37.8302L33.0116 38.0769ZM17.7031 47.345L17.947 47.0954H17.7031L18.0205 46.7711L18.3691 46.4595L18.7462 46.1598L19.1499 45.8703L19.5781 45.5901L20.0287 45.3178L20.4995 45.0528L20.9885 44.7934L21.4939 44.5391L22.0133 44.2887L22.5447 44.0412L23.0862 43.7955L23.6353 43.5508L24.1904 43.3061L24.7491 43.0604L25.3093 42.8128L25.8691 42.5621L26.4261 42.3079L26.9783 42.0489L27.5236 41.7842L28.0598 41.513L28.5848 41.2342L29.0964 40.9471L29.5926 40.6508L30.0712 40.3444L30.5299 40.0271L30.9669 39.6979L31.3798 39.3562L31.7668 39.0011L32.1255 38.6319L32.4543 38.2477L32.7513 37.8477L33.0252 38.0594L32.7132 38.48L32.3692 38.882L31.9958 39.2663L31.5951 39.6341L31.1692 39.9864L30.7206 40.3243L30.2514 40.6491L29.7633 40.9615L29.2588 41.2627L28.7398 41.5539L28.2086 41.836L27.667 42.11L27.1174 42.3768L26.5616 42.6376L26.0019 42.8931L25.4405 43.1443L24.8792 43.3924L24.3203 43.6383L23.7661 43.8825L23.2184 44.1266L22.6795 44.3711L22.1515 44.617L21.6366 44.8653L21.1369 45.1167L20.6547 45.3724L20.1919 45.633L19.7509 45.8994L19.3338 46.1724L18.9428 46.4527L18.5798 46.7412L18.2474 47.0384L17.947 47.345H17.7031ZM17.947 47.345C17.882 47.4164 17.7746 47.4185 17.7073 47.3496C17.64 47.2807 17.6382 47.1667 17.7031 47.0954L17.947 47.345ZM2.38844 38.1267L2.63507 37.88L2.64873 37.8975L2.94611 38.2971L3.27671 38.6806L3.63872 39.0491L4.02986 39.4031L4.44831 39.7436L4.8918 40.0714L5.3581 40.3872L5.84491 40.692L6.35023 40.9865L6.87168 41.2717L7.40689 41.5484L7.95392 41.8175L8.51031 42.0801L9.0739 42.3368L9.64265 42.5888L10.214 42.837L10.786 43.0823L11.3562 43.3257L11.9228 43.5681L12.4832 43.8105L13.0354 44.0541L13.5773 44.2995L14.1064 44.548L14.6209 44.8005L15.1186 45.0581L15.597 45.3216L16.0544 45.5926L16.4883 45.8717L16.8968 46.1604L17.2776 46.4596L17.6284 46.7709L17.947 47.0954L17.7031 47.345L17.4024 47.0388L17.0679 46.7424L16.7019 46.4546L16.3066 46.1752L15.8839 45.9034L15.4364 45.6383L14.9661 45.3792L14.4755 45.1253L13.9667 44.8757L13.442 44.6293L12.9038 44.3854L12.3542 44.1432L11.7953 43.9013L11.2296 43.6592L10.6591 43.4158L10.0863 43.17L9.51298 42.9212L8.94166 42.6679L8.37462 42.4095L7.81372 42.145L7.26131 41.8731L6.71965 41.5932L6.1909 41.3039L5.67719 41.0045L5.1807 40.6937L4.70365 40.3705L4.24832 40.034L3.81676 39.6827L3.41122 39.3157L3.03417 38.932L2.68786 38.53L2.37478 38.1092L2.38844 38.1267ZM2.37478 38.1092C2.31973 38.029 2.3364 37.9165 2.41198 37.8581C2.48756 37.7996 2.59368 37.8173 2.64873 37.8975L2.37478 38.1092ZM0.208036 25.1178L0.296421 25.4651L0.421669 25.2974L0.409521 25.6742L0.396733 26.0598L0.383829 26.4538L0.371565 26.8552L0.360383 27.2632L0.350923 27.6772L0.343826 28.0962L0.339742 28.5195L0.339101 28.9463L0.342545 29.3758L0.350713 29.8072L0.364258 30.2396L0.383608 30.6724L0.409626 31.1046L0.442426 31.5355L0.483059 31.9642L0.531976 32.3901L0.589503 32.8121L0.656594 33.2297L0.733566 33.6418L0.820984 34.0477L0.919574 34.4466L1.02978 34.8377L1.15223 35.2203L1.28727 35.5936L1.43564 35.9566L1.59778 36.3087L1.77442 36.6491L1.96579 36.9772L2.17255 37.2921L2.39553 37.5933L2.63507 37.88L2.38844 38.1267L2.13535 37.8237L1.9001 37.5061L1.68238 37.1747L1.48155 36.8305L1.29695 36.4743L1.12772 36.107L0.973332 35.7295L0.833342 35.3425L0.706803 34.947L0.593157 34.5437L0.491774 34.1334L0.401993 33.7169L0.323079 33.2948L0.254706 32.8681L0.195888 32.4376L0.14611 32.0039L0.104827 31.568L0.0713858 31.1305L0.0451582 30.6923L0.0255872 30.254L0.0118224 29.8167L0.00365381 29.3809L0 28.9475L0.000640467 28.5173L0.00494525 28.0911L0.0120429 27.6696L0.0215029 27.2537L0.0326848 26.8442L0.0449377 26.4418L0.0578415 26.0473L0.0706404 25.6616L0.0827882 25.2855L0.208036 25.1178ZM0.0827882 25.2855C0.0857987 25.1864 0.164277 25.1086 0.257814 25.1118C0.351352 25.115 0.424679 25.1983 0.421669 25.2974L0.0827882 25.2855ZM3.72333 20.9886H4.06243L4.05147 21.3011L4.01965 21.6011L3.96815 21.8884L3.89837 22.163L3.81182 22.4247L3.71001 22.6739L3.59431 22.9105L3.46616 23.1348L3.32714 23.3468L3.17867 23.5467L3.02234 23.735L2.85935 23.9119L2.69109 24.0776L2.51906 24.2325L2.34468 24.3768L2.1691 24.5107L1.99386 24.6347L1.82011 24.7488L1.64938 24.8536L1.48284 24.9492L1.32189 25.0356L1.16782 25.1136L1.02192 25.1829L0.885598 25.2441L0.760129 25.2972L0.646809 25.3426L0.547032 25.3805L0.461987 25.411L0.393184 25.4346L0.341894 25.4512L0.30964 25.4612L0.296421 25.4651L0.208036 25.1178L0.215669 25.1156L0.24427 25.1067L0.291255 25.0915L0.355333 25.0697L0.435213 25.0408L0.529614 25.0051L0.637128 24.962L0.756581 24.9114L0.886459 24.8532L1.02547 24.7871L1.17223 24.713L1.32544 24.6306L1.4838 24.5399L1.64594 24.4404L1.81043 24.3322L1.97601 24.2152L2.14126 24.0889L2.30511 23.9536L2.46596 23.8088L2.6226 23.6544L2.77377 23.4904L2.91826 23.3165L3.0547 23.1327L3.18189 22.9388L3.29865 22.7345L3.4038 22.5195L3.49615 22.2937L3.57453 22.0567L3.63764 21.8082L3.68442 21.5476L3.71344 21.2746L3.72333 20.9886ZM3.72333 20.9886C3.72333 20.8894 3.79935 20.8089 3.89288 20.8089C3.98642 20.8089 4.06243 20.8894 4.06243 20.9886H3.72333ZM0.563695 16.7646L0.902796 16.7631L0.802379 16.5997L0.813782 16.6052L0.841626 16.6191L0.885808 16.6416L0.945592 16.673L1.01913 16.7132L1.10547 16.7618L1.20363 16.819L1.31232 16.885L1.43037 16.9593L1.5567 17.0422L1.69002 17.1335L1.82947 17.2333L1.97353 17.3415L2.12126 17.458L2.27157 17.583L2.42316 17.7163L2.57497 17.8581L2.72582 18.0082L2.87451 18.1667L3.01987 18.3334L3.16082 18.5087L3.29607 18.6924L3.42444 18.8845L3.54465 19.0851L3.65549 19.2941L3.7558 19.5116L3.84418 19.7375L3.91933 19.9717L3.98008 20.214L4.02502 20.4646L4.05287 20.7228L4.06243 20.9886H3.72333L3.71484 20.75L3.68979 20.5184L3.64958 20.2938L3.59486 20.0758L3.52701 19.8643L3.44681 19.6596L3.35531 19.4613L3.25371 19.2699L3.14297 19.085L3.02405 18.9071L2.89827 18.7361L2.76635 18.5723L2.6298 18.4155L2.48972 18.2662L2.34704 18.1241L2.20298 17.9898L2.05868 17.863L1.91548 17.7438L1.77442 17.6325L1.63658 17.529L1.50316 17.4337L1.37543 17.3462L1.25448 17.2667L1.14159 17.1955L1.03784 17.1327L0.944196 17.0781L0.861943 17.0318L0.792489 16.9939L0.7368 16.9646L0.695831 16.9436L0.670779 16.9312L0.664112 16.928L0.563695 16.7646ZM0.664112 16.928C0.578638 16.8876 0.540258 16.7811 0.578426 16.6906C0.616593 16.6 0.716905 16.5593 0.802379 16.5997L0.664112 16.928ZM0.617988 4.31989L0.750879 4.65081L0.853984 4.48461L0.856997 5.25199L0.860011 6.01937L0.863014 6.78674L0.866132 7.55413L0.869145 8.32151L0.872159 9.089L0.875277 9.85637L0.87829 10.6238L0.881293 11.3911L0.884412 12.1585L0.887425 12.926L0.890543 13.6934L0.893557 14.4608L0.896675 15.2282L0.899678 15.9956L0.902796 16.7631L0.563695 16.7646L0.560577 15.9971L0.557574 15.2297L0.554456 14.4622L0.551442 13.6949L0.548324 12.9275L0.54531 12.16L0.542192 11.3926L0.539189 10.6252L0.536176 9.85786L0.533058 9.09048L0.530044 8.323L0.527031 7.55561L0.523913 6.78824L0.52091 6.02085L0.517896 5.25347L0.514883 4.48609L0.617988 4.31989ZM0.514883 4.48609C0.514561 4.38681 0.590145 4.30589 0.683683 4.30557C0.77722 4.30525 0.853662 4.38533 0.853984 4.48461L0.514883 4.48609ZM34.7995 4.31289L34.675 4.64742L33.5753 4.20046L32.4782 3.78256L31.3836 3.39331L30.2917 3.033L29.2023 2.70166L28.1156 2.39916L27.0315 2.12541L25.9499 1.8805L24.871 1.66455L23.7946 1.47735L22.7208 1.31899L21.6495 1.18949L20.5809 1.08872L19.5147 1.01692L18.4511 0.973855L17.39 0.95954L16.3316 0.974176L15.2754 1.01755L14.222 1.08968L13.1711 1.19065L12.1225 1.32048L11.0764 1.47915L10.0328 1.66657L8.99176 1.88272L7.95316 2.12784L6.91694 2.40181L5.8833 2.70441L4.85192 3.03608L3.823 3.39638L2.79656 3.78564L1.77259 4.20385L0.750879 4.65081L0.617988 4.31989L1.64702 3.86975L2.67851 3.44857L3.71269 3.05634L4.74956 2.69328L5.7889 2.35906L6.83093 2.05392L7.87533 1.77783L8.92231 1.5308L9.97197 1.31273L11.0241 1.12383L12.0788 0.963885L13.136 0.833003L14.1958 0.731179L15.258 0.65842L16.3227 0.614616L17.39 0.599976L18.4597 0.614295L19.5319 0.657783L20.6067 0.730226L21.6837 0.831625L22.7634 0.962192L23.8453 1.12182L24.9299 1.31029L26.0168 1.52794L27.1061 1.77454L28.1979 2.0502L29.2922 2.35482L30.3889 2.6885L31.4879 3.05114L32.5894 3.44273L33.6933 3.86338L34.7995 4.31289ZM33.5875 15.6906L33.5798 5.54653L33.9189 5.54632L33.9266 15.6904V15.6905L33.5875 15.6906ZM33.9266 15.6904C33.9266 15.7896 33.8507 15.8703 33.7572 15.8703C33.6636 15.8703 33.5875 15.7899 33.5875 15.6906L33.9266 15.6904ZM30.6786 21.1152L30.3397 21.1101V21.1176L30.3404 20.7594L30.3607 20.4154L30.3993 20.0853L30.4549 19.7689L30.5264 19.4663L30.6124 19.1772L30.7115 18.9014L30.8226 18.6388L30.9441 18.3891L31.0748 18.152L31.2135 17.9274L31.3586 17.7149L31.509 17.5143L31.6634 17.325L31.8204 17.1472L31.9788 16.9802L32.1371 16.8238L32.2942 16.6777L32.4489 16.5415L32.5998 16.4151L32.7456 16.2981L32.885 16.1901L33.0167 16.0911L33.1393 16.0007L33.2514 15.9187L33.3517 15.8451L33.4382 15.7801L33.5091 15.7238L33.5618 15.6779L33.5928 15.6462L33.5977 15.6409L33.5875 15.6905H33.9266L33.8973 15.8092L33.8463 15.8851L33.787 15.9468L33.7179 16.0072L33.6375 16.0709L33.5461 16.1398L33.4441 16.2146L33.3322 16.2964L33.2115 16.3853L33.0831 16.482L32.9479 16.5866L32.8073 16.6996L32.6623 16.8209L32.5144 16.9512L32.3644 17.0906L32.2138 17.2392L32.0638 17.3975L31.9155 17.5656L31.7701 17.7438L31.6287 17.9324L31.4926 18.1315L31.3632 18.3412L31.2412 18.5624L31.1279 18.7949L31.0248 19.0391L30.9326 19.2953L30.8526 19.5641L30.7862 19.8455L30.7343 20.1402L30.6983 20.4485L30.6793 20.7709L30.6786 21.1076V21.1152ZM30.6786 21.1076C30.6811 21.2069 30.6073 21.2898 30.5138 21.2924C30.4203 21.2951 30.3422 21.2169 30.3397 21.1176L30.6786 21.1076ZM34.0056 26.0114L33.6668 26.0233L33.7823 26.1878L33.7693 26.1831L33.7392 26.1715L33.6911 26.1522L33.6269 26.1249L33.5475 26.0896L33.4545 26.0458L33.3491 25.9934L33.2325 25.9322L33.1059 25.8618L32.9704 25.782L32.8275 25.6926L32.6783 25.5932L32.5241 25.4836L32.366 25.3635L32.2055 25.2326L32.0437 25.0907L31.882 24.9374L31.7215 24.7726L31.5636 24.5959L31.4095 24.407L31.2605 24.2057L31.118 23.9917L30.9834 23.7648L30.8578 23.5246L30.7427 23.2713L30.6393 23.0042L30.5489 22.7234L30.4733 22.4289L30.4132 22.1205L30.3699 21.7978L30.3451 21.4611L30.3397 21.1101L30.6786 21.1152L30.6838 21.4443L30.7069 21.7588L30.7471 22.0589L30.8029 22.3453L30.8732 22.6182L30.9566 22.878L31.0523 23.1249L31.1589 23.3594L31.2752 23.5817L31.4001 23.7923L31.5325 23.991L31.6712 24.1783L31.8149 24.3545L31.9626 24.5198L32.113 24.6742L32.2648 24.8181L32.4169 24.9515L32.5682 25.0748L32.7172 25.1881L32.863 25.2916L33.0038 25.3855L33.139 25.47L33.2669 25.5455L33.3865 25.6119L33.4963 25.6695L33.5954 25.7187L33.6821 25.7595L33.7557 25.7923L33.8145 25.8172L33.8573 25.8344L33.8837 25.8445L33.8901 25.8469L34.0056 26.0114ZM33.8901 25.8469C33.9788 25.8784 34.0266 25.9805 33.9969 26.0746C33.9673 26.1686 33.871 26.2193 33.7823 26.1878L33.8901 25.8469ZM31.9174 37.2185L31.6432 37.0068L31.657 36.9893L31.8832 36.7208L32.0931 36.4437L32.2872 36.1585L32.4663 35.8652L32.6309 35.5644L32.7814 35.2565L32.9188 34.9416L33.0433 34.6202L33.1556 34.2927L33.2563 33.9594L33.3458 33.6209L33.425 33.2773L33.4939 32.9294L33.5535 32.5772L33.6043 32.2214L33.6467 31.8624L33.6815 31.5005L33.7089 31.1362L33.73 30.7698L33.7448 30.402L33.7544 30.0331L33.7589 29.6635L33.7593 29.2935L33.756 28.9239L33.7495 28.5549L33.7405 28.1867L33.7297 27.8201L33.7174 27.4553L33.7045 27.0929L33.6913 26.7331L33.6785 26.3764L33.6668 26.0233L34.0056 26.0114L34.0174 26.3633L34.0299 26.7193L34.0432 27.0791L34.0563 27.4422L34.0685 27.808L34.0794 28.1763L34.0884 28.5468L34.0949 28.9188L34.0984 29.292L34.098 29.666L34.0933 30.0403L34.0837 30.4147L34.0684 30.7885L34.0471 31.1614L34.0191 31.533L33.9836 31.9029L33.9402 32.2707L33.8879 32.6359L33.8267 32.9982L33.7555 33.3571L33.6737 33.7121L33.581 34.0629L33.4765 34.4091L33.3594 34.75L33.2295 35.0854L33.0859 35.4147L32.928 35.7375L32.7553 36.0534L32.567 36.3615L32.3627 36.6617L32.1417 36.9533L31.9036 37.236L31.9174 37.2185ZM31.9036 37.236C31.8394 37.3082 31.7321 37.3116 31.6641 37.2435C31.596 37.1754 31.5928 37.0615 31.657 36.9893L31.9036 37.236ZM17.6959 45.9966L17.9398 45.747H17.6959L17.9949 45.4407L18.3217 45.1467L18.6743 44.8633L19.0508 44.5899L19.4493 44.3249L19.8679 44.0676L20.3047 43.8168L20.7579 43.5715L21.2257 43.3309L21.7061 43.0939L22.1973 42.8596L22.6975 42.6269L23.2046 42.3953L23.7169 42.1636L24.2326 41.9311L24.7495 41.6967L25.2658 41.4595L25.7797 41.2188L26.2893 40.9737L26.7925 40.7233L27.2875 40.4667L27.7724 40.2032L28.2452 39.9318L28.704 39.6517L29.147 39.3623L29.5721 39.0626L29.9774 38.7519L30.3611 38.4294L30.7213 38.0944L31.0563 37.7462L31.3641 37.384L31.6432 37.0068L31.9174 37.2185L31.6235 37.6156L31.301 37.9952L30.9518 38.3583L30.5781 38.7056L30.1819 39.0387L29.7652 39.3581L29.3297 39.6652L28.8775 39.9608L28.4104 40.2458L27.9304 40.5214L27.4393 40.7883L26.9389 41.0476L26.4312 41.3002L25.9182 41.547L25.4017 41.7889L24.8835 42.0269L24.3655 42.2618L23.8498 42.4945L23.3382 42.7258L22.8325 42.9568L22.3349 43.1881L21.8472 43.421L21.3711 43.6557L20.9089 43.8935L20.4624 44.1352L20.0335 44.3814L19.6243 44.633L19.2366 44.8907L18.8723 45.1552L18.5337 45.4274L18.2222 45.7076L17.9398 45.9966H17.6959ZM17.9398 45.9966C17.8748 46.068 17.7674 46.0701 17.7001 46.0012C17.6328 45.9323 17.631 45.8183 17.6959 45.747L17.9398 45.9966ZM3.5883 37.236L3.83494 36.9893L3.84859 37.0068L4.12802 37.3837L4.4369 37.7458L4.77375 38.094L5.1365 38.4289L5.52345 38.7514L5.93254 39.0621L6.36195 39.3618L6.80965 39.6513L7.27368 39.9314L7.75222 40.2027L8.24303 40.4663L8.74426 40.7229L9.25377 40.9733L9.76995 41.2184L10.2905 41.4592L10.8136 41.6963L11.3373 41.9306L11.8596 42.1632L12.3785 42.395L12.8921 42.6266L13.3984 42.8591L13.8955 43.0935L14.3816 43.3305L14.8546 43.5711L15.3126 43.8165L15.754 44.0672L16.1763 44.3246L16.5782 44.5895L16.9574 44.863L17.3121 45.1464L17.6403 45.4406L17.9398 45.747L17.6959 45.9966L17.4133 45.7077L17.1007 45.4277L16.7602 45.1555L16.3935 44.8911L16.0026 44.6333L15.5895 44.3818L15.1563 44.1355L14.705 43.8938L14.2375 43.6561L13.7559 43.4213L13.2622 43.1886L12.7583 42.9571L12.2464 42.7261L11.7282 42.4948L11.2057 42.2622L10.6811 42.0273L10.1561 41.7893L9.63297 41.5474L9.11335 41.3006L8.59933 41.0481L8.09272 40.7887L7.59568 40.5218L7.11004 40.2462L6.63762 39.9612L6.18047 39.6656L5.74074 39.3587L5.32003 39.0391L4.9204 38.7062L4.5441 38.3586L4.19284 37.9955L3.8689 37.6158L3.57464 37.2185L3.5883 37.236ZM3.57464 37.2185C3.51959 37.1383 3.53626 37.0258 3.61185 36.9673C3.68743 36.9089 3.79354 36.9266 3.84859 37.0068L3.57464 37.2185ZM1.60186 25.8469L1.70959 26.1878L1.82516 26.0233L1.81345 26.3764L1.80065 26.7331L1.78743 27.0929L1.77452 27.4553L1.76227 27.8201L1.75142 28.1867L1.74238 28.5549L1.73593 28.9239L1.7327 29.2935L1.73303 29.6635L1.73755 30.0331L1.74711 30.402L1.76195 30.7698L1.78302 31.1362L1.81055 31.5005L1.84527 31.8624L1.88774 32.2214L1.93848 32.5773L1.99794 32.9294L2.06707 33.2773L2.1461 33.6209L2.23566 33.9594L2.33639 34.2927L2.44864 34.6202L2.57325 34.9416L2.71055 35.2565L2.86118 35.5644L3.02567 35.8653L3.20469 36.1585L3.39885 36.4437L3.60873 36.7208L3.83494 36.9893L3.5883 37.236L3.35026 36.9533L3.12921 36.6617L2.92493 36.3615L2.73667 36.0533L2.564 35.7375L2.40607 35.4147L2.26254 35.0854L2.13255 34.75L2.01557 34.4091L1.91096 34.0629L1.81818 33.7121L1.73657 33.3571L1.66529 32.9982L1.6039 32.6358L1.55186 32.2707L1.50832 31.9029L1.47295 31.533L1.44478 31.1614L1.4235 30.7885L1.40822 30.4147L1.39865 30.0403L1.39393 29.666L1.3936 29.292L1.39705 28.9188L1.40349 28.5468L1.41252 28.1763L1.42338 27.808L1.43564 27.4422L1.44876 27.0791L1.46198 26.7193L1.47457 26.3633L1.48628 26.0114L1.60186 25.8469ZM1.48628 26.0114C1.48929 25.9123 1.56777 25.8345 1.66131 25.8377C1.75485 25.8409 1.82817 25.9242 1.82516 26.0233L1.48628 26.0114ZM4.81332 21.1076L5.1522 21.1176V21.1101L5.14683 21.4611L5.12199 21.7978L5.07887 22.1205L5.01877 22.4289L4.94287 22.7235L4.85266 23.0042L4.74935 23.2713L4.6342 23.5246L4.50862 23.7648L4.37391 23.9918L4.23145 24.2057L4.08254 24.407L3.92836 24.5959L3.77043 24.7726L3.61001 24.9374L3.4482 25.0907L3.28639 25.2326L3.12588 25.3635L2.96794 25.4836L2.81376 25.5932L2.66443 25.6926L2.52154 25.782L2.38607 25.8618L2.25942 25.9322L2.14287 25.9934L2.0374 26.0458L1.9444 26.0896L1.86505 26.1249L1.80087 26.1522L1.7527 26.1715L1.72259 26.1831L1.70959 26.1878L1.60186 25.8469L1.6082 25.8445L1.63465 25.8344L1.67744 25.8172L1.73625 25.7923L1.80979 25.7595L1.89656 25.7187L1.99558 25.6695L2.10546 25.6119L2.22501 25.5455L2.35295 25.47L2.4881 25.3855L2.62905 25.2916L2.77463 25.1881L2.92375 25.0748L3.07502 24.9515L3.22716 24.8181L3.37907 24.6742L3.52937 24.5198L3.677 24.3545L3.82085 24.1783L3.95943 23.991L4.09179 23.7921L4.21683 23.5817L4.33316 23.3594L4.43971 23.1249L4.53528 22.878L4.61882 22.6181L4.68913 22.3453L4.74494 22.0589L4.78503 21.7588L4.80815 21.4443L4.81332 21.1152V21.1076ZM4.81332 21.1152C4.81203 21.0159 4.88685 20.9342 4.98039 20.9328C5.07393 20.9315 5.15091 21.0108 5.1522 21.1101L4.81332 21.1152ZM1.56541 15.6904L1.90451 15.6906V15.6905L1.8943 15.6409L1.89925 15.6462L1.93021 15.6779L1.98289 15.7239L2.05374 15.7801L2.14029 15.8451L2.24049 15.9187L2.35264 16.0007L2.4753 16.0911L2.60701 16.1901L2.74646 16.2981L2.89224 16.4151L3.04299 16.5415L3.19769 16.6776L3.35488 16.8238L3.51314 16.9802L3.67162 17.1472L3.82848 17.325L3.98288 17.5143L4.13329 17.7149L4.27844 17.9274L4.41702 18.152L4.54797 18.3891L4.66935 18.6388L4.78052 18.9014L4.87954 19.1772L4.96555 19.4663L5.03705 19.7689L5.09264 20.0853L5.13123 20.4154L5.15156 20.7594L5.1522 21.1176L4.81332 21.1076L4.81267 20.7709L4.79364 20.4485L4.75762 20.1402L4.70569 19.8455L4.63935 19.5641L4.55937 19.2953L4.46723 19.0391L4.36402 18.7949L4.2508 18.5624L4.12888 18.3412L3.99932 18.1315L3.86321 17.9324L3.72183 17.7438L3.57647 17.5656L3.42821 17.3975L3.27812 17.2392L3.1276 17.0906L2.97772 16.9513L2.82968 16.8209L2.68474 16.6996L2.54411 16.5866L2.40896 16.482L2.28049 16.3853L2.15975 16.2964L2.04783 16.2146L1.94591 16.1398L1.8544 16.0709L1.77409 16.0071L1.70507 15.9468L1.64573 15.8851L1.59476 15.8092L1.56541 15.6905V15.6904ZM1.56541 15.6905C1.56541 15.5912 1.64142 15.5107 1.73496 15.5107C1.8285 15.5107 1.90451 15.5912 1.90451 15.6905H1.56541ZM1.67873 5.3799L1.80667 5.71295L1.91226 5.54653L1.91183 6.18048L1.91128 6.81443L1.91085 7.44849L1.91043 8.08244L1.90988 8.71639L1.90945 9.35044L1.90902 9.9844L1.90849 10.6185L1.90806 11.2524L1.90752 11.8865L1.90709 12.5205L1.90656 13.1546L1.90602 13.7885L1.90559 14.4226L1.90505 15.0566L1.90451 15.6906L1.56541 15.6904L1.56595 15.0562L1.56649 14.4224L1.56692 13.7883L1.56745 13.1541L1.56799 12.5203L1.56842 11.8862L1.56896 11.2522L1.56939 10.6182L1.56992 9.98418L1.57035 9.35023L1.57078 8.71617L1.57133 8.08223L1.57176 7.44827L1.57218 6.81422L1.57272 6.18027L1.57316 5.54632L1.67873 5.3799ZM1.57316 5.54632C1.57316 5.44705 1.64927 5.36664 1.74281 5.36664C1.83634 5.36664 1.91226 5.44725 1.91226 5.54653L1.57316 5.54632ZM33.9189 5.54632L33.5798 5.54653L33.6863 5.71337L32.6124 5.27171L31.544 4.86188L30.4812 4.48365L29.424 4.13671L28.3722 3.82075L27.3257 3.53522L26.2846 3.27981L25.2487 3.05432L24.218 2.85831L23.1925 2.69158L22.172 2.55348L21.1565 2.44402L20.1462 2.36257L19.1405 2.309L18.1397 2.2828L17.1437 2.28376L16.1525 2.31155L15.1658 2.36575L14.1837 2.44604L13.2062 2.552L12.2331 2.68352L11.2644 2.84017L10.3001 3.02155L9.33999 3.22731L8.38408 3.45716L7.43258 3.71076L6.48495 3.9878L5.5413 4.28796L4.60183 4.61093L3.66624 4.95627L2.73452 5.32379L1.80667 5.71295L1.67873 5.3799L2.61303 4.98799L3.55142 4.61793L4.49388 4.27004L5.44044 3.94474L6.3912 3.64224L7.34614 3.36308L8.30539 3.10736L9.26904 2.8756L10.2369 2.66814L11.2094 2.48528L12.1862 2.32735L13.1675 2.19477L14.1534 2.08775L15.1441 2.00682L16.1392 1.9522L17.1392 1.9242L18.1438 1.92324L19.1532 1.94965L20.1675 2.00364L21.1866 2.08573L22.2107 2.19625L23.2396 2.33541L24.2737 2.50363L25.3128 2.70112L26.3568 2.92853L27.4061 3.18584L28.4606 3.47349L29.5204 3.792L30.5853 4.14149L31.6556 4.52226L32.7313 4.93485L33.8123 5.37948L33.9189 5.54632ZM33.8123 5.37948C33.8991 5.41639 33.9413 5.52118 33.9066 5.61335C33.8719 5.70552 33.7731 5.75028 33.6863 5.71337L33.8123 5.37948Z" fill="#2B2A29"/>
<path fill-rule="evenodd" clip-rule="evenodd" d="M27.1036 23.5753C27.532 23.5006 28.1859 22.1697 27.538 22.1697C27.0184 22.1697 26.7089 23.5438 27.1036 23.5753Z" fill="#E31E24" stroke="#2B2A29" stroke-width="0.081926" stroke-miterlimit="22.9256"/>
<path fill-rule="evenodd" clip-rule="evenodd" d="M17.0948 37.8805C16.7089 37.4681 16.4315 37.5712 15.8689 37.5514C15.8768 37.3452 15.8849 37.139 15.893 36.9367C16.0095 36.6473 16.2225 36.3896 16.4516 35.8345C16.5119 35.5451 16.5119 35.5451 16.6164 35.3943C16.6164 34.3595 16.6164 34.3595 16.5561 33.9113C16.4437 33.8004 16.4035 33.7726 16.3672 33.618C16.3471 33.6616 16.3311 33.7053 16.315 33.7489C15.5795 33.8242 15.5353 33.8004 15.1052 34.3753C14.9244 34.4626 14.8721 34.4863 14.7716 34.6528C14.6992 34.6449 14.6269 34.641 14.5586 34.637C14.45 34.9026 14.45 34.9026 14.3094 35.0969C14.1687 35.093 14.1004 35.0137 13.9959 34.982C13.8472 35.1129 13.8311 35.2358 13.7668 35.4221C13.6221 35.5093 13.5818 35.5292 13.5216 35.6799C13.3728 35.7155 13.2241 35.7513 13.0755 35.7869C13.0433 35.4062 13.0433 35.4062 12.9548 35.208C12.7539 35.1604 12.5529 35.1168 12.352 35.0732C12.2394 34.7995 11.6406 34.4149 11.3793 34.2643C11.2024 34.0463 10.8286 33.3761 10.5955 33.273C10.5634 33.0945 10.5312 32.9161 10.5031 32.7377C10.3182 32.6703 10.3182 32.6703 10.2218 32.5633C10.057 32.5712 10.0248 32.6148 9.81582 32.6148C9.30136 32.3293 9.13655 31.9764 8.7467 31.6077C8.75466 31.4689 8.79896 31.4332 8.79896 31.3222C8.68639 31.1041 8.12774 30.3864 7.88659 30.2794C7.83831 29.9621 7.69359 29.7203 7.51673 29.4586C7.46448 29.2087 7.45245 28.8202 7.19119 28.7053C7.17517 28.6458 7.15903 28.5862 7.14301 28.5308C7.11076 28.5267 7.07862 28.5228 7.04647 28.5189C6.8737 28.0391 6.74101 27.3611 6.47975 26.9447C6.4074 26.9367 6.33504 26.9289 6.26677 26.9209C6.20248 26.7742 6.17431 26.7702 6.01756 26.7227C5.77242 26.0367 5.63975 25.8265 5.76436 25.1049C5.81661 25.1049 5.87283 25.1049 5.92917 25.1049C5.93315 25.1525 5.93713 25.204 5.94122 25.2556C5.98143 25.2714 6.02153 25.2873 6.06174 25.3031C6.1341 25.8106 6.46772 26.1715 7.04249 26.1715C7.29569 25.9732 7.45245 25.7829 7.63737 25.5173C7.54889 25.2556 6.95809 25.1961 6.71285 25.1605C6.68877 25.1128 6.66866 25.0652 6.64855 25.0177C6.59232 25.0097 6.54007 25.0018 6.48782 24.9938C6.60834 24.4784 7.99109 24.8313 8.46932 24.9146C9.11645 24.6648 9.45006 24.1414 9.97258 23.721C10.0128 23.5308 10.0529 23.3404 10.0931 23.154C10.2499 23.0668 10.2739 23.047 10.3182 22.8765C10.7684 22.5197 11.1904 22.0756 11.3472 21.5244C11.4517 21.4649 11.5562 21.4054 11.6646 21.3459C11.6808 21.1913 12.77 20.5133 12.7901 20.5014C13.4091 20.3864 13.4452 20.3468 13.9677 20.2239C14.1647 20.0058 15.9774 19.9106 16.0859 20.0574C16.6125 20.1247 16.6446 20.1683 17.0425 20.2278C17.778 20.6997 18.3688 21.4253 19.1808 21.7782C19.3616 21.9209 19.5424 22.0637 19.7234 22.2104C20.073 22.2738 20.073 22.2738 20.2217 22.3491C20.5192 22.8408 22.2797 22.7734 22.9067 22.9241C23.7347 22.9083 24.5666 22.8963 25.3986 22.8844C25.9011 22.0637 26.5682 21.1953 27.6093 21.227C27.6414 21.2706 27.6414 21.2706 28.2241 21.3896C29.0602 22.3689 28.7306 23.0946 28.5618 24.2841C28.5618 25.1525 28.819 25.7472 29.0521 26.576C29.0844 26.5799 29.1165 26.5838 29.1526 26.5918C29.3013 27.3016 29.6751 27.6663 30.2379 28.1263C30.4629 28.8401 30.4629 28.8401 30.4951 29.07C30.4589 29.0739 30.4268 29.078 30.3946 29.0819C30.3142 29.645 30.3223 29.8471 30.4951 30.3904C30.4469 30.4102 30.3986 30.4301 30.3503 30.4498C30.3424 30.4856 30.3343 30.5212 30.3263 30.5569C30.286 30.5569 30.2499 30.5569 30.2137 30.5569C30.1896 30.4895 30.1695 30.4221 30.1494 30.3587C29.8601 30.2833 29.7113 30.0891 29.434 30.0057C29.2812 29.6727 28.803 29.2524 29.0079 28.955C28.7908 28.6457 29.1124 28.0073 28.6824 27.8051C28.5497 28.7251 28.4935 29.6569 28.5899 30.5768C29.0923 31.2389 29.0923 31.2389 29.1767 31.4292C29.1767 31.8496 29.0763 32.5751 28.8512 32.9202C28.7708 33.6933 28.6944 34.4665 28.6181 35.2397C28.7306 35.89 28.7306 35.89 28.7628 36.6156C28.6502 36.6592 28.5376 36.7068 28.4252 36.7544C28.4051 36.8416 28.5457 37.3571 28.5577 37.5156C28.3006 37.7695 26.4315 37.71 26.0578 37.5156C25.9533 37.2896 26.1101 36.9685 26.114 36.7029C26.4838 36.1874 26.5642 35.8583 26.6969 35.2358C26.729 35.2317 26.7612 35.2278 26.7933 35.2239C26.9702 34.7917 26.9541 34.1255 26.7732 33.6933C26.7089 33.6854 26.6446 33.6775 26.5802 33.6734C26.4958 33.8242 26.4958 33.8242 26.3311 33.9193C26.1342 34.3237 25.893 34.752 25.7724 35.1882C25.7925 35.6441 26.0056 36.2429 25.5473 36.5086C25.5473 36.9486 25.5473 36.9486 25.491 37.1865C24.8158 37.4364 24.0963 37.4047 23.3809 37.4047C23.3568 37.3808 23.3367 37.3571 23.3166 37.3333C23.389 36.5403 23.7828 36.0129 23.9396 35.2675C24.6068 34.5221 24.4903 33.8479 24.4903 32.8725C24.438 32.4641 24.4903 31.5799 23.9035 31.5799C23.6503 31.7227 23.401 31.7821 23.3125 32.0637C23.2121 32.0637 23.1438 31.9844 23.0392 31.9526C22.774 32.2143 22.4645 31.8654 22.1188 31.8218C22.0947 31.7742 22.0746 31.7266 22.0545 31.683C21.303 31.4967 20.5634 31.679 20.0208 32.2143C19.6189 33.2096 19.5264 34.0383 19.4058 35.101C19.5706 35.4498 19.5424 36.0882 19.5706 36.4689C19.4983 36.5521 19.4259 36.6394 19.3535 36.7266C19.3657 36.806 19.3777 36.8852 19.3898 36.9685C19.4219 36.9764 19.458 36.9883 19.4943 37.0002C19.4983 37.1906 19.5063 37.3808 19.5144 37.5712C19.3978 37.6624 19.2813 37.7536 19.1646 37.8488C18.4733 37.8566 17.782 37.8686 17.0948 37.8805Z" fill="black"/>
<path fill-rule="evenodd" clip-rule="evenodd" d="M17.5964 37.6068C17.5361 37.5711 17.4758 37.5394 17.4155 37.5077C17.4034 37.1508 17.4838 37.1072 17.729 36.8296C17.7331 36.7265 17.6767 36.6195 17.6767 36.219C17.9019 35.5053 17.9019 35.5053 17.934 35.1841C18.3158 35.1524 18.3882 35.0929 18.6816 34.8432C18.6816 34.5457 18.6615 34.3554 18.565 34.0739C18.6013 33.6893 18.6374 33.3047 18.6776 32.9201C18.6133 32.9121 18.549 32.9042 18.4887 32.9003C18.3239 33.5267 18.2917 34.0025 18.2877 34.6528C18.2154 34.7123 18.2154 34.7123 17.9662 34.7083C17.6085 34.3277 17.922 33.9906 17.7331 33.6457C17.7331 32.7614 17.6205 31.9248 17.504 31.0485C17.4758 31.0208 17.4517 30.9969 17.4276 30.9732C17.3793 30.9811 17.3311 30.9891 17.2869 31.0009C17.1502 31.4768 17.319 32.1032 17.3995 32.5869C17.3432 32.8764 17.2869 33.1104 17.4637 33.3562C17.4075 33.3642 17.3512 33.372 17.2949 33.3839C17.2788 33.2135 17.2628 33.0469 17.2467 32.8804C16.5835 32.4046 16.2057 31.7226 15.6952 31.0842C15.6872 30.9533 15.6792 30.8265 15.6751 30.6996C16.0128 30.4577 16.5273 30.196 16.5755 29.744C15.864 29.7996 15.5024 30.8146 14.6141 30.4656C14.1318 29.97 13.778 29.4625 14.1679 28.8201C14.1357 28.7646 14.1036 28.7091 14.0715 28.6536C14.0072 28.6655 13.9429 28.6774 13.8825 28.6893C13.77 28.9629 13.77 28.9629 13.6534 29.5934C14.0755 30.5013 14.18 30.7154 15.1045 30.9732C15.5304 31.5441 16.0289 32.0358 16.3946 32.6425C16.3946 33.3284 16.0328 33.38 15.4782 33.3879C14.7949 33.5465 14.9396 33.4712 14.9396 34.0462C14.811 34.1056 14.811 34.1056 14.4131 34.169C14.2724 34.3038 14.2122 34.4862 14.0996 34.5973C13.7942 34.6964 13.2395 34.9264 13.4042 35.3586C13.3681 35.3705 13.332 35.3863 13.2997 35.4022C13.2676 35.2515 13.2354 35.1048 13.2074 34.9581C12.6004 34.7202 12.2306 34.4585 11.8448 33.947C11.5433 33.8795 11.5433 33.8795 11.4026 33.8042C11.3383 33.6298 10.6269 32.4284 11.2539 32.4601C11.4067 32.7099 11.7323 33.3324 12.0939 33.2452C12.0939 32.8487 11.8368 32.7416 11.6479 32.4323C11.6639 31.5838 11.3665 31.5243 10.5948 31.5124C10.4822 31.4014 10.4822 31.4014 10.4179 31.2151C10.0562 30.9652 9.99192 30.9692 9.5538 31.0286C9.50552 31.0961 9.45736 31.1675 9.41306 31.2388C9.3407 31.2388 9.26846 31.2388 9.20008 31.2388C8.93484 30.9058 8.84635 30.6798 8.74185 30.2793C8.17514 30.1564 8.02644 29.7004 7.79733 29.1849C7.73701 28.9034 7.68079 28.6258 7.62456 28.3483C7.06989 27.9201 6.89303 27.2975 7.18236 26.6393C7.4276 26.3737 7.67273 26.112 7.91797 25.8502C8.00635 25.8502 8.09472 25.8502 8.18321 25.8502C8.30782 26.2031 8.30781 26.2031 8.38414 26.2824C8.48467 26.2706 8.58509 26.2626 8.68959 26.2546C8.68959 25.771 8.36404 25.5687 8.01441 25.2634C8.02645 25.2357 8.03849 25.2079 8.05462 25.1801C8.82625 25.4061 8.92678 25.6599 9.34071 26.3379C9.54972 26.3379 9.75872 26.3419 9.96773 26.3459C10.028 26.445 10.0884 26.5441 10.1487 26.6433C10.4179 26.6789 10.45 26.7226 10.5867 26.6948C10.631 26.2428 10.6792 25.763 10.5265 25.3229C10.1848 25.1207 9.85925 25.0215 9.47746 24.9026C9.47746 24.6369 10.1085 24.1254 10.3617 23.9431C10.5827 23.1222 10.8158 22.9637 11.5635 22.5909C11.5714 22.3966 11.5795 22.2023 11.5915 22.012C11.9091 21.6353 12.2708 21.3419 12.6486 21.0247C13.0666 20.8502 13.4846 20.6757 13.9066 20.5014C14.9637 20.3903 14.9637 20.3903 15.6069 20.3983C15.8561 20.6679 16.1776 20.5014 16.5393 20.5014C16.7483 20.5767 16.9573 20.652 17.1703 20.7313C18.0466 21.5203 19.0956 22.1191 19.9839 22.8724C19.9196 22.9477 19.8593 23.0232 19.799 23.0985C20.1406 23.3205 20.7837 23.1421 21.1615 23.0905C22.6447 23.2174 24.0795 23.257 25.5707 23.257C25.647 23.2174 25.7234 23.1778 25.7998 23.1421C26.455 22.0041 26.9292 21.112 28.2234 21.8852C28.5449 22.7535 28.3199 23.4553 28.1711 24.3356C28.3641 25.8542 28.5932 27.1865 29.7909 28.2372C29.9999 28.6536 29.8954 29.1849 29.8432 29.6409C29.3729 29.6409 29.3569 28.3562 29.2845 28.0747C29.0876 27.6781 28.8987 27.3412 28.6254 26.9961C28.5209 26.5838 28.3922 26.1952 28.143 25.8502C28.0867 25.8502 28.0305 25.8502 27.9782 25.8502C27.8737 26.211 28.1028 26.8495 28.2837 27.1905C28.2636 27.6702 28.2435 28.15 28.2275 28.6338C27.8938 30.6164 27.8938 30.6164 27.8938 30.9454C27.4397 31.9407 26.3866 31.2546 25.6913 30.9136C26.2178 30.7948 26.4227 30.7273 26.8287 30.3863C26.8166 30.3388 26.8086 30.2951 26.8006 30.2515C26.4388 30.2515 26.1575 30.4141 25.7958 30.4141C25.3295 30.1009 24.9718 29.8828 24.9115 29.288C25.5506 29.2205 26.0289 29.1571 26.4388 28.6258C26.4388 28.4593 26.4388 28.2928 26.4388 28.1302C26.4107 28.1024 26.3826 28.0786 26.3584 28.0549C26.1293 28.1975 26.0449 28.5426 25.8078 28.7646C25.1205 28.9114 24.4211 28.9629 23.77 28.6496C23.5852 28.376 23.5811 27.9637 23.758 27.69C23.758 27.6147 23.758 27.5394 23.758 27.468C23.7218 27.4561 23.6856 27.4443 23.6535 27.4363C23.1028 27.9399 23.143 28.5505 23.6856 28.9826C23.967 29.0937 23.967 29.0937 24.4854 29.2127C24.5377 29.4347 24.5899 29.6568 24.6422 29.8788C24.6744 29.8828 24.7066 29.8867 24.7427 29.8947C24.7508 29.9303 24.7628 29.97 24.7748 30.0097C24.7427 30.0255 24.7145 30.0414 24.6865 30.0612C24.6784 30.0255 24.6744 29.9938 24.6703 29.962C24.6382 29.9581 24.606 29.9541 24.5739 29.9502C24.2001 29.2483 23.8102 29.3435 22.9822 29.403C22.9783 29.4506 22.9742 29.4981 22.9702 29.5497C23.3601 29.6568 23.754 29.7638 24.1478 29.8708C24.3006 30.1564 24.4533 30.4419 24.606 30.7273C24.2282 31.112 23.2917 31.5917 22.7089 31.568C22.2186 31.0247 20.9806 31.2111 20.3657 31.2388C20.0522 30.9296 20.0321 30.5489 20.1406 30.1484C20.5305 29.8074 20.9686 29.514 20.6068 28.9906C20.5385 28.9826 20.4702 28.9748 20.4019 28.9708C20.3496 29.5774 20.3094 29.7995 19.6583 29.8153C19.4332 30.3269 19.6743 30.8225 19.799 31.3182C19.799 31.9248 19.4774 32.4838 19.2483 33.031C19.2403 34.0857 19.184 34.5814 19.184 35.9018C18.8504 36.6552 18.975 36.7305 19.0674 37.4601C18.7821 37.6941 17.9541 37.5988 17.5964 37.6068Z" fill="#FFED00"/>
<path fill-rule="evenodd" clip-rule="evenodd" d="M16.372 37.3851C16.3237 37.3533 16.2795 37.3216 16.2354 37.2938C16.2354 37.2065 16.2354 37.1194 16.2354 37.0322C16.3077 36.9686 16.3077 36.9686 16.8141 36.9092C16.8261 36.8735 16.8382 36.8379 16.8502 36.8061C16.6211 36.5682 16.6252 36.5444 16.6252 36.2074C16.9668 35.5333 17.0111 35.002 17.003 34.2447C16.7739 34.0187 16.8462 33.4873 16.8502 33.178C16.8824 33.178 16.9145 33.178 16.9508 33.178C17.2803 33.9631 17.5094 34.7244 17.5094 35.5729C17.2844 36.481 17.4451 37.2898 16.372 37.3851Z" fill="#FFED00"/>
<path fill-rule="evenodd" clip-rule="evenodd" d="M27.0304 37.3849C26.536 37.2104 26.4035 37.1311 26.729 36.7029C26.9903 36.687 27.2555 36.6712 27.5208 36.6553C27.5047 36.6117 27.4886 36.5681 27.4726 36.5284C27.2756 36.4848 27.0787 36.4411 26.8858 36.3975C27.3399 35.4499 27.5409 33.6775 26.942 32.8091C26.5802 32.5236 26.2789 31.9289 25.9171 31.7663C25.909 31.7346 25.905 31.7029 25.9011 31.6712C25.7844 31.6275 25.7764 31.6196 25.7322 31.5047C25.7 31.5006 25.6679 31.4967 25.6357 31.4927C25.6277 31.457 25.6237 31.4253 25.6197 31.3936C25.3865 31.3261 24.9886 30.9138 25.0128 30.6877C25.1936 30.7671 25.1896 30.8544 25.2579 31.0367C25.2901 31.0407 25.3222 31.0447 25.3584 31.0526C25.7122 31.6632 27.573 31.913 28.0955 32.0122C28.2684 32.0836 28.4412 32.1589 28.6141 32.2342C28.6502 32.2064 28.6864 32.1787 28.7265 32.1509C28.7306 31.6949 28.5899 31.4094 28.5376 30.997C28.594 30.997 28.6502 30.997 28.7064 30.997C28.7145 31.0684 28.7265 31.1398 28.7386 31.2152C28.9838 31.457 28.9396 32.0914 28.6743 32.3215C28.2322 33.7528 28.2563 34.6608 28.3729 36.1756C27.8262 36.2429 28.176 36.9805 28.1679 37.2937C27.9027 37.5118 27.3922 37.2937 27.0304 37.3849Z" fill="#FFED00"/>
<path fill-rule="evenodd" clip-rule="evenodd" d="M23.8508 37.1114C23.8106 37.0915 23.7745 37.0717 23.7383 37.0559C23.7986 36.3342 23.9915 36.5324 24.6828 36.5245C24.6909 36.4968 24.6989 36.469 24.707 36.4453C24.4939 36.3025 24.3533 36.2787 24.092 36.235C24.2326 36.0012 24.2367 35.8187 24.2728 35.5452C25.0526 34.4071 24.932 32.9639 24.711 31.6633C24.5381 31.3184 24.6547 31.1399 24.9882 31.1399C25.2013 31.4293 25.4143 31.7188 25.6314 32.0082C26.1017 32.4325 26.6081 32.7497 26.3308 33.4238C25.8243 34.1614 25.5269 34.5261 25.4344 35.4223C24.7311 35.91 25.5551 36.6355 25.0807 37.0242C24.6707 37.0519 24.2608 37.0796 23.8508 37.1114Z" fill="#FFED00"/>
<path fill-rule="evenodd" clip-rule="evenodd" d="M18.8837 36.4491C18.8153 36.3937 18.7469 36.3381 18.6826 36.2866C18.7469 35.6998 18.6625 34.8512 19.1168 34.415C19.1288 34.4586 19.1448 34.5023 19.161 34.5498C18.9559 34.7521 19.161 35.553 19.1448 35.8821C19.0645 35.9337 18.9841 35.9852 18.9077 36.0408C18.9519 36.0844 18.9961 36.1319 19.0403 36.1795C18.9881 36.2667 18.9358 36.3579 18.8837 36.4491Z" fill="black"/>
<path fill-rule="evenodd" clip-rule="evenodd" d="M27.926 36.1755C27.7894 35.9257 27.7612 35.2477 28.1672 35.2675C28.2315 35.549 28.348 35.8663 28.2234 36.1398C28.123 36.1517 28.0225 36.1636 27.926 36.1755Z" fill="black"/>
<path fill-rule="evenodd" clip-rule="evenodd" d="M28.036 36.009C28.0079 35.6165 28.0079 35.6165 28.0642 35.4023C28.1164 35.5609 28.1164 35.5609 28.1486 36.009C28.1084 36.009 28.0722 36.009 28.036 36.009Z" fill="#FFED00"/>
<path fill-rule="evenodd" clip-rule="evenodd" d="M27.3683 33.6973C27.3482 33.6021 27.3281 33.5109 27.3119 33.4197C27.3602 33.4117 27.4125 33.4078 27.4647 33.4038C27.4486 33.3047 27.4326 33.2096 27.4164 33.1143C27.1914 33.039 27.0869 33.039 27.0869 32.813C27.6134 32.8566 27.8465 33.1104 27.6657 33.6615C27.5651 33.6734 27.4647 33.6854 27.3683 33.6973Z" fill="black"/>
<path fill-rule="evenodd" clip-rule="evenodd" d="M9.78342 32.2621C9.75127 31.9449 9.88383 31.7982 10.0366 31.5206C9.88383 31.3263 9.7432 31.4492 9.55021 31.5245C9.52215 31.5087 9.49399 31.4969 9.46582 31.485C9.85169 30.9338 10.1049 31.358 10.2898 31.7387C10.3782 31.7466 10.4706 31.7546 10.5631 31.7665C10.4787 32.1987 10.1772 32.1947 9.78342 32.2621Z" fill="#FFED00"/>
<path fill-rule="evenodd" clip-rule="evenodd" d="M11.178 32.2104C11.1378 32.1906 11.1017 32.1707 11.0654 32.1548C11.0735 32.1073 11.0855 32.0637 11.0976 32.02C11.1498 32.02 11.2021 32.02 11.2543 32.02C11.2543 32.0716 11.2543 32.1231 11.2543 32.1747C11.2262 32.1866 11.2021 32.1985 11.178 32.2104Z" fill="#E31E24"/>
<path fill-rule="evenodd" clip-rule="evenodd" d="M28.5382 32.0439C28.3533 31.7981 28.0156 31.806 27.7344 31.679C27.7344 31.3262 28.0438 31.1874 28.3372 31.1954C28.4859 31.4927 28.6105 31.7148 28.6507 32.0439C28.6105 32.0439 28.5744 32.0439 28.5382 32.0439Z" fill="#FFED00"/>
<path fill-rule="evenodd" clip-rule="evenodd" d="M15.367 31.0526C15.3589 30.9336 15.3508 30.8147 15.3428 30.6997C15.3749 30.6997 15.4072 30.6997 15.4433 30.6997C15.4514 30.8583 15.4754 30.9336 15.367 31.0526Z" fill="#FFED00"/>
<path fill-rule="evenodd" clip-rule="evenodd" d="M9.44628 30.7753C9.43424 30.7475 9.4222 30.7198 9.41016 30.696C9.53477 30.4779 9.53476 30.4779 9.83623 30.1925C9.8844 29.9387 9.93268 29.6849 9.98084 29.4312C10.0331 29.4312 10.0853 29.4312 10.1376 29.4312C10.1979 29.7245 10.1979 29.7245 10.1939 30.355C9.93666 30.5413 9.75184 30.688 9.44628 30.7753Z" fill="black"/>
<path fill-rule="evenodd" clip-rule="evenodd" d="M10.9529 30.117C10.5309 29.5817 10.4747 28.8283 10.4747 28.1939C10.0888 27.7181 9.3533 27.4802 9.47791 26.8418C9.53005 26.8418 9.58231 26.8418 9.63456 26.8418C9.81948 27.4604 10.4826 27.5595 10.8083 28.1107C10.8162 28.3248 10.8283 28.5429 10.8404 28.7609C11.3066 28.9156 11.0896 29.6649 11.0856 30.0813C11.0414 30.0932 10.9972 30.1051 10.9529 30.117Z" fill="black"/>
<path fill-rule="evenodd" clip-rule="evenodd" d="M8.72321 28.9591C8.53431 28.7371 8.25294 28.7212 7.97168 28.6498C7.97168 28.3446 8.33744 28.063 8.53032 27.833C9.22164 27.833 9.43872 28.8204 8.72321 28.9591Z" fill="black"/>
<path fill-rule="evenodd" clip-rule="evenodd" d="M11.8497 28.6854C11.7612 28.3801 11.693 28.0946 11.508 27.8329C11.2026 27.7338 10.9172 27.2699 10.9333 26.9526C11.271 26.9526 11.4437 27.3491 11.7572 27.5038C11.9623 27.8408 11.9864 28.2017 11.9783 28.5942C11.9341 28.622 11.8899 28.6537 11.8497 28.6854Z" fill="black"/>
<path fill-rule="evenodd" clip-rule="evenodd" d="M13.3012 27.3057C13.2329 27.2701 13.1687 27.2344 13.1044 27.2026C12.5899 26.5841 11.4885 24.8236 12.6221 24.3042C12.8189 24.312 12.8913 24.3161 12.8752 24.5182C12.2321 25.1051 12.7988 26.4453 13.3053 26.9449C13.6348 26.9251 13.9685 26.9052 14.3021 26.8854C14.5915 26.711 14.8688 26.4374 15.2185 26.4572C15.5721 27.0956 15.737 26.7427 16.2796 27.0083C16.2796 27.0599 16.2796 27.1114 16.2796 27.163C15.946 27.163 15.4315 27.2145 15.1904 26.9449C15.0618 26.9449 14.9331 26.9489 14.8045 26.9529C14.3302 27.3256 13.8841 27.2106 13.3012 27.3057Z" fill="black"/>
<path fill-rule="evenodd" clip-rule="evenodd" d="M6.5441 26.6476C6.45572 26.5406 6.45572 26.5406 6.43164 26.3701C6.54819 26.3978 6.66871 26.4256 6.78934 26.4573C6.78934 26.5088 6.78934 26.5604 6.78934 26.6119C6.70494 26.6238 6.62452 26.6357 6.5441 26.6476Z" fill="#FFED00"/>
<path fill-rule="evenodd" clip-rule="evenodd" d="M24.0165 26.5365C23.6788 26.1043 23.8677 25.3192 23.4859 24.9424C23.4939 24.8116 23.5019 24.6808 23.514 24.5539C23.5742 24.5619 23.6387 24.5737 23.7029 24.5856C23.8154 24.8354 23.8918 25.0575 24.0928 25.2398C24.1048 23.6815 23.7672 24.0979 22.3203 24.0781C22.3203 24.0067 22.3203 23.9353 22.3203 23.8679C22.9433 23.5665 23.7552 23.7013 24.4304 23.7054C24.4826 24.7878 24.5027 25.4818 24.0928 26.5007C24.0646 26.5126 24.0405 26.5246 24.0165 26.5365Z" fill="black"/>
<path fill-rule="evenodd" clip-rule="evenodd" d="M9.94824 25.8744C9.94824 25.8585 9.94824 25.8387 9.94824 25.8188C9.98447 25.8188 10.0206 25.8188 10.0608 25.8188C10.0608 25.8348 10.0608 25.8546 10.0608 25.8744C10.0247 25.8744 9.98845 25.8744 9.94824 25.8744Z" fill="#FFED00"/>
<path fill-rule="evenodd" clip-rule="evenodd" d="M9.16866 25.2715C9.0762 25.109 9.07619 25.109 9.10436 25.0732C9.16866 25.0732 9.23295 25.0772 9.30133 25.0812C9.30133 25.1129 9.30133 25.1446 9.30133 25.1803C9.25704 25.208 9.21285 25.2398 9.16866 25.2715Z" fill="#FFED00"/>
<path fill-rule="evenodd" clip-rule="evenodd" d="M27.5891 25.0494C27.2273 24.3555 26.7491 23.8004 26.2266 23.1977C26.2266 22.7338 26.7048 22.2143 27.1348 22.0439C27.7418 21.9883 27.7096 21.905 27.9508 22.4522C27.8945 23.2929 27.8945 23.2929 27.782 23.951C27.782 24.7242 27.782 24.7242 27.7217 25.0137C27.6775 25.0256 27.6333 25.0375 27.5891 25.0494Z" fill="black"/>
<path fill-rule="evenodd" clip-rule="evenodd" d="M27.4242 23.8362C27.2233 23.6062 27.0102 23.3564 26.7852 23.1423C26.7852 23.0709 26.7852 22.9995 26.7852 22.9322C26.9379 22.7933 27.1348 22.6149 27.2313 22.4365C27.2996 22.4365 27.372 22.4365 27.4443 22.4365C27.7056 22.8964 27.5448 23.3366 27.4242 23.8362Z" fill="#E31E24"/>
<path fill-rule="evenodd" clip-rule="evenodd" d="M20.2217 23.0114C20.2739 22.928 20.3262 22.8447 20.3825 22.7615C20.688 22.8249 20.688 22.8249 20.8929 22.928C20.6679 22.9558 20.4427 22.9836 20.2217 23.0114Z" fill="#FFED00"/>
<path fill-rule="evenodd" clip-rule="evenodd" d="M11.1221 22.5713C11.1502 22.488 11.1784 22.4087 11.2106 22.3293C11.2628 22.3293 11.3151 22.3293 11.3673 22.3293C11.3673 22.377 11.3673 22.4285 11.3673 22.4801C11.2829 22.5079 11.2025 22.5396 11.1221 22.5713Z" fill="#FFED00"/>
<path fill-rule="evenodd" clip-rule="evenodd" d="M15.8687 20.4223C15.7922 20.3866 15.7159 20.3509 15.6436 20.3153C15.6436 20.2597 15.6436 20.2043 15.6436 20.1487C15.8888 20.236 15.8888 20.236 15.9571 20.3192C15.9249 20.3509 15.8967 20.3866 15.8687 20.4223Z" fill="#FFED00"/>
</svg>
