<svg width="26" height="22" viewBox="0 0 26 22" fill="none" xmlns="http://www.w3.org/2000/svg">
<path d="M17.1367 10.4141L11.5117 6.66408C11.4058 6.59433 11.283 6.55453 11.1563 6.54888C11.0296 6.54323 10.9037 6.57196 10.792 6.63201C10.6803 6.69207 10.587 6.78121 10.5218 6.89001C10.4566 6.9988 10.4221 7.1232 10.4219 7.25002V14.75C10.422 14.8779 10.457 15.0032 10.5231 15.1127C10.5892 15.2221 10.6838 15.3115 10.7969 15.3711C10.9079 15.431 11.0332 15.4594 11.1592 15.4532C11.2852 15.447 11.4071 15.4065 11.5117 15.336L17.1367 11.586C17.2334 11.5218 17.3127 11.4348 17.3676 11.3325C17.4225 11.2303 17.4512 11.1161 17.4512 11C17.4512 10.884 17.4225 10.7698 17.3676 10.6675C17.3127 10.5653 17.2334 10.4782 17.1367 10.4141ZM11.8281 13.4375V8.56252L15.4844 11L11.8281 13.4375ZM25.2344 4.2383C25.1324 3.84279 24.9379 3.47716 24.6669 3.17155C24.396 2.86593 24.0562 2.62908 23.6758 2.48049C19.6797 0.945333 13.2695 0.968771 13 0.968771C12.7305 0.968771 6.32031 0.945333 2.32422 2.48049C1.94376 2.62908 1.60404 2.86593 1.33307 3.17155C1.06209 3.47716 0.8676 3.84279 0.765625 4.2383C0.460938 5.38674 0.109375 7.49611 0.109375 11C0.109375 14.5039 0.460938 16.6133 0.765625 17.7617C0.8676 18.1573 1.06209 18.5229 1.33307 18.8285C1.60404 19.1341 1.94376 19.371 2.32422 19.5196C6.32031 21.0547 12.7305 21.0313 13 21.0313H13.082C13.8906 21.0313 19.8672 20.9844 23.6758 19.5196C24.0562 19.371 24.396 19.1341 24.6669 18.8285C24.9379 18.5229 25.1324 18.1573 25.2344 17.7617C25.5391 16.6133 25.8906 14.5039 25.8906 11C25.8906 7.49611 25.5391 5.38674 25.2344 4.2383V4.2383ZM23.875 17.4102C23.8289 17.589 23.7412 17.7544 23.619 17.8929C23.4968 18.0314 23.3436 18.139 23.1719 18.2071C19.4219 19.6485 13.0703 19.625 13 19.625C12.9297 19.625 6.57813 19.6485 2.82813 18.2071C2.65642 18.139 2.50323 18.0314 2.38104 17.8929C2.25885 17.7544 2.17112 17.589 2.125 17.4102C1.84375 16.3321 1.51562 14.3516 1.51562 11C1.51562 7.64846 1.84375 5.66799 2.125 4.58986C2.17112 4.41103 2.25885 4.24562 2.38104 4.10714C2.50323 3.96866 2.65642 3.86101 2.82813 3.79299C6.57813 2.35158 12.9297 2.37502 13 2.37502C13.0703 2.37502 19.4219 2.35158 23.1719 3.79299C23.3436 3.86101 23.4968 3.96866 23.619 4.10714C23.7412 4.24562 23.8289 4.41103 23.875 4.58986C24.1563 5.66799 24.4844 7.64846 24.4844 11C24.4844 14.3516 24.1563 16.3321 23.875 17.4102V17.4102Z" fill="#D9D9D9"/>
</svg>
