<svg width="80" height="79" viewBox="0 0 80 79" fill="none" xmlns="http://www.w3.org/2000/svg">
<path fill-rule="evenodd" clip-rule="evenodd" d="M26.9051 44.5645L45.5649 35.5599C47.5322 34.6105 48.555 32.6604 49.1584 30.6311L53.8517 14.851C55.0883 15.5638 56.2656 16.3662 57.3758 17.2484L51.1334 38.2374C50.3777 40.7781 49.5413 43.6193 46.9964 44.8474L41.2017 47.6437C40.6271 47.59 40.031 47.5615 39.4196 47.5615C34.7542 47.5615 30.9706 49.21 30.9702 51.2429V51.2406V51.2432V51.8775C30.9703 53.9106 34.754 55.5593 39.4196 55.5593C44.0853 55.5593 47.869 53.9106 47.869 51.8775V56.87V56.0718V56.8707C47.8681 58.9034 44.0847 60.5517 39.4196 60.5517C34.7544 60.5517 30.971 58.9034 30.9702 56.8707V56.0718V56.87V52.5811L25.1922 55.3693C24.4187 55.7426 23.7968 55.3504 23.9502 54.4935L25.3622 46.6058C25.5189 45.7302 26.0868 44.9594 26.9051 44.5645ZM31.0058 51.5805C31.004 51.5719 31.0022 51.5634 31.0006 51.5548C31.0022 51.5634 31.0041 51.5719 31.0058 51.5805ZM30.98 51.42C30.9773 51.3949 30.9751 51.3696 30.9734 51.3443C30.975 51.3696 30.9773 51.3949 30.98 51.42Z" fill="#E31E24"/>
<path fill-rule="evenodd" clip-rule="evenodd" d="M24.8044 42.6483L43.464 33.6436C45.4314 32.6943 46.4543 30.7441 47.0577 28.7149L51.537 13.6544C52.1897 13.9553 52.829 14.2798 53.454 14.627L48.8056 30.256C48.2022 32.2852 47.1794 34.2354 45.2121 35.1848L26.5524 44.1894C25.734 44.5843 25.1662 45.3551 25.0093 46.2307L23.7755 53.123L23.5973 54.1184C23.5245 54.5258 23.6267 54.828 23.8373 54.993L22.1229 53.4766C21.9121 53.2901 21.7728 53.0058 21.8494 52.5773L23.2614 44.6895C23.4182 43.8138 23.9862 43.0432 24.8044 42.6483ZM39.4189 54.9248C44.0846 54.9248 47.8683 53.2761 47.8683 51.2431C47.8683 49.21 44.0846 47.5613 39.4189 47.5613C34.7533 47.5613 30.9695 49.21 30.9695 51.2431C30.9695 53.2761 34.7533 54.9248 39.4189 54.9248Z" fill="#009846"/>
<path d="M6.50636 45.6745C5.85468 45.7884 5.31497 45.7299 4.89065 45.5006C4.44873 45.2643 4.17778 44.8652 4.07828 44.3061C4.03871 44.084 4.03745 43.8374 4.07576 43.5646L1.15612 44.0746L1 43.1974L7.8676 41.9976L8.13534 43.5015C8.24594 44.1235 8.13854 44.6245 7.81339 45.0078C7.52209 45.3509 7.08645 45.5732 6.50636 45.6745ZM6.32097 44.7895C7.08702 44.6557 7.41435 44.2754 7.3025 43.647L7.19099 43.0203L4.91501 43.4179C4.86561 43.7026 4.86115 43.9533 4.90015 44.1723C4.99965 44.7313 5.47371 44.9375 6.32097 44.7895ZM3.06885 52.066L2.07543 49.0366L8.70765 46.9015L9.68666 49.8868L8.87314 50.1487L8.17503 48.0196L6.18727 48.6595L6.85451 50.6943L6.05494 50.9518L5.38771 48.917L3.16515 49.6324L3.87779 51.8056L3.06885 52.066ZM7.35717 56.8826C6.80636 57.1606 6.30324 57.2494 5.84565 57.152C5.34608 57.0471 4.95527 56.7204 4.67312 56.1719C4.40572 55.6518 4.4175 55.129 4.71166 54.6055C5.04482 54.01 5.72418 53.4535 6.74952 52.936L7.25995 52.6783C8.28094 52.1628 9.13311 51.9462 9.81224 52.0305C10.4112 52.1067 10.8459 52.4096 11.1177 52.9381C11.3968 53.4809 11.4339 53.9828 11.2295 54.4449C11.043 54.8603 10.6761 55.2071 10.1254 55.485L9.7172 54.6915C10.4304 54.3315 10.6522 53.8892 10.3818 53.3635C10.2426 53.0928 9.97236 52.951 9.56875 52.9376C9.05831 52.9207 8.39153 53.121 7.56749 53.537L7.27711 53.6836C6.51632 54.0677 5.98015 54.4514 5.66757 54.8371C5.37455 55.2005 5.30628 55.5364 5.46536 55.8455C5.73562 56.3712 6.23005 56.452 6.94909 56.0889L7.35717 56.8826ZM9.18652 63.0283L8.66671 62.3194L13.5852 58.7788L12.424 57.1953L7.50551 60.7359L6.97711 60.0153L12.6189 55.9542L14.8283 58.967L9.18652 63.0283ZM18.2507 62.5264L12.5508 66.2333C11.6421 66.8214 10.9574 66.9015 10.4937 66.4731C10.345 66.3356 10.2196 66.1498 10.12 65.9156L10.8134 65.1789C10.7987 65.2812 10.8246 65.4014 10.89 65.5383C10.943 65.6507 10.9997 65.7359 11.0588 65.7905C11.2476 65.9649 11.5986 65.8804 12.1082 65.5358L15.3247 59.823L15.9916 60.4391L13.5794 64.6035L17.5756 61.9027L18.2507 62.5264ZM19.6662 69.7676C18.8551 70.8737 17.9738 71.0853 17.0219 70.4002L15.6679 69.4254L19.7669 63.8356L22.3222 65.675L21.8193 66.3606L19.9914 65.0448L18.8189 66.6437C19.1465 66.7984 19.3821 66.9285 19.5271 67.0328C19.9932 67.3684 20.2326 67.782 20.2426 68.2714C20.2506 68.7338 20.0588 69.2321 19.6662 69.7676ZM18.9377 69.2077C19.1768 68.8817 19.3003 68.5853 19.3082 68.3161C19.316 68.047 19.2143 67.8375 19.0028 67.6852C18.7951 67.5357 18.569 67.4144 18.3237 67.319L16.8894 69.2749L17.4326 69.666C17.9431 70.0335 18.4443 69.8804 18.9377 69.2077ZM24.2442 74.6316L23.4389 74.2251L26.2034 68.8495L24.9523 68.218L23.0767 71.8652C22.4583 73.0678 21.8744 73.5304 21.3237 73.2523C21.0145 73.0963 20.8128 72.946 20.7179 72.7994L21.1496 71.9602C21.2545 72.1012 21.3548 72.1949 21.4498 72.2427C21.5965 72.3168 21.7243 72.3042 21.8347 72.2056C21.9706 72.0857 22.1636 71.7848 22.4112 71.3032L24.5961 67.0546L27.4102 68.4752L24.2442 74.6316ZM30.6266 76.8105L29.7765 76.569L31.18 71.7195L27.7612 75.9964L26.8272 75.7312L28.7495 69.0894L29.6135 69.3349L28.2087 74.189L31.6242 69.9061L32.5489 70.1688L30.6266 76.8105ZM36.8502 77.8075L35.9697 77.6849C35.9155 77.2397 35.93 76.7234 36.0129 76.1391C36.109 75.4615 36.1131 74.9953 36.0254 74.7409C35.9285 74.4593 35.6786 74.2904 35.2758 74.2344C35.0729 74.2061 34.8504 74.1994 34.6106 74.2128L34.154 77.432L33.2638 77.3081L34.2343 70.4659L35.1246 70.5899L34.7338 73.345C34.9283 73.432 35.1367 73.4916 35.3573 73.5223C35.76 73.5784 36.0068 73.2867 36.0978 72.6453L36.1905 71.9914C36.3147 71.1156 36.6389 70.7152 37.163 70.7882C37.4218 70.8242 37.6112 70.8796 37.7313 70.9529L37.6081 71.8206C37.473 71.7404 37.373 71.6974 37.3075 71.6882C37.1732 71.6695 37.0792 71.8503 37.0253 72.2302L36.966 72.6484C36.8827 73.2358 36.7047 73.6631 36.4302 73.9317C36.7163 74.1443 36.8915 74.4255 36.956 74.7751C37.0167 75.0938 37.0016 75.5679 36.9122 76.1981C36.8136 76.8932 36.7929 77.4298 36.8502 77.8075ZM43.4747 77.7952L42.5914 77.8411L42.3249 72.803L40.4978 77.9498L39.5275 78.0002L39.1626 71.1002L40.0602 71.0537L40.3271 76.0965L42.149 70.9452L43.1097 70.8952L43.4747 77.7952ZM53.5563 73.413C53.9597 74.7205 53.5999 75.5452 52.4748 75.8861L50.8742 76.3708L48.8353 69.7633L51.8558 68.8484L52.1059 69.659L49.9451 70.3135L50.5283 72.2035C50.8501 72.0374 51.0968 71.9293 51.2682 71.8773C51.8191 71.7104 52.2966 71.7698 52.6971 72.0564C53.0747 72.3284 53.361 72.78 53.5563 73.413ZM52.6665 73.6525C52.5477 73.2672 52.383 72.991 52.1708 72.8228C51.9587 72.6547 51.7285 72.609 51.4785 72.6847C51.2331 72.7591 50.9992 72.865 50.7746 73.0017L51.488 75.3137L52.1302 75.1192C52.7336 74.9365 52.9119 74.4477 52.6665 73.6525ZM59.4591 72.9022L56.5695 74.2985L53.5124 68.0884L56.36 66.7124L56.735 67.4741L54.7041 68.4555L55.6203 70.3166L57.5612 69.3787L57.9297 70.1274L55.9888 71.0653L57.0133 73.1464L59.0862 72.1447L59.4591 72.9022ZM65.0537 69.0258L64.3319 69.5648L60.6674 64.7465L59.546 65.5837L62.0324 68.8529C62.8522 69.9308 63.0159 70.6534 62.5224 71.022C62.2453 71.229 62.0205 71.3426 61.8459 71.3629L61.2738 70.6107C61.4477 70.579 61.5766 70.5307 61.6617 70.4671C61.7933 70.369 61.8379 70.2497 61.7968 70.108C61.7476 69.9345 61.5591 69.6308 61.2309 69.1991L58.3346 65.391L60.8569 63.5078L65.0537 69.0258ZM70.3748 63.8795L69.7144 64.557L68.1109 63.6472L66.8194 64.9723L67.7929 66.5285L67.1393 67.1991L63.4402 61.0478L64.0411 60.4313L70.3748 63.8795ZM67.3845 63.2323L64.759 61.7249L66.3755 64.2676L67.3845 63.2323ZM69.6894 56.0404C70.2444 56.3975 70.599 56.8049 70.7513 57.2594C70.9119 57.7308 70.8354 58.2058 70.5234 58.6819C70.3994 58.8711 70.2306 59.0523 70.0147 59.226L72.5011 60.8258L72.0115 61.5728L66.1629 57.8096L67.0024 56.5288C67.3496 55.9992 67.773 55.7054 68.2746 55.6448C68.7239 55.5907 69.1954 55.7226 69.6894 56.0404ZM69.2158 56.8129C68.5635 56.3932 68.0624 56.4502 67.7117 56.9851L67.3617 57.519L69.3 58.7661C69.532 58.5913 69.7079 58.4109 69.8302 58.2244C70.1422 57.7483 69.9373 57.2772 69.2158 56.8129ZM70.1988 50.4694L75.5919 54.6022C76.449 55.2622 76.7484 55.8773 76.4905 56.4514C76.4079 56.6354 76.2713 56.8133 76.0803 56.9829L75.1514 56.5731C75.2539 56.5536 75.3601 56.4902 75.4694 56.3844C75.5595 56.2981 75.6224 56.2173 75.6552 56.1442C75.7602 55.9106 75.5652 55.6091 75.0704 55.2439L68.5715 54.0906L68.9424 53.2654L73.7019 54.1693L69.8234 51.3049L70.1988 50.4694ZM76.6047 46.9948C77.1959 47.1738 77.6202 47.4563 77.8811 47.8412C78.1668 48.2605 78.2189 48.7646 78.0372 49.3532C77.8649 49.9114 77.4899 50.2794 76.9112 50.4535C76.2541 50.6525 75.3753 50.5852 74.2748 50.252L73.727 50.0859C72.6312 49.754 71.8663 49.3234 71.4369 48.7953C71.0594 48.3282 70.9591 47.8112 71.1342 47.2438C71.3139 46.6613 71.6392 46.2749 72.11 46.083C72.5356 45.9126 73.0426 45.9158 73.6337 46.0948L73.3709 46.9465C72.6054 46.7146 72.1359 46.8802 71.9617 47.4444C71.872 47.735 71.9672 48.0229 72.248 48.3104C72.6033 48.6738 73.2234 48.9887 74.1079 49.2566L74.4195 49.351C75.236 49.5983 75.8908 49.6914 76.386 49.6291C76.8516 49.5693 77.1362 49.3747 77.2385 49.0429C77.4127 48.4785 77.1136 48.0802 76.3419 47.8465L76.6047 46.9948ZM77.1235 41.5035C77.7976 41.5738 78.2973 41.7898 78.6241 42.1502C78.9309 42.4861 79.0558 42.9155 79.0004 43.4371L78.8245 45.0957L71.8891 44.3735L71.9819 43.4974L74.8357 43.7945C74.7887 43.4889 74.78 43.2034 74.8079 42.9394C74.9253 41.8342 75.6967 41.355 77.1235 41.5035ZM76.9982 42.4085C76.5937 42.3665 76.2732 42.4054 76.0348 42.5269C75.7963 42.6485 75.6648 42.8324 75.6388 43.0773C75.6118 43.3318 75.6224 43.5999 75.672 43.8816L78.0812 44.1325L78.1523 43.4613C78.2177 42.8459 77.8329 42.4955 76.9982 42.4085Z" fill="#D7B56D" stroke="#1C1B17" stroke-width="0.0838483" stroke-miterlimit="22.9256"/>
<path fill-rule="evenodd" clip-rule="evenodd" d="M40.1307 10.6201C56.2555 10.6201 69.3318 23.576 69.3318 39.5522C69.3318 55.5284 56.2555 68.4843 40.1307 68.4843C24.006 68.4843 10.9297 55.5284 10.9297 39.5522C10.9297 23.576 24.006 10.6201 40.1307 10.6201ZM40.1307 11.4519C55.792 11.4519 68.4923 24.0353 68.4923 39.5522C68.4923 55.0691 55.792 67.6525 40.1307 67.6525C24.4695 67.6525 11.7692 55.0691 11.7692 39.5522C11.7692 24.0353 24.4695 11.4519 40.1307 11.4519Z" fill="#D7B56D" stroke="#1C1B17" stroke-width="0.0838483" stroke-miterlimit="22.9256"/>
<path d="M9.03172 31.7105L8.83546 32.5698C8.38313 32.5863 7.86515 32.5292 7.28426 32.3988C6.61062 32.2477 6.14204 32.205 5.87899 32.2705C5.58769 32.3428 5.39715 32.5755 5.30736 32.9686C5.26207 33.1666 5.23691 33.3858 5.23051 33.6236L8.43059 34.3415L8.23204 35.2102L1.43066 33.6844L1.62898 32.8158L4.36781 33.4302C4.47143 33.2451 4.54874 33.0445 4.59781 32.8292C4.6877 32.4361 4.4147 32.1683 3.7772 32.0253L3.12712 31.8794C2.25653 31.6841 1.8806 31.331 1.99748 30.8195C2.05524 30.5669 2.12672 30.3845 2.21033 30.272L3.07291 30.4655C2.98096 30.5924 2.92949 30.6876 2.91485 30.7514C2.88488 30.8826 3.05884 30.9904 3.43661 31.075L3.85223 31.1683C4.43609 31.2993 4.85125 31.5104 5.09864 31.8036C5.33619 31.539 5.63355 31.3892 5.99061 31.3544C6.316 31.3209 6.79178 31.3752 7.41819 31.5158C8.10921 31.6708 8.64721 31.7356 9.03172 31.7105ZM7.77067 25.4004C8.75758 25.771 9.45753 26.2424 9.8688 26.8142C10.2801 27.3859 10.364 27.9919 10.1193 28.6319C9.87212 29.2778 9.40206 29.681 8.71046 29.842C8.01897 30.003 7.17904 29.8979 6.19191 29.5273L5.70148 29.3431C4.71447 28.9724 4.01669 28.5 3.60656 27.9254C3.19792 27.3512 3.11706 26.7413 3.36421 26.0953C3.60919 25.4553 4.07594 25.0561 4.76479 24.8975C5.45524 24.7395 6.29324 24.8455 7.28014 25.2163L7.77067 25.4004ZM7.37209 26.2032L7.04602 26.0807C5.43283 25.4749 4.47074 25.5805 4.15897 26.3955C3.84628 27.2133 4.49591 27.9241 6.10922 28.5299L6.43517 28.6524C8.04539 29.2572 9.00599 29.1509 9.31879 28.3331C9.63057 27.5181 8.98243 26.8079 7.37209 26.2032ZM14.0501 21.0653L13.5845 21.8103L9.25497 19.1551L12.8778 22.9416L12.4752 23.586L7.43625 22.066L11.7659 24.7212L11.3029 25.4623L5.37324 21.8257L6.05535 20.7339L11.3204 22.4265L7.43568 18.5245L8.1203 17.4287L14.0501 21.0653ZM17.9349 16.5896L17.2894 17.2811L15.6662 16.406L14.404 17.7586L15.4115 19.2933L14.7728 19.9779L10.9399 13.9076L11.5271 13.2784L17.9349 16.5896ZM14.931 16.0068L12.2732 14.5562L13.9448 17.0635L14.931 16.0068ZM22.0896 13.367L21.3645 13.8936L19.4916 11.3619L17.8489 12.5551L19.7219 15.0867L18.989 15.6188L14.8662 10.0463L15.5991 9.51407L17.3518 11.8832L18.9945 10.6901L17.2418 8.32096L17.9667 7.79449L22.0896 13.367ZM27.9795 11.8903L27.1846 12.2959C27.132 12.0655 26.9065 11.5653 26.5068 10.7964L23.8294 12.1622C24.2439 12.9597 24.5166 13.4358 24.6461 13.5909L23.8643 13.9898L22.7168 11.7819L22.8015 11.7387C22.9867 11.6443 23.0692 11.426 23.0515 11.0843C23.0261 10.6619 22.8414 10.1177 22.497 9.45516L20.696 5.98924L23.504 4.55669L26.307 9.95058L26.8321 9.6827L27.9795 11.8903ZM25.5036 10.3604L23.0921 5.72012L21.8279 6.365L23.2634 9.12721C23.7236 10.0129 23.8895 10.7198 23.7601 11.2498L25.5036 10.3604ZM32.9653 8.62942L32.0525 8.89288L31.1161 7.31449L29.3311 7.82974L29.3968 9.65946L28.4935 9.92021L28.3635 2.76107L29.194 2.5214L32.9653 8.62942ZM30.6934 6.59707L29.1693 3.99759L29.2989 6.99969L30.6934 6.59707ZM42.3768 7.95824L41.4926 7.94668L41.5729 1.92366L39.5977 1.89771L39.5172 7.92073L38.6183 7.90895L38.7105 1.00012L42.469 1.04942L42.3768 7.95824ZM47.8008 3.74784C47.7 4.39578 47.4706 4.88339 47.115 5.2077C46.7471 5.54629 46.2785 5.67219 45.7123 5.58584C45.4873 5.55139 45.2511 5.47342 45.0027 5.34968L44.5513 8.25286L43.6628 8.11722L44.7246 1.28829L46.248 1.52093C46.8779 1.61702 47.3222 1.8789 47.5839 2.30724C47.8182 2.69082 47.8905 3.17105 47.8008 3.74784ZM46.8953 3.63712C47.0138 2.87552 46.7556 2.44616 46.1191 2.34905L45.4842 2.25205L45.1324 4.51522C45.3886 4.65301 45.6268 4.73777 45.8487 4.77165C46.4148 4.85811 46.7644 4.47952 46.8953 3.63712ZM51.1989 9.80089L48.1205 8.88245L50.131 2.26656L53.1646 3.17161L52.9179 3.98308L50.7545 3.33752L50.1519 5.32045L52.2196 5.93734L51.9773 6.73487L49.9094 6.11798L49.2357 8.33512L51.4441 8.99396L51.1989 9.80089ZM56.4131 10.0991C56.127 10.6867 55.7485 11.0739 55.2754 11.2613C54.7916 11.4491 54.2668 11.4078 53.7015 11.1375C53.1884 10.8921 52.862 10.5248 52.7221 10.0355C52.5891 9.56156 52.652 9.0573 52.9122 8.52313L53.7304 8.91429C53.3889 9.61561 53.5034 10.1017 54.0747 10.3748C54.4032 10.5319 54.678 10.5674 54.8983 10.4827C55.1475 10.3871 55.3762 10.127 55.583 9.7023C55.9479 8.95339 55.8162 8.42884 55.1883 8.12866C54.9702 8.0243 54.7453 7.9417 54.5171 7.88051L54.8825 7.13024C55.0728 7.26928 55.278 7.39211 55.4961 7.49636C56.0674 7.76945 56.5213 7.55857 56.8601 6.86303C57.1834 6.19911 57.0655 5.73451 56.5059 5.46686C56.2618 5.35025 56.0235 5.33925 55.7931 5.43319C55.5413 5.53835 55.3378 5.75354 55.1787 6.08046L54.3646 5.69133C54.6206 5.16566 54.9837 4.81381 55.4547 4.63409C55.925 4.45584 56.4191 4.48972 56.9394 4.73856C57.4454 4.98027 57.7502 5.35524 57.8557 5.86358C57.9531 6.31854 57.8827 6.79074 57.6441 7.28038C57.3622 7.85943 56.9423 8.17705 56.3859 8.23428L56.3528 8.30193C56.7464 8.77423 56.7665 9.37323 56.4131 10.0991ZM59.8543 14.5905L59.119 14.1035L61.9485 9.9091L57.376 12.9493L56.5681 12.4144L60.4433 6.66994L61.1906 7.16491L58.3586 11.3633L62.9297 8.31643L63.7294 8.84596L59.8543 14.5905ZM63.0089 19.88L62.374 19.2563C62.5788 19.1356 62.9892 18.7686 63.604 18.1543L61.4655 16.0534C60.828 16.6904 60.4554 17.0945 60.3465 17.2645L59.7221 16.6509L61.4867 14.8876L61.5544 14.954C61.7022 15.0994 61.9373 15.1097 62.2598 14.9873C62.6574 14.8328 63.1228 14.4906 63.6522 13.9614L66.4226 11.1932L68.6654 13.3967L64.3541 17.7046L64.7736 18.1166L63.0089 19.88ZM63.7124 17.0741L67.4214 13.3679L66.4117 12.376L64.2038 14.5822C63.496 15.2895 62.8686 15.6642 62.3199 15.7062L63.7124 17.0741ZM66.6625 22.0134L64.7169 19.4776L70.2684 15.2961L72.1858 17.7951L71.5049 18.3079L70.1374 16.5257L68.4736 17.779L69.7804 19.4822L69.1112 19.9864L67.8042 18.2831L65.9439 19.6844L67.3396 21.5035L66.6625 22.0134ZM69.1437 26.3084L68.7183 25.5237L71.5092 24.0384L70.5454 22.2608L67.7545 23.746L67.3246 22.9529L73.468 19.6833L73.898 20.4765L71.2862 21.8665L72.25 23.6441L74.8617 22.2542L75.2871 23.0388L69.1437 26.3084ZM76.4592 28.6807L75.9533 27.3216L70.2403 29.4089L69.9342 28.5868L75.6474 26.4994L75.1453 25.1507L75.9751 24.8474L77.289 28.3775L76.4592 28.6807ZM71.7523 35.1843L71.5669 34.2605L73.2355 33.4738L72.873 31.6671L71.0276 31.5724L70.8441 30.658L78.0537 31.1539L78.2223 31.9944L71.7523 35.1843ZM73.9937 33.119L76.7403 31.8413L73.7105 31.7075L73.9937 33.119Z" fill="#D7B56D" stroke="#1C1B17" stroke-width="0.0838483" stroke-miterlimit="22.9256"/>
</svg>
