<svg width="48" height="47" viewBox="0 0 48 47" fill="none" xmlns="http://www.w3.org/2000/svg">
<path fill-rule="evenodd" clip-rule="evenodd" d="M15.7499 26.7674L26.9458 21.3646C28.1262 20.795 28.7398 19.6249 29.1019 18.4074L31.9179 8.93927C32.6598 9.367 33.3662 9.84844 34.0323 10.3777L30.2869 22.9711C29.8335 24.4956 29.3316 26.2003 27.8047 26.9371L24.3278 28.6149C23.9831 28.5827 23.6254 28.5656 23.2586 28.5656C20.4593 28.5656 18.1892 29.5547 18.189 30.7744V30.7731V30.7746V31.1552C18.189 32.3751 20.4593 33.3643 23.2586 33.3643C26.058 33.3643 28.3282 32.3751 28.3282 31.1552V34.1507V33.6718V34.1511C28.3277 35.3707 26.0577 36.3597 23.2586 36.3597C20.4595 36.3597 18.1894 35.3707 18.189 34.1511V33.6718V34.1507V31.5773L14.7222 33.2503C14.2581 33.4743 13.8849 33.2389 13.9769 32.7248L14.8241 27.9921C14.9182 27.4668 15.2589 27.0043 15.7499 26.7674ZM18.2103 30.977C18.2092 30.9718 18.2082 30.9667 18.2072 30.9616C18.2082 30.9667 18.2093 30.9718 18.2103 30.977ZM18.1949 30.8807C18.1932 30.8656 18.1919 30.8505 18.1909 30.8353C18.1918 30.8505 18.1932 30.8656 18.1949 30.8807Z" fill="#E31E24"/>
<path fill-rule="evenodd" clip-rule="evenodd" d="M14.4899 25.6176L25.6857 20.2148C26.8661 19.6452 27.4798 18.4751 27.8418 17.2576L30.5294 8.22125C30.9211 8.40177 31.3047 8.59649 31.6796 8.80481L28.8906 18.1822C28.5285 19.3997 27.9148 20.5698 26.7345 21.1395L15.5387 26.5422C15.0476 26.7792 14.7069 27.2416 14.6128 27.767L13.8725 31.9024L13.7656 32.4997C13.7219 32.7441 13.7833 32.9254 13.9096 33.0244L12.8809 32.1146C12.7545 32.0026 12.6709 31.8321 12.7169 31.575L13.5641 26.8423C13.6582 26.3169 13.9989 25.8545 14.4899 25.6176ZM23.2586 32.9835C26.058 32.9835 28.3282 31.9943 28.3282 30.7745C28.3282 29.5546 26.058 28.5654 23.2586 28.5654C20.4592 28.5654 18.1889 29.5546 18.1889 30.7745C18.1889 31.9943 20.4592 32.9835 23.2586 32.9835Z" fill="#009846"/>
<path d="M3.51085 27.4333C3.11984 27.5016 2.79601 27.4665 2.54142 27.3289C2.27627 27.1871 2.1137 26.9477 2.054 26.6122C2.03026 26.479 2.0295 26.331 2.05249 26.1673L0.300701 26.4733L0.207031 25.947L4.32759 25.2271L4.48824 26.1295C4.55459 26.5027 4.49016 26.8033 4.29506 27.0332C4.12028 27.2391 3.8589 27.3725 3.51085 27.4333ZM3.39961 26.9023C3.85925 26.822 4.05564 26.5938 3.98853 26.2168L3.92162 25.8407L2.55604 26.0793C2.5264 26.2501 2.52372 26.4006 2.54712 26.5319C2.60682 26.8673 2.89126 26.9911 3.39961 26.9023ZM1.44834 31.2682L0.852287 29.4505L4.83162 28.1695L5.41903 29.9607L4.93092 30.1178L4.51205 28.8403L3.31939 29.2243L3.71974 30.4452L3.24 30.5996L2.83966 29.3787L1.50612 29.808L1.9337 31.1119L1.44834 31.2682ZM4.02133 34.1581C3.69085 34.3249 3.38898 34.3782 3.11442 34.3198C2.81468 34.2568 2.5802 34.0608 2.4109 33.7317C2.25047 33.4197 2.25753 33.106 2.43403 32.7918C2.63393 32.4346 3.04154 32.1007 3.65674 31.7901L3.963 31.6355C4.57559 31.3262 5.0869 31.1962 5.49438 31.2468C5.85375 31.2926 6.11458 31.4743 6.27763 31.7914C6.44514 32.1171 6.46737 32.4182 6.34474 32.6955C6.23282 32.9448 6.01268 33.1528 5.68226 33.3196L5.43735 32.8434C5.86528 32.6274 5.99834 32.3621 5.83612 32.0467C5.7526 31.8842 5.59045 31.7992 5.34828 31.7911C5.04202 31.781 4.64195 31.9012 4.14753 32.1508L3.9733 32.2387C3.51682 32.4692 3.19512 32.6994 3.00757 32.9308C2.83176 33.1489 2.7908 33.3504 2.88625 33.5359C3.0484 33.8513 3.34506 33.8997 3.77649 33.6819L4.02133 34.1581ZM5.11894 37.8455L4.80706 37.4202L7.75816 35.2959L7.06144 34.3458L4.11033 36.4701L3.7933 36.0378L7.17837 33.6011L8.50401 35.4088L5.11894 37.8455ZM10.5575 37.5444L7.13754 39.7685C6.59226 40.1214 6.18149 40.1695 5.90323 39.9124C5.81402 39.8299 5.73881 39.7184 5.67904 39.5779L6.0951 39.1359C6.08624 39.1973 6.10182 39.2694 6.141 39.3515C6.17284 39.419 6.20688 39.4701 6.24229 39.5029C6.35559 39.6075 6.56619 39.5568 6.87197 39.35L8.80183 35.9224L9.20197 36.292L7.75466 38.7907L10.1524 37.1702L10.5575 37.5444ZM11.4067 41.8891C10.9201 42.5528 10.3913 42.6797 9.82019 42.2686L9.00777 41.6838L11.4672 38.3299L13.0003 39.4335L12.6986 39.8449L11.6019 39.0554L10.8984 40.0148C11.0949 40.1076 11.2363 40.1856 11.3233 40.2483C11.6029 40.4496 11.7466 40.6977 11.7526 40.9914C11.7574 41.2689 11.6423 41.5678 11.4067 41.8891ZM10.9697 41.5532C11.1131 41.3576 11.1872 41.1797 11.1919 41.0182C11.1966 40.8568 11.1356 40.7311 11.0087 40.6397C10.8841 40.55 10.7484 40.4772 10.6012 40.4199L9.74065 41.5935L10.0666 41.8281C10.3729 42.0486 10.6736 41.9568 10.9697 41.5532ZM14.1535 44.8075L13.6704 44.5636L15.329 41.3383L14.5784 40.9594L13.453 43.1477C13.082 43.8692 12.7317 44.1468 12.4013 43.98C12.2157 43.8863 12.0947 43.7962 12.0378 43.7082L12.2968 43.2047C12.3598 43.2892 12.4199 43.3455 12.4769 43.3742C12.5649 43.4186 12.6416 43.4111 12.7079 43.3519C12.7894 43.28 12.9052 43.0994 13.0537 42.8105L14.3647 40.2613L16.0531 41.1137L14.1535 44.8075ZM17.983 46.1149L17.4729 45.97L18.315 43.0603L16.2637 45.6264L15.7034 45.4672L16.8567 41.4822L17.3752 41.6295L16.5323 44.542L18.5815 41.9722L19.1363 42.1298L17.983 46.1149ZM21.7172 46.713L21.1888 46.6395C21.1563 46.3724 21.165 46.0626 21.2148 45.712C21.2724 45.3054 21.2749 45.0257 21.2223 44.8731C21.1641 44.7041 21.0142 44.6028 20.7725 44.5692C20.6508 44.5522 20.5173 44.5482 20.3734 44.5562L20.0995 46.4878L19.5653 46.4134L20.1476 42.3081L20.6818 42.3825L20.4473 44.0356C20.564 44.0877 20.6891 44.1235 20.8214 44.1419C21.0631 44.1756 21.2111 44.0006 21.2657 43.6157L21.3213 43.2234C21.3959 42.6979 21.5903 42.4577 21.9048 42.5014C22.0601 42.5231 22.1738 42.5563 22.2458 42.6003L22.1719 43.1209C22.0908 43.0728 22.0308 43.047 21.9915 43.0415C21.9109 43.0303 21.8545 43.1387 21.8222 43.3667L21.7866 43.6176C21.7366 43.97 21.6299 44.2264 21.4652 44.3876C21.6368 44.5151 21.7419 44.6839 21.7806 44.8936C21.8171 45.0848 21.808 45.3693 21.7544 45.7474C21.6952 46.1645 21.6828 46.4864 21.7172 46.713ZM25.6918 46.7057L25.1619 46.7332L25.002 43.7104L23.9057 46.7984L23.3235 46.8287L23.1046 42.6887L23.6432 42.6607L23.8033 45.6864L24.8964 42.5957L25.4729 42.5657L25.6918 46.7057ZM31.7408 44.0764C31.9828 44.8608 31.767 45.3557 31.0919 45.5602L30.1315 45.851L28.9082 41.8865L30.7205 41.3376L30.8705 41.8239L29.5741 42.2166L29.924 43.3506C30.1171 43.251 30.2651 43.1861 30.368 43.1549C30.6985 43.0548 30.985 43.0904 31.2253 43.2624C31.4518 43.4256 31.6236 43.6966 31.7408 44.0764ZM31.2069 44.22C31.1356 43.9889 31.0368 43.8232 30.9095 43.7222C30.7822 43.6214 30.6442 43.594 30.4942 43.6394C30.3469 43.684 30.2066 43.7476 30.0718 43.8296L30.4998 45.2168L30.8852 45.1001C31.2472 44.9904 31.3542 44.6972 31.2069 44.22ZM35.2825 43.7699L33.5487 44.6076L31.7145 40.8816L33.423 40.056L33.648 40.513L32.4295 41.1019L32.9792 42.2185L34.1438 41.6558L34.3649 42.105L33.2003 42.6678L33.815 43.9164L35.0588 43.3154L35.2825 43.7699ZM38.6393 41.4441L38.2062 41.7674L36.0075 38.8765L35.3346 39.3788L36.8265 41.3403C37.3184 41.987 37.4166 42.4206 37.1205 42.6418C36.9542 42.7659 36.8193 42.8341 36.7146 42.8463L36.3713 42.395C36.4757 42.3759 36.553 42.347 36.6041 42.3088C36.683 42.25 36.7097 42.1784 36.6851 42.0934C36.6556 41.9893 36.5425 41.8071 36.3456 41.548L34.6078 39.2631L36.1212 38.1332L38.6393 41.4441ZM41.8319 38.3562L41.4357 38.7627L40.4735 38.2168L39.6987 39.0119L40.2828 39.9456L39.8906 40.348L37.6712 36.6572L38.0317 36.2874L41.8319 38.3562ZM40.0377 37.9679L38.4624 37.0635L39.4323 38.5891L40.0377 37.9679ZM41.4207 33.6528C41.7537 33.867 41.9664 34.1115 42.0578 34.3842C42.1542 34.667 42.1083 34.952 41.9211 35.2377C41.8467 35.3512 41.7454 35.4599 41.6158 35.5641L43.1077 36.524L42.8139 36.9722L39.3048 34.7143L39.8085 33.9458C40.0168 33.628 40.2708 33.4518 40.5718 33.4154C40.8414 33.3829 41.1243 33.4621 41.4207 33.6528ZM41.1365 34.1163C40.7452 33.8645 40.4445 33.8987 40.2341 34.2196L40.0241 34.5399L41.187 35.2882C41.3262 35.1833 41.4318 35.0751 41.5051 34.9632C41.6923 34.6775 41.5694 34.3948 41.1365 34.1163ZM41.7263 30.3102L44.9622 32.7899C45.4764 33.1858 45.6561 33.555 45.5014 33.8994C45.4517 34.0098 45.3698 34.1166 45.2552 34.2183L44.6979 33.9724C44.7593 33.9607 44.8231 33.9226 44.8887 33.8592C44.9427 33.8074 44.9804 33.7589 45.0001 33.7151C45.0631 33.5749 44.9461 33.394 44.6493 33.1749L40.75 32.4829L40.9725 31.9878L43.8281 32.5301L41.5011 30.8115L41.7263 30.3102ZM45.5698 28.2254C45.9246 28.3328 46.1791 28.5023 46.3357 28.7333C46.5071 28.9849 46.5384 29.2873 46.4293 29.6405C46.326 29.9754 46.101 30.1962 45.7538 30.3007C45.3595 30.4201 44.8322 30.3797 44.1719 30.1797L43.8432 30.0801C43.1858 29.881 42.7268 29.6226 42.4692 29.3057C42.2427 29.0255 42.1825 28.7153 42.2876 28.3749C42.3954 28.0253 42.5905 27.7935 42.8731 27.6784C43.1284 27.5761 43.4326 27.578 43.7872 27.6854L43.6295 28.1964C43.1703 28.0573 42.8886 28.1567 42.7841 28.4952C42.7303 28.6695 42.7873 28.8423 42.9558 29.0148C43.169 29.2328 43.5411 29.4218 44.0718 29.5825L44.2587 29.6391C44.7486 29.7876 45.1415 29.8434 45.4386 29.806C45.718 29.7702 45.8887 29.6533 45.9501 29.4543C46.0547 29.1157 45.8752 28.8767 45.4121 28.7364L45.5698 28.2254ZM45.8811 24.9307C46.2856 24.9728 46.5854 25.1024 46.7815 25.3187C46.9656 25.5202 47.0405 25.7778 47.0073 26.0908L46.9017 27.086L42.7405 26.6527L42.7962 26.127L44.5085 26.3052C44.4803 26.1219 44.475 25.9506 44.4918 25.7922C44.5622 25.1291 45.0251 24.8415 45.8811 24.9307ZM45.806 25.4736C45.5633 25.4484 45.371 25.4718 45.2279 25.5447C45.0848 25.6177 45.0059 25.728 44.9903 25.8749C44.9741 26.0276 44.9804 26.1885 45.0102 26.3575L46.4558 26.508L46.4984 26.1053C46.5376 25.7361 46.3068 25.5259 45.806 25.4736Z" fill="#D7B56D" stroke="#1C1B17" stroke-width="0.050309" stroke-miterlimit="22.9256"/>
<path fill-rule="evenodd" clip-rule="evenodd" d="M23.6857 6.40057C33.3605 6.40057 41.2063 14.1741 41.2063 23.7598C41.2063 33.3455 33.3605 41.1191 23.6857 41.1191C14.0108 41.1191 6.16504 33.3455 6.16504 23.7598C6.16504 14.1741 14.0108 6.40057 23.6857 6.40057ZM23.6857 6.89962C33.0824 6.89962 40.7026 14.4497 40.7026 23.7598C40.7026 33.07 33.0824 40.62 23.6857 40.62C14.289 40.62 6.66873 33.07 6.66873 23.7598C6.66873 14.4497 14.289 6.89962 23.6857 6.89962Z" fill="#D7B56D" stroke="#1C1B17" stroke-width="0.050309" stroke-miterlimit="22.9256"/>
<path d="M5.02646 19.0549L4.9087 19.5704C4.6373 19.5804 4.32651 19.5461 3.97798 19.4679C3.57379 19.3772 3.29265 19.3516 3.13481 19.3909C2.96003 19.4343 2.84571 19.5739 2.79184 19.8098C2.76467 19.9286 2.74957 20.06 2.74573 20.2028L4.66578 20.6335L4.54665 21.1547L0.46582 20.2392L0.584811 19.7181L2.22811 20.0867C2.29028 19.9757 2.33667 19.8553 2.36611 19.7261C2.42004 19.4902 2.25624 19.3296 1.87374 19.2438L1.48369 19.1563C0.961341 19.039 0.73578 18.8272 0.805912 18.5203C0.840566 18.3687 0.883455 18.2593 0.933618 18.1918L1.45117 18.3079C1.39599 18.384 1.36511 18.4411 1.35633 18.4794C1.33835 18.5581 1.44273 18.6228 1.66939 18.6736L1.91876 18.7295C2.26908 18.8081 2.51817 18.9348 2.6666 19.1108C2.80913 18.952 2.98755 18.8621 3.20179 18.8413C3.39702 18.8211 3.68249 18.8537 4.05833 18.9381C4.47295 19.0311 4.79575 19.07 5.02646 19.0549ZM4.26983 15.2688C4.86197 15.4912 5.28194 15.774 5.5287 16.1171C5.77547 16.4601 5.82584 16.8237 5.67899 17.2077C5.53069 17.5953 5.24866 17.8372 4.8337 17.9338C4.41881 18.0304 3.91484 17.9673 3.32256 17.745L3.02831 17.6344C2.4361 17.412 2.01744 17.1286 1.77136 16.7838C1.52617 16.4393 1.47766 16.0734 1.62595 15.6858C1.77294 15.3018 2.05298 15.0622 2.4663 14.9671C2.88057 14.8723 3.38336 14.9359 3.97551 15.1584L4.26983 15.2688ZM4.03068 15.7505L3.83504 15.677C2.86712 15.3135 2.28987 15.3769 2.1028 15.8659C1.91519 16.3566 2.30497 16.7831 3.27295 17.1465L3.46852 17.22C4.43466 17.5829 5.01102 17.5191 5.1987 17.0284C5.38576 16.5394 4.99688 16.1134 4.03068 15.7505ZM8.03746 12.6677L7.7581 13.1148L5.16041 11.5216L7.33408 13.7935L7.09254 14.1802L4.06917 13.2682L6.66694 14.8613L6.38916 15.306L2.83137 13.124L3.24063 12.4689L6.39966 13.4845L4.06883 11.1433L4.4796 10.4858L8.03746 12.6677ZM10.3684 9.98234L9.98105 10.3972L9.00716 9.8722L8.24985 10.6837L8.85434 11.6046L8.47109 12.0153L6.17135 8.37315L6.52366 7.9956L10.3684 9.98234ZM8.56599 9.63267L6.97135 8.76232L7.97433 10.2667L8.56599 9.63267ZM12.8612 8.04877L12.4261 8.36472L11.3024 6.84575L10.3168 7.56162L11.4406 9.08059L11.0008 9.39987L8.52715 6.05639L8.96688 5.73703L10.0185 7.15851L11.0041 6.44264L9.95251 5.02116L10.3874 4.70528L12.8612 8.04877ZM16.3951 7.16279L15.9182 7.40613C15.8866 7.2679 15.7513 6.96779 15.5115 6.50641L13.9051 7.3259C14.1538 7.80441 14.3174 8.09004 14.3951 8.18312L13.926 8.42245L13.2375 7.09773L13.2883 7.07182C13.3995 7.01518 13.4489 6.88417 13.4383 6.67918C13.4231 6.42571 13.3123 6.09922 13.1056 5.70168L12.025 3.62213L13.7098 2.7626L15.3916 5.99894L15.7067 5.83821L16.3951 7.16279ZM14.9096 6.24485L13.4627 3.46066L12.7042 3.84759L13.5655 5.50492C13.8416 6.03633 13.9411 6.46045 13.8635 6.77844L14.9096 6.24485ZM19.3866 5.20624L18.839 5.36432L18.2771 4.41728L17.2061 4.72643L17.2455 5.82427L16.7035 5.98072L16.6255 1.68523L17.1238 1.54143L19.3866 5.20624ZM18.0234 3.98683L17.109 2.42714L17.1867 4.2284L18.0234 3.98683ZM25.0335 4.80353L24.503 4.7966L24.5511 1.18278L23.366 1.16721L23.3177 4.78103L22.7784 4.77396L22.8337 0.628662L25.0888 0.658242L25.0335 4.80353ZM28.2879 2.27729C28.2274 2.66606 28.0898 2.95862 27.8764 3.15321C27.6557 3.35636 27.3745 3.4319 27.0348 3.38009C26.8998 3.35942 26.7581 3.31264 26.6091 3.2384L26.3382 4.9803L25.8051 4.89892L26.4422 0.801566L27.3562 0.941145C27.7342 0.9988 28.0007 1.15593 28.1578 1.41293C28.2983 1.64308 28.3417 1.93122 28.2879 2.27729ZM27.7446 2.21086C27.8157 1.7539 27.6608 1.49628 27.2789 1.43802L26.898 1.37982L26.6869 2.73772C26.8406 2.82039 26.9835 2.87125 27.1166 2.89158C27.4563 2.94346 27.666 2.7163 27.7446 2.21086ZM30.3267 5.90912L28.4797 5.35806L29.686 1.38853L31.5062 1.93156L31.3582 2.41844L30.0601 2.0311L29.6986 3.22086L30.9392 3.59099L30.7938 4.06951L29.5531 3.69937L29.1488 5.02966L30.4739 5.42496L30.3267 5.90912ZM33.4553 6.08807C33.2836 6.4406 33.0565 6.67292 32.7726 6.78538C32.4824 6.89804 32.1675 6.87329 31.8283 6.71107C31.5205 6.56387 31.3246 6.34344 31.2407 6.04986C31.1609 5.76553 31.1986 5.46297 31.3548 5.14247L31.8457 5.37716C31.6408 5.79795 31.7095 6.08963 32.0522 6.25349C32.2493 6.34772 32.4142 6.36901 32.5464 6.31822C32.6959 6.26083 32.8332 6.10479 32.9572 5.84997C33.1761 5.40062 33.0971 5.08589 32.7204 4.90579C32.5896 4.84317 32.4546 4.79361 32.3177 4.75689L32.5369 4.30673C32.6511 4.39015 32.7742 4.46385 32.9051 4.5264C33.2478 4.69026 33.5202 4.56373 33.7235 4.14641C33.9175 3.74805 33.8467 3.4693 33.5109 3.3087C33.3645 3.23874 33.2215 3.23214 33.0833 3.2885C32.9322 3.3516 32.8101 3.48071 32.7146 3.67687L32.2262 3.44339C32.3798 3.12798 32.5976 2.91687 32.8802 2.80904C33.1624 2.70209 33.4589 2.72242 33.7711 2.87173C34.0747 3.01675 34.2576 3.24173 34.3208 3.54673C34.3793 3.81972 34.337 4.10303 34.1939 4.39682C34.0247 4.74425 33.7728 4.93482 33.439 4.96916L33.4191 5.00974C33.6553 5.29313 33.6673 5.65253 33.4553 6.08807ZM35.52 8.78286L35.0788 8.49071L36.7765 5.97405L34.033 7.79816L33.5483 7.47724L35.8734 4.03055L36.3218 4.32753L34.6226 6.84657L37.3652 5.01845L37.8451 5.33616L35.52 8.78286ZM37.4127 11.9566L37.0318 11.5824C37.1547 11.5099 37.4009 11.2897 37.7698 10.9212L36.4867 9.66061C36.1042 10.0429 35.8807 10.2853 35.8153 10.3873L35.4407 10.0191L36.4994 8.96113L36.5401 9.00097C36.6287 9.0882 36.7698 9.09439 36.9633 9.02096C37.2019 8.92829 37.4811 8.72296 37.7987 8.40545L39.461 6.74452L40.8067 8.06659L38.2199 10.6514L38.4716 10.8986L37.4127 11.9566ZM37.8348 10.2731L40.0603 8.04932L39.4545 7.4542L38.1297 8.77789C37.705 9.20229 37.3286 9.42713 36.9994 9.45229L37.8348 10.2731ZM39.6049 13.2366L38.4375 11.7151L41.7685 9.20623L42.9189 10.7056L42.5103 11.0133L41.6899 9.944L40.6916 10.696L41.4757 11.7179L41.0741 12.0204L40.2899 10.9985L39.1738 11.8392L40.0112 12.9307L39.6049 13.2366ZM41.0936 15.8137L40.8384 15.3428L42.513 14.4516L41.9347 13.385L40.2601 14.2762L40.0022 13.8003L43.6882 11.8385L43.9462 12.3145L42.3791 13.1485L42.9574 14.2151L44.5245 13.3811L44.7797 13.8519L41.0936 15.8137ZM45.4829 17.237L45.1794 16.4216L41.7516 17.6739L41.568 17.1807L44.9958 15.9282L44.6946 15.119L45.1925 14.9371L45.9808 17.0551L45.4829 17.237ZM42.6588 21.1392L42.5475 20.5849L43.5487 20.1129L43.3312 19.0288L42.224 18.972L42.1139 18.4234L46.4397 18.7209L46.5408 19.2252L42.6588 21.1392ZM44.0036 19.9L45.6516 19.1333L43.8337 19.0531L44.0036 19.9Z" fill="#D7B56D" stroke="#1C1B17" stroke-width="0.050309" stroke-miterlimit="22.9256"/>
</svg>
